<svg xmlns="http://www.w3.org/2000/svg" viewBox="0 0 791.5 422.34"><defs><style>.cls-1{fill:#fff;}.cls-2{fill:none;stroke:#fff;stroke-width:7px;}</style></defs><g id="Camada_2" data-name="Camada 2"><g id="Setas"><g id="Seta_8" data-name="Seta 8"><path class="cls-1" d="M726.54,314a80,80,0,0,1,15.35,11.68,71.06,71.06,0,0,1,21.6,42.45v29.58a92.6,92.6,0,0,0-38.29-8.75,76.63,76.63,0,0,0-34.68,8.19V367.7a58.06,58.06,0,0,1,5.14-20.14c6.12-13.89,16.5-25.17,30.88-33.59m-.09-8c-42.71,22.83-42.93,61.65-42.93,61.65v41.83a70.86,70.86,0,0,1,41.68-13.55c25.77,0,45.29,13.55,45.29,13.55V367.65c-5.61-44.21-44-61.65-44-61.65Z"/></g><g id="Seta_7" data-name="Seta 7"><path class="cls-1" d="M508.43,297.72a4.13,4.13,0,0,1,4.12,4.12,4.08,4.08,0,0,1-1.34,3l-2.48,2.29-2.72-2a4.08,4.08,0,0,1-1.7-3.32,4.13,4.13,0,0,1,4.12-4.12m1.07,16.48,2.69,1.72c11.18,7.11,30.44,23.35,34.3,52.34v29.47A92.9,92.9,0,0,0,508.2,389a76.75,76.75,0,0,0-34.68,8.18V367.86a56.35,56.35,0,0,1,4.24-17.94c5.4-13.46,14.81-24.65,28-33.25l3.78-2.47m-1.07-23.48a11.11,11.11,0,0,0-6.54,20.1c-35.17,23-35.37,57-35.37,57v41.71A71,71,0,0,1,508.2,396c25.77,0,45.29,13.52,45.29,13.52V367.81c-4.16-32.67-26.33-50.66-37.54-57.8a11.1,11.1,0,0,0-7.52-19.29ZM512.15,401c-25.4,0-45.65,13.37-45.65,13.37v8c14.39-11,28.86-14.66,41.75-14.66,25.78,0,45.25,14.66,45.25,14.66v-7A65.5,65.5,0,0,0,512.15,401Z"/></g><g id="Seta_6" data-name="Seta 6"><path class="cls-1" d="M292.55,314c8.52,4.91,32.61,21.53,36.94,54.13v29.58a92.6,92.6,0,0,0-38.29-8.75,76.6,76.6,0,0,0-34.68,8.19V367.7a58.18,58.18,0,0,1,5.14-20.14c6.12-13.89,16.5-25.18,30.89-33.59m-.1-8c-42.71,22.83-42.93,61.65-42.93,61.65v41.83a70.86,70.86,0,0,1,41.68-13.55c25.77,0,45.29,13.55,45.29,13.55V367.65c-5.61-44.21-44-61.65-44-61.65Zm2.7,94.93c-25.4,0-45.65,13.41-45.65,13.41v8c14.39-11,28.86-14.71,41.75-14.71,25.78,0,45.25,14.71,45.25,14.71v-7a65.38,65.38,0,0,0-41.35-14.41Z"/></g><g id="Seta_5" data-name="Seta 5"><path class="cls-2" d="M162.5,316.34c-35.91,0-40,35-40,35l1,45h79v-42S198.42,316.34,162.5,316.34Z"/></g><g id="Seta_4" data-name="Seta 4"><path class="cls-2" d="M43.5,316.34c-35.91,0-40,35-40,35l1,45h79v-42S79.42,316.34,43.5,316.34Z"/></g><g id="Seta_3" data-name="Seta 3"><path class="cls-1" d="M747.54,8a80,80,0,0,1,15.35,11.68,71.06,71.06,0,0,1,21.6,42.45V91.68a92.6,92.6,0,0,0-38.29-8.75,76.6,76.6,0,0,0-34.68,8.19V61.7a58.18,58.18,0,0,1,5.14-20.14c6.12-13.89,16.5-25.17,30.88-33.59m-.09-8c-42.71,22.83-42.93,61.65-42.93,61.65v41.83A70.86,70.86,0,0,1,746.2,89.93c25.77,0,45.29,13.55,45.29,13.55V61.65c-5.61-44.21-44-61.65-44-61.65Zm2.7,94.93c-25.4,0-45.65,13.41-45.65,13.41v8c14.39-11,28.86-14.71,41.75-14.71,25.78,0,45.25,14.71,45.25,14.71v-7a65.38,65.38,0,0,0-41.35-14.41Z"/></g><g id="Seta_2" data-name="Seta 2"><path class="cls-2" d="M398.5,8.34c-35.91,0-40,35-40,35l1,45h79v-42S434.42,8.34,398.5,8.34Z"/></g><g id="Seta_1" data-name="Seta 1"><path class="cls-2" d="M101.5,8.34c-35.91,0-40,35-40,35l1,45h79v-42S137.42,8.34,101.5,8.34Z"/></g></g></g></svg>