<svg xmlns="http://www.w3.org/2000/svg" viewBox="0 0 805.44 1554.52"><defs><style>.cls-1{fill:none;stroke:#fff;stroke-miterlimit:10;stroke-width:5px;}</style></defs><g id="Camada_2" data-name="Camada 2"><g id="Camada_2-2" data-name="Camada 2"><polyline class="cls-1" points="446.94 0.15 446.94 178.07 729.61 266.07 729.61 534.96"/><line class="cls-1" x1="381.76" y1="0.3" x2="381.76" y2="538.37"/><polyline class="cls-1" points="316.43 0 316.43 177.93 83.98 265.78 83.98 537.33"/><polyline class="cls-1" points="61.28 625.18 61.28 699.07 25.28 735.07 25.28 844.96"/><polyline class="cls-1" points="104.72 625.41 104.72 696.96 145.06 737.3 145.06 844.96"/><polyline class="cls-1" points="358.5 625.63 358.5 678.52 272.72 764.3 272.72 841.18"/><polyline class="cls-1" points="402.94 625.18 402.94 671.85 490.06 758.96 490.06 823.41"/><line class="cls-1" x1="707.39" y1="625.19" x2="707.39" y2="842.96"/><polyline class="cls-1" points="751.83 624.3 751.83 716.74 802.94 767.85 802.94 1147.85 762.72 1188.07 762.72 1554.07"/><line class="cls-1" x1="2.5" y1="930.96" x2="2.5" y2="1554.07"/><polyline class="cls-1" points="46.06 931.85 46.06 1155.85 109.17 1218.96 109.17 1553.18"/><polyline class="cls-1" points="121.91 931.26 121.91 1202.07 107.98 1216"/><polyline class="cls-1" points="165.17 931.26 165.17 1161.18 217.31 1213.33"/><polyline class="cls-1" points="251.09 931.85 251.09 1168.96 219.24 1200.82 219.24 1554.07"/><polyline class="cls-1" points="294.5 930.52 294.5 1169.63 327.17 1202.3 327.17 1554.52"/><polyline class="cls-1" points="468.28 931.41 468.28 1168.3 435.83 1200.74 435.83 1553.63"/><polyline class="cls-1" points="512.28 930.07 512.28 1170.07 545.17 1202.96 545.17 1554.07"/><polyline class="cls-1" points="684.72 931.85 684.72 1168.74 652.28 1201.18 652.28 1554.07"/><polyline class="cls-1" points="729.17 930.52 729.17 1169.63 761.17 1201.63"/></g></g></svg>