<svg xmlns="http://www.w3.org/2000/svg" viewBox="0 0 203 104"><defs><style>.cls-1{fill:#fff;}</style></defs><g id="Camada_2" data-name="Camada 2"><g id="Placar"><g id="Retângulo_1" data-name="Retângulo 1"><path class="cls-1" d="M198,29V99H5V29H198m5-5H0v80H203V24Z"/></g><g id="Retângulo_2" data-name="Retângulo 2"><path class="cls-1" d="M190,38.86V89.14H14V38.86H190m4-4H10V93.14H194V34.86Z"/></g><g id="Retângulo_3" data-name="Retângulo 3"><path class="cls-1" d="M0,0V29H203V0ZM25.79,23.71A9.21,9.21,0,1,1,35,14.5,9.21,9.21,0,0,1,25.79,23.71Zm38,0A9.21,9.21,0,1,1,73,14.5,9.21,9.21,0,0,1,63.79,23.71Zm38,0A9.21,9.21,0,1,1,111,14.5,9.21,9.21,0,0,1,101.79,23.71Zm37,0A9.21,9.21,0,1,1,148,14.5,9.21,9.21,0,0,1,138.79,23.71Zm38,0A9.21,9.21,0,1,1,186,14.5,9.21,9.21,0,0,1,176.79,23.71Z"/></g><g id="Elipse_1" data-name="Elipse 1"><path class="cls-1" d="M25.74,8.67a5.77,5.77,0,1,0,5.77,5.77A5.77,5.77,0,0,0,25.74,8.67Z"/></g><g id="Elipse_1_copiar" data-name="Elipse 1 copiar"><path class="cls-1" d="M63.74,8.67a5.77,5.77,0,1,0,5.77,5.77A5.77,5.77,0,0,0,63.74,8.67Z"/></g><g id="Elipse_1_copiar_2" data-name="Elipse 1 copiar 2"><path class="cls-1" d="M101.74,8.67a5.77,5.77,0,1,0,5.77,5.77A5.77,5.77,0,0,0,101.74,8.67Z"/></g><g id="Elipse_1_copiar_3" data-name="Elipse 1 copiar 3"><path class="cls-1" d="M138.74,8.67a5.77,5.77,0,1,0,5.77,5.77A5.77,5.77,0,0,0,138.74,8.67Z"/></g><g id="Elipse_1_copiar_4" data-name="Elipse 1 copiar 4"><path class="cls-1" d="M176.74,8.67a5.77,5.77,0,1,0,5.77,5.77A5.77,5.77,0,0,0,176.74,8.67Z"/></g></g></g></svg>