<svg xmlns="http://www.w3.org/2000/svg" viewBox="0 0 600.3 1749.12"><defs><style>.cls-1{fill:#fff;}</style></defs><g id="Layer_1" data-name="Layer 1"><path class="cls-1" d="M600.87,2362.88c.36-3.71-1.75-5.82-5-5.88-10.57-.18-21.14-.11-31.7.3-1.18,0-3.22,2.82-3.23,4.34q-.27,65,0,130c0,2.31,2.27,5,4.11,6.85,5.93,6,12.22,11.71,18.25,17.64,6.71,6.61,13.37,13.27,19.83,20.11.87.93.61,3.08.61,4.66q0,96.24,0,192.48v6.33h41.84v89.43h-88.8v-89.21h40.94V2734q0-73,.08-146c0-3.94-1.09-6.16-4.63-8.37-11.63-7.23-22.83-15.12-34.27-22.65-9.08-6-18.32-11.73-27.39-17.74-9.37-6.21-18.52-12.77-28-18.87-6.89-4.44-14.18-8.26-21.15-12.57s-13.61-8.72-20.28-13.28c-.86-.59-1.12-2.29-1.34-3.53a24.11,24.11,0,0,1,0-4q0-275.73-.28-551.45c0-9,3.43-14.59,9.24-20.18,9-8.7,17.75-17.71,26.65-26.54,7.39-7.34,14.89-14.56,22.21-22a7.21,7.21,0,0,0,2.09-4.45c.11-31.16.07-62.32,0-93.49,0-.27-.25-.55-.8-1.69l-17.76,11.35a19.9,19.9,0,0,1-.37-2.94c0-13.5-.61-27,.21-40.48.89-14.41,4.5-28.34,14.21-39.66,6.44-7.51,13.56-14.45,20.38-21.64l.9.84c0-.32.25-.75.12-1-5.82-8.81-2.76-15.65,5.32-20.29.7-.4,1.37-.87,2-1.3l4.55-.14c2.44,2,5.32,3.63,7.23,6,4.21,5.27,4.23,10.78-1,15.78,5.43,4.62,11.14,8.47,15.52,13.48a109.89,109.89,0,0,1,13.35,19.21c7.18,13.08,7.86,27.52,7.42,42.11-.31,10.07-.06,20.16-.06,30.34l-15.23-10.25v6c0,58.16.07,116.32-.14,174.48,0,4.32.87,7.41,4.5,9.43A63.39,63.39,0,0,1,602,1976.73a140.93,140.93,0,0,1,10.71,17.72c6.75,13,5,27.29,5.08,41.22.08,9,0,17.93,0,26.8l-17.51-10.87c-1.36,4.61-.37,6.94,4,8.24,3.78,1.15,7.9,2.76,10.57,5.45,2.28,2.3,2.72,6.43,2.85,10.15l-17.94-11.2c0,12-.08,23,.15,34.07,0,.93,2,2,3.21,2.72,4.19,2.53,8.48,4.91,12.68,7.43,6,3.62,12,7.35,18,10.95,2.09,1.25,4.32,2.23,6.47,3.37,5.14,2.71,10.32,5.35,15.39,8.18,6.93,3.87,13.71,8,20.69,11.8,6,3.24,12.2,6,18.15,9.22,6.43,3.52,12.64,7.44,19,11.11,2.37,1.37,4.87,2.53,7.29,3.83q13,7,26,14c3.42,1.85,6.8,3.79,10.52,5.86V1766.93h-17.2a27.76,27.76,0,0,1-.35-3.31c.28-18.3-.32-36.69,1.22-54.88.93-10.92,8.06-19.89,17.61-25.53,6.88-4.06,14.75-6.45,23.15-10v-12.7c0-21.34-.42-42.68.24-64,.21-6.9-2.66-11.24-6.89-15.48-3.21-3.22-6.86-6-10-9.33-1-1.12-1.34-3.26-1.34-4.94-.1-18-.06-36-.06-54.46H715.56c15.23-31.21,30-61.5,44.19-90.52-2.29-4.67-5.38-8.51-6-12.71-1-7.07,4.76-10.32,10.11-13.27l4.73.17c9.19,4,11.13,10.77,8.33,18.22-.34.9-.74,2.08-1.47,2.48-3.91,2.14-3.52,5-1.8,8.33,4.72,9.11,9.47,18.22,14.05,27.41,3,6,5.55,12.2,8.52,18.21,5,10.11,10.2,20.1,15.17,30.21,1.72,3.51,3,7.24,4.66,11.31H768.74v29.65c0,6.33.41,12.7-.12,19-.47,5.65,1.15,10,5.28,13.68q5.1,4.53,10.06,9.22a11.08,11.08,0,0,1,3.9,8.7c-.22,27.47-.12,54.95-.12,81.65,6.43,2.34,12.62,4.06,18.32,6.8,8,3.82,13.7,10.24,17.94,18,3.9,7.11,5.1,14.69,4.94,22.74-.25,13.15-.05,26.32-.07,39.48,0,1.78-.17,3.57-.27,5.6H810.07v39.42l129.65,86.88c0-8.27.63-15.44-.19-22.44-.75-6.45,2.53-10.3,6.41-14.21,7.7-7.78,14.87-16.25,23.4-23,6.29-5,6.53-10.61,6.43-17.29-.18-11.93,0-23.87,0-36.93l-19.56,12.1c-1.08-7.44-.43-8.67,6-12a107.34,107.34,0,0,0,10.7-6c1.54-1,2.46-3,3.66-4.53l-1.83-1.9-19.91,12.1c1-20.1,1-39.88,3.32-59.4,1.16-10,6.51-19.41,13.76-27,6.22-6.49,12.84-12.59,19.34-18.91-5.51-6.71-4.05-13.86,4.49-19a12.46,12.46,0,0,0,2.07-2l5.89,0a10.18,10.18,0,0,0,2,2c8.23,4.47,9.84,12.28,4.32,18.79,6.69,6.52,13.9,12.53,19.8,19.64,4.5,5.42,7.73,12,10.8,18.47,5.12,10.71,5,22.36,5,33.91q0,16.42,0,32.88l-19-11.64c-2.28,5.44.89,6.78,3.92,8.27,4,2,8.64,3.35,11.87,6.24,2.36,2.11,2.9,6.25,4.25,9.49l-1.28.67-19.32-12.18c-.15,2.62-.31,4.18-.31,5.74,0,31.66-.06,63.32.09,95a10.64,10.64,0,0,0,2.37,6.7c7,7.46,14.37,14.62,21.68,21.81,3.11,3.07,6.61,5.77,9.54,9,1,1.14,1.25,3.35,1.25,5.06q.09,101.73,0,203.39c-5.7,4-11.39,7.86-17,11.88-8.19,5.92-16.31,11.93-24.44,17.93-6.62,4.88-13.15,9.89-19.81,14.72-7.81,5.67-15.77,11.15-23.58,16.84-6.92,5-13.71,10.24-20.57,15.35-5.51,4.1-11.11,8.1-16.52,12.33a5.76,5.76,0,0,0-2,3.86c-.17,9.16-.09,18.32-.09,27.39,9,4.83,10.72,9.55,7.76,18.95-.46,1.48.43,4.53,1.63,5.22a58.82,58.82,0,0,1,20.94,20.93,93.06,93.06,0,0,1,9.79,24.17c4.84,18.37,2.09,37.25,2.8,56.56L959.92,2360c-.13,2.66-.21,4.38-.28,5.89,4.93,2.51,9.74,4.74,14.32,7.37,4.19,2.39,7.21,5.66,5.18,11.41l-19.2-11.57-6.12-1.09c-13.05-5.53-26.2-5.09-40.08-.28v5c0,31-.28,62,.23,93,.11,6.48-2.82,10.24-6.73,14.06-10.47,10.24-20.46,21.08-31.77,30.3-7.23,5.9-13.65,12.46-20.33,18.82-9,8.56-17.82,17.3-26.82,25.85-2.11,2-4.93,3.27-6.92,5.36-1.61,1.68-3.5,4.08-3.51,6.16q-.27,83.74-.12,167.5a18.58,18.58,0,0,0,.26,1.94H859.9v89.36H770V2740h42.72v-6.16q0-97.5.13-195c0-4.44-1.18-7.59-4.22-10.53-8.7-8.41-17.37-16.88-25.88-25.49-.9-.91-1-2.91-1-4.4q-.07-66.49,0-133v-5.57h-41l-4.59.12H716.6c0-16.12.35-31.11-.14-46.08A44.73,44.73,0,0,1,722,2291c3.31-6.21,7.92-11.95,14.5-15.18,6.74-3.31,13.76-6,21.26-9.27,0-21.06-.37-43.22.23-65.36.17-6.57-2.49-9.55-7.56-12.26-10.13-5.4-20-11.22-30.12-16.71-6-3.24-12.12-6.15-18.17-9.26q-4.11-2.1-8.12-4.4c-5.92-3.43-11.74-7.05-17.72-10.36-6.44-3.55-13.08-6.74-19.53-10.26-8.17-4.48-16.2-9.21-24.38-13.68-6-3.27-12.14-6.13-18.08-9.44-6.78-3.77-13.4-7.84-20.55-12.05,0-11.45-.19-23.61.12-35.76.09-3.71-1.91-5.63-4.54-5.73-10.57-.39-21.17-.46-31.73,0-2.6.1-5.05,2-5,6.11.33,15.16.09,30.33.19,45.49,0,1.89.12,4.39,1.26,5.55,7,7.16,14.34,14,21.61,21,5,4.8,8.55,9.53,8.35,17.59-.71,28.48-.3,57-.22,85.49,0,1.65.21,4.06,1.27,4.84,9,6.71,10.21,11.46,4.42,20.21,3.45,2.7,7,5.26,10.35,8.12,12.08,10.39,21.5,23.24,23.59,38.88,2.5,18.79,2,38,2.81,57.71-6.42-3.89-11.58-7.13-16.87-10.13-1-.57-2.53-.17-3.82-.22Zm-29.12-95.41c-6-6.6-4.15-16.2,3.27-19.8a5.81,5.81,0,0,0,2.59-4.36q.23-45.49.06-91a6.13,6.13,0,0,0-1.19-4c-7.21-7.22-14.6-14.26-21.9-21.4-4.28-4.18-7.47-8.33-7.09-15.3.77-14.29.23-28.65.22-43,0-1.22-.17-2.44-.33-4.65l-18.33,11.72c-1.22-4.59-.28-8.33,3.62-10.7a72.68,72.68,0,0,1,10.21-5.12c3.62-1.49,5.94-3.39,4.16-8.49l-18.32,11.5c0-12.24.39-24.24-.09-36.2-.73-18.34,4.17-34.74,15.47-49.17,7.41-9.45,16.75-16.6,27.45-22.66V1770.79l-6.14-6.15a81.22,81.22,0,0,0-38.11.46,24.54,24.54,0,0,1,.43,3q0,47-.05,94a5.11,5.11,0,0,1-1.56,3c-5.39,5.51-10.87,10.93-16.3,16.39q-19.63,19.73-39.22,39.48c-3,3-5.05,6-5,11q.33,275.47.18,550.94v6.9c6.61,4.16,12.87,8,19,12,4.82,3.19,9.31,6.88,14.19,10,5.42,3.41,11.31,6.11,16.66,9.62,6.43,4.21,12.39,9.13,18.77,13.4,5.42,3.62,11.27,6.58,16.72,10.15,11.47,7.53,22.8,15.27,34.2,22.92,4,2.68,8,5.33,12.47,8.3,0-12,.16-23.16-.14-34.31-.06-2-1.68-4.28-3.12-5.95-3.06-3.56-6.44-6.86-9.77-10.19-7.32-7.31-14.55-14.72-22.1-21.79-4.25-4-7.12-7.72-7.06-14.29.38-41.33.19-82.66.19-124v-6.52l-20,12.3c0-12.32.11-24.63,0-36.94-.17-15.87,3.28-30.5,12.35-43.92C554.38,2281.27,562.55,2274.2,571.75,2267.47Zm246,292.41c1.07-.14,1.51-.05,1.69-.23q14.15-13.58,28.26-27.18c5.62-5.37,11.37-10.6,17-16,6-5.79,11.87-11.77,17.94-17.52,7.08-6.72,14.33-13.28,21.49-19.93a14.19,14.19,0,0,0,4.78-12.28c-.58-9-.16-18-.16-27v-67.15L888,2385.11c.78-3.63.44-7.48,2.07-8.68,5.56-4.11,11.81-7.28,18.34-11.14v-5.73l-20,12.4c1.87-20.13-2.14-40,3.16-59.62,2.32-8.58,5.72-16.69,10.85-23.42,6.2-8.14,14.42-14.74,22-22.22-5-11.67-3.79-15.55,7.35-20.53v-5.9c0-29.32-.07-58.64.12-88a11.47,11.47,0,0,1,2.79-7.23c7.19-7.48,14.66-14.71,22.29-21.75,3.88-3.57,5-7.49,4.94-12.73-.36-18.66-.14-37.32-.14-56v-5.34a81.69,81.69,0,0,0-40,.27c0,16.58,0,32.89,0,49.21,0,1.67-.28,4.18-1.35,4.88-6.23,4.07-12.71,7.75-19.15,11.49-4.12,2.4-8.34,4.64-12.47,7-5.43,3.12-10.77,6.4-16.24,9.45-6.18,3.45-12.55,6.56-18.67,10.11-7.9,4.59-15.56,9.62-23.48,14.18-5.32,3.06-11,5.42-16.36,8.46-8.44,4.82-16.66,10-25.05,14.94-7.82,4.57-15.78,8.9-23.56,13.53-.91.54-1.51,2.27-1.55,3.47-.15,5.83-.07,11.66-.07,17.49v52.38c8.2,3.52,16,6,22.79,10,9.62,5.75,16.78,14.66,18,25.81,1.55,14.66,1,29.54,1.24,44.33.08,4.27,0,8.54,0,13.27H788.3c-.35.63-.5.78-.5.92q0,68.23.06,136.45a9.28,9.28,0,0,0,2.68,5.83c7.29,7.39,14.7,14.69,22.36,21.69,4.06,3.72,5.3,7.85,5,13.23C817.4,2545,817.74,2552.3,817.74,2559.88ZM764,2187.27c1.62-.95,3-1.79,4.41-2.59q6.2-3.54,12.4-7c8.39-4.78,16.75-9.61,25.17-14.32,3.07-1.71,6.39-3,9.44-4.74,6.64-3.79,13.17-7.76,19.75-11.64,2.85-1.68,5.75-3.28,8.59-5,4.95-3,9.79-6.13,14.8-9,6-3.46,12.25-6.58,18.27-10.06q17.09-9.86,34-20c2.18-1.3,5.62-3.22,5.67-4.94.44-15.24.26-30.49.26-47.22l-20.31,12.75c1.74-20-2.19-39.67,3.24-59.08a78.63,78.63,0,0,1,12.24-25.49c7.44-10.28,17.27-17.39,27.83-23.84q0-26.35,0-52.55c0-1.13.17-2.81-.45-3.29-3-2.28-6.15-4.28-9.31-6.28-5.7-3.6-11.57-6.94-17.14-10.73-6.72-4.56-13.08-9.65-19.8-14.2s-13.94-8.73-20.79-13.27c-9.53-6.31-18.91-12.85-28.4-19.22-4.51-3-9.21-5.79-13.68-8.86-7-4.84-13.76-10.24-21.08-14.61-3.53-2.1-4.45-4.28-4.39-8,.17-11.15.07-22.32.05-33.48,0-1.25-.21-2.5-.3-3.59H764Zm291.77-64.64V2035q0-54.75,0-109.5c0-1.5,0-3.53-.92-4.44-9.75-9.82-19.66-19.48-29.56-29.14a13.76,13.76,0,0,1-4.64-10.86c.3-32.67.1-65.33.24-98,0-4.11-1.2-6.4-5.44-6.43-9.77-.06-19.54,0-29.31-.1-4.29,0-5.46,2-5.39,6.18.22,14.67.1,29.33.06,44,0,1.43.1,3.28-.69,4.2-2.66,3.1-5.67,5.9-8.61,8.74-7.43,7.19-15,14.27-22.3,21.57-1.79,1.77-4.17,4.19-4.19,6.33-.28,29.32-.19,58.64-.19,87.13,4.8,3.5,9,6.63,13.3,9.68,9.52,6.77,17.14,15.43,21.59,26,3.71,8.87,6.85,18.46,7.66,27.95,1.26,14.84.33,29.87.33,45.08l-19.88-12.65c0,22.11-.21,42.74.18,63.36.08,4.37-2,6.93-4.48,9.39-7.28,7.35-15,14.3-22.26,21.62-1.87,1.87-4.2,4.49-4.24,6.8-.35,18.8-.2,37.6-.2,57.11ZM823.41,1759.49c0-10.71.35-20.71-.12-30.68a127.05,127.05,0,0,0-2.87-20.9,25.24,25.24,0,0,0-5-10.32c-9.75-11.85-22.6-16.32-37.7-14.45A36,36,0,0,0,756.16,1694c-8.13,8.19-10.89,18.22-10.66,29.44.17,7.82,0,15.65,0,23.48v12.56Zm-23.47,593c0-10.88.25-21.67-.09-32.43a81.82,81.82,0,0,0-2.24-17.67c-3.56-13.87-13.6-21.77-26.75-25.41a37.87,37.87,0,0,0-26.24,2.27c-9.38,4.25-16.65,10.87-19.42,20.61-4.86,17.08-2.93,34.74-3.08,52.63ZM903.2,2050.1c13.36-5.7,25.35-10.28,38.67-10.35,13.57-.06,25.79,4.6,38.23,10,0-11.7.77-22.55-.27-33.23-.7-7.16-3.78-14.14-6.1-21.1-4.59-13.77-15.78-21.92-26.52-30.33-3-2.37-6.71-2.73-10-.19-4.62,3.6-9.12,7.36-13.55,11.19-9.61,8.32-15.94,19.1-17.86,31.28C903.71,2020.91,904,2034.85,903.2,2050.1Zm-7.85,309.16c26.27-14.13,51.29-14.33,77,.13-1.1-16.17,1.78-31.61-3.07-46.81-3.1-9.76-7.54-18.54-15.09-25.45a195.11,195.11,0,0,0-17.52-14.33c-1.45-1-5.14-.73-6.68.44a179.64,179.64,0,0,0-18.41,15.63c-7.71,7.71-13.06,17.41-14.39,28C895.51,2330.65,895.89,2344.67,895.35,2359.26ZM611.87,2050.15c0-7-.18-12.8,0-18.59.65-18.29-2.17-35.71-15-49.68-6.22-6.78-13.81-12.36-21.16-18-1.29-1-4.95-.2-6.69,1-4.64,3.17-8.81,7-13.19,10.56-9.76,7.87-16.46,18.36-18.41,30.2-2.37,14.41-1.77,29.31-2.5,45C561.14,2036,586.24,2036.83,611.87,2050.15Zm427-284.26c-.66-14.88-.71-28.49-2-42-.89-9.12-5.46-17.09-11.1-24.48a80.75,80.75,0,0,0-17.84-16.88c-5.74-4.09-7.57-4.73-13-1.52a19.2,19.2,0,0,0-3.14,2.79c-6.17,5.8-13.19,10.94-18.27,17.57-7.19,9.38-10.15,21-11.32,32.59-1,10.18-.21,20.55-.21,31.91C987.37,1752.45,1012.54,1751.8,1038.9,1765.89Zm-529.23-.61c24.56-13.14,49.76-13.16,75.25.3,0-8.25-.32-15.41.07-22.54a66.27,66.27,0,0,0-12.23-43c-5.84-8.3-13.69-14.37-22-20-3.28-2.21-6.75-1.2-9.54.94-4.69,3.6-9.16,7.5-13.55,11.47-10,9.06-16.27,20.63-17.74,33.7C508.55,1738.78,509.67,1751.68,509.67,1765.28ZM618.13,2358.7c0-8.57,0-17,0-25.46.07-12.38-1.81-24-8.47-35s-16-18.86-26.48-25.6c-1.53-1-4.87-.29-6.77.74a67.49,67.49,0,0,0-9.55,6.88c-7.54,6-13.93,13.13-17.77,21.85-3.23,7.33-6.08,15.24-6.9,23.12-1.16,11.12-.29,22.44-.29,34.2C567.43,2345,592.51,2345,618.13,2358.7Zm21.43,387.91c-24.51,0-48.65.06-72.79-.06-3.61,0-4.86,1-4.83,4.78.18,22.65.08,45.3.1,67.94,0,1.11.2,2.22.34,3.63h77.18Zm137.53.12V2823h76v-76.29ZM805.3,1505c-13-26.81-25.78-52.93-38.5-79l-1.49,0-38.56,79ZM552.79,2056.05c14-4.39,27.23-4.55,40.63-.15.28-3.78.88-6.68-3.8-7.52a87.64,87.64,0,0,0-36.5,1C553,2051.34,552.93,2053.11,552.79,2056.05Zm361.36,308.52c13.2-3.87,26.26-4.11,39.21-.15.88-4.88-.06-7.58-4.61-7.58q-14.85,0-29.7.07C914.59,2356.93,913,2359.23,914.15,2364.57Zm106.43-599.39c-12.43-3.44-31.74-3.24-39.86.33,0,.79,0,1.61,0,2.42,0,1,.11,1.93.19,3.33,13.3-4.28,26.42-3.94,39.66-.1ZM760.75,1408.74c-.48,4.32,2.88,6,5.48,5.9a5.78,5.78,0,0,0,5.56-5.86c.12-4.37-2.74-5.23-5.95-5.3C762.43,1403.4,760.19,1405,760.75,1408.74ZM546.25,1671c3.84-.38,6.27-1.84,6.38-5.27.12-3.64-1.91-5.83-5.74-5.76-3.39,0-5.61,1.57-5.76,5.25C541,1669.15,543.84,1670,546.25,1671Zm459.6-5.17c-.32-3.38-1.19-5.9-5.23-5.92s-5.16,2.31-5,5.74c.1,3.07,1.07,5.2,4.82,5.41C1004.53,1671.27,1005.31,1668.76,1005.85,1665.8ZM580.67,2263.61c4.7,1.09,5-2.39,5-5.31s-1.36-5.39-5-5.43c-3.93,0-5.07,2.43-5.17,5.72C575.38,2262.07,576.38,2264.61,580.67,2263.61Zm352.23.33c4.91.23,7-2.64,6.57-5.51-.27-2-3.2-4.86-5.34-5.27-2.72-.51-5.47,1.29-5.64,5.08S930,2264.05,932.9,2263.94Z" transform="translate(-460.44 -1080)"/><path class="cls-1" d="M871.59,1080v107.77H660V1080Zm-6.86,30.8H665.91v68.9H864.73v-68.9Zm-99.45-26.07c-4.5-.73-9.86,5-9.6,9.87.33,6,3.5,9.57,9.48,9.65,5.38.07,10.5-4.65,10.58-9.74C775.81,1090,770.21,1084.73,765.28,1084.73Zm-79.08.12c-5.15.06-9.45,4.73-9.51,10A9.91,9.91,0,0,0,687,1104.7a10.17,10.17,0,0,0,9.68-10.07C696.58,1089.59,691.5,1084.78,686.2,1084.85Zm30.32,9.21c-.8,5.71,4.3,10,8.93,10.31a10,10,0,0,0,10.7-9.72c-.07-4.94-4.77-9.84-9.77-9.92C720.3,1084.63,716.67,1088.06,716.52,1094.06Zm87.86,10c5.53.15,11.37-5,11.2-9.8-.14-4.18-5.77-9.58-10.06-9.78-4.47-.21-10.15,3.79-9.9,9.48C795.9,1100.37,798.53,1103.86,804.38,1104Zm49.38-9.4c0-6.32-3.49-10.13-9.27-10.08-5,0-10.56,5.1-10.69,9.65s5.35,9.78,10.4,9.8C850.29,1104,853.74,1100.65,853.76,1094.62Z" transform="translate(-460.44 -1080)"/><path class="cls-1" d="M736.1,2360l4.59-.12c0,46.83.1,93.66-.14,140.48,0,2.53-2.34,5.45-4.32,7.48-7.1,7.26-14.65,14.1-21.71,21.4-1.34,1.39-1.7,4.19-1.71,6.35q-.13,65.73-.07,131.48,0,36.24,0,72.49l-5.08,0c0-54.11-.21-108.22.24-162.33.06-7.31-3-11.73-7.69-15.83-6-5.23-12.38-10-18.42-15.09-8.68-7.4-17.19-15-25.8-22.47-5.53-4.81-11-9.73-16.66-14.34-4.29-3.48-9.08-6.32-13.31-9.86-4.85-4-9.22-8.65-14-12.81-3.53-3.09-7.33-5.85-11.21-8.91v-115l4.68-1c.07,2.65.21,5.31.21,8,0,35.13,0,70.27,0,104.69L707.7,2561c0-10.55.11-19.54-.06-28.53-.06-3.39,1.19-5.66,3.65-8,7.49-7.08,14.81-14.36,21.88-21.87a10.87,10.87,0,0,0,2.43-6.84c.14-43.47.09-86.94.12-130.41C735.72,2363.61,736,2361.8,736.1,2360Z" transform="translate(-460.44 -1080)"/><path class="cls-1" d="M1003.67,1652.73l-5.89,0c0-69.31-.27-138.62.17-207.93.06-9.58-2.47-14.57-11.56-18.07-8.23-3.17-15.43-9-23.21-13.36-5.33-3-11-5.49-16.33-8.44-9.25-5.1-18.39-10.4-27.62-15.55-2.75-1.54-5.64-2.84-8.45-4.27-9.27-4.71-18.61-9.28-27.77-14.19-12-6.43-23.87-13.15-35.81-19.73-4.41-2.43-9-4.62-13.17-7.34a6.42,6.42,0,0,1-2.24-4.68c-.16-15.5-.1-31-.1-46.49V1192.32h5v146.31c10,5.74,19.45,11.24,29,16.66,2.88,1.64,5.92,3,8.85,4.57,8.76,4.65,17.5,9.36,26.26,14,6.67,3.54,13.42,7,20.06,10.57,8,4.38,15.91,9,23.93,13.37,6.63,3.62,13.4,7,20,10.6,8,4.38,16,8.91,24,13.36,4.12,2.3,8.34,4.44,12.35,6.92,1.19.74,2.59,2.38,2.59,3.61Q1003.8,1542.51,1003.67,1652.73Z" transform="translate(-460.44 -1080)"/><path class="cls-1" d="M549.48,1652l-4.55.14c-.07-1.16-.2-2.32-.2-3.48q0-109,0-218v-1.66c6.81-4.3,13.33-8.56,20-12.58,5.52-3.33,11.29-6.25,16.81-9.58,5.33-3.21,10.42-6.81,15.74-10s11-6.16,16.38-9.42c8-4.84,15.81-9.93,23.79-14.76,5.11-3.09,10.46-5.77,15.57-8.87,8.25-5,16.36-10.26,24.6-15.31a137.42,137.42,0,0,1,14.1-8c3.24-1.48,4.08-3.32,4.07-6.7q-.16-68-.07-136v-5.66h5v4.46c0,46.49-.06,93,.1,139.47,0,4.49-1.69,6.6-5.46,8.69-8,4.44-15.57,9.67-23.41,14.41-5.39,3.25-11,6.11-16.42,9.36-7.85,4.73-15.58,9.66-23.38,14.48-4.34,2.68-8.72,5.29-13.07,7.93-8.71,5.3-17.35,10.69-26.13,15.86-7.69,4.52-15.61,8.64-23.27,13.19q-9.48,5.63-18.53,11.94c-1,.73-1.34,3.06-1.34,4.65-.09,24.33-.06,48.66-.06,73q0,68.49,0,137C549.75,1648.4,549.57,1650.22,549.48,1652Z" transform="translate(-460.44 -1080)"/><path class="cls-1" d="M707.7,2739.52l5.08,0h42.7v89.54h-90.1v-89.57Zm40.73,83.42V2747H672.12v75.91Z" transform="translate(-460.44 -1080)"/><path class="cls-1" d="M931.7,2739.43h41.23V2829H884v-89.56H931.7ZM890,2823.19c24.69,0,48.83-.06,73,0,4,0,4.62-2,4.61-5.32-.07-22.31,0-44.62-.05-66.93,0-1.28-.15-2.55-.24-4H890Z" transform="translate(-460.44 -1080)"/><path class="cls-1" d="M931.7,2739.43h-5.93q0-104.38-.08-208.78c0-5.78,5.24-7.82,8.33-11.23,5.5-6.07,11.84-11.38,17.44-17.36,1.46-1.55,2.14-4.42,2.14-6.68.13-39.29.09-78.59.1-117.88,0-1.83.08-3.66.12-5.49l6.12,1.09c-.06,40.81-.24,81.63,0,122.44a14.22,14.22,0,0,1-4.58,11c-7.3,7.23-14.88,14.19-22.07,21.54-1.23,1.27-1.46,3.91-1.46,5.92q-.11,99.46-.06,198.92C931.77,2735.1,931.72,2737.27,931.7,2739.43Z" transform="translate(-460.44 -1080)"/><path class="cls-1" d="M768.61,1396l-4.73-.17c-.06-1.66-.18-3.33-.18-5q0-96.71,0-193.41v-5.19h4.53c.16.29.43.58.43.87Q768.66,1294.54,768.61,1396Z" transform="translate(-460.44 -1080)"/><path class="cls-1" d="M617.59,2787.66c-.19,8.14-.47,14.52-4.5,20.31-3.49,5-8.27,5.22-13.44,5.17a12,12,0,0,1-11.11-6.61c-4.72-8.93-4.31-18.55-2.62-28.07,1.3-7.39,7.36-12.9,13.84-13.42,7.3-.59,15.44,4.71,16.81,12.8C617.2,2781.59,617.37,2785.43,617.59,2787.66Zm-26.39,1.53c.55,4.38.7,8.91,1.78,13.21,1,4,4.08,6.06,8.48,5.94,4.06-.12,6.78-1.72,8.08-5.73a40.82,40.82,0,0,0,.18-26.14c-1.51-4.53-4.41-5.7-8.55-5.7s-7.47,1.61-8.34,6C592,2780.8,591.74,2784.94,591.2,2789.19Z" transform="translate(-460.44 -1080)"/><path class="cls-1" d="M832.52,2789.23c-.64,7.71-2,14.69-7.33,20.51-4.59,5.07-16.2,4.56-20.64-.68-5.87-6.91-5.51-15.07-5.25-23.19a65.83,65.83,0,0,1,1.74-10.8c1.15-5.67,9.63-10.32,14.55-10.13,6.57.25,12,4.23,13.67,10.61C830.45,2780.09,831.44,2784.67,832.52,2789.23Zm-7-.52c-.39-3.76-.31-7.35-1.22-10.68s-2.53-6.92-6.94-7.08c-3.7-.13-7.27-.74-9.63,3.93-4.51,9-3,18.12-1.3,27,.81,4.15,4.67,7.13,10.07,6.41,5.17-.69,7-4.3,8-8.47C825.24,2796.17,825.18,2792.27,825.49,2788.71Z" transform="translate(-460.44 -1080)"/><path class="cls-1" d="M669.3,1175.68V1113h5.07q90.71,0,181.41,0c3.26,0,5.9.06,5.89,4.34,0,19.31,0,38.61,0,58.35Zm3.55-4.12H857.39v-52.51H672.85Z" transform="translate(-460.44 -1080)"/><path class="cls-1" d="M767.29,1100.57c-5.37-.26-7.66-1.86-7.53-5.77.12-3.67,1.46-6.39,5.75-6.12,3.6.21,6.44,2.34,6,5.76C771.11,1096.93,768.37,1099.09,767.29,1100.57Z" transform="translate(-460.44 -1080)"/><path class="cls-1" d="M692.7,1093.6c.11,5.23-2.59,7.09-6.11,7.13-3.32,0-6-1.46-5.9-5.68.14-3.9,2.32-5.87,5.82-6.12C690.3,1088.65,691.87,1091.41,692.7,1093.6Z" transform="translate(-460.44 -1080)"/><path class="cls-1" d="M727.54,1088.63a6.16,6.16,0,0,1,4.77,5.9c.17,4-2.44,6-6,6s-6.2-1.71-5.91-6C720.61,1090.93,721.86,1088.28,727.54,1088.63Z" transform="translate(-460.44 -1080)"/><path class="cls-1" d="M804.83,1100.11c-4,.42-5.05-2.21-5.17-5.78-.14-4,2-6.83,5.71-5.87,2.45.62,5.66,3.73,5.92,6C811.62,1097.28,809.33,1100.53,804.83,1100.11Z" transform="translate(-460.44 -1080)"/><path class="cls-1" d="M849.78,1094.26c.07,3.71-1.37,5.88-5.45,6s-5.66-2.54-6.45-5.7c-.59-2.32,3.5-6.34,6-6.36C847.72,1088.14,849.76,1090.23,849.78,1094.26Z" transform="translate(-460.44 -1080)"/><path class="cls-1" d="M696.42,2812.44c1.33-8.71,8.43-2,11.92-6.25v-34l-10.17,7c-.71-3.27-1.31-5.79,2.6-7.5,2.9-1.27,5.34-3.67,8.29-4.75,4.18-1.53,5.83-.11,5.85,4.38.05,10,0,20,0,29.93,0,6.46,0,6.57,6.39,6.5,3.16,0,5.47.27,4,4.68Z" transform="translate(-460.44 -1080)"/><path class="cls-1" d="M926.08,2772.7l-8.88,5.74c-1.46-6.48,6-12.21,15.56-11.5v39.45c3.41,3.86,10.75-2.48,11.87,6.07H915.7v-4.69h10.38Z" transform="translate(-460.44 -1080)"/></g></svg>