<svg id="Layer_1" data-name="Layer 1" xmlns="http://www.w3.org/2000/svg" viewBox="0 0 600.3 1547.72"><defs><style>.cls-1{fill:none;}.cls-2{fill:#fff;}</style></defs><path class="cls-1" d="M246.15,1895.39a26.35,26.35,0,0,1,.42,3q0,47,0,94a5,5,0,0,1-1.56,3c-5.38,5.52-10.86,10.94-16.3,16.4q-19.62,19.73-39.22,39.48c-3,3-5,6-5,11.05q.32,275.46.18,550.94v6.89c6.6,4.17,12.86,8,19,12,4.81,3.19,9.3,6.89,14.19,10,5.42,3.42,11.3,6.12,16.66,9.63,6.42,4.21,12.38,9.13,18.77,13.4,5.41,3.62,11.27,6.57,16.71,10.14,11.48,7.53,22.81,15.28,34.2,22.92,4,2.68,8,5.34,12.48,8.3,0-12,.15-23.15-.15-34.31-.05-2-1.67-4.27-3.12-5.95-3.06-3.56-6.44-6.85-9.77-10.18-7.32-7.31-14.54-14.73-22.09-21.8-4.25-4-7.13-7.72-7.07-14.29.38-41.32.19-82.65.19-124v-6.52" transform="translate(-179.29 -1322.48)"/><path class="cls-1" d="M290.4,2085.14V1901.07l-6.14-6.14" transform="translate(-179.29 -1322.48)"/><path class="cls-1" d="M293.87,2378a5.83,5.83,0,0,0,2.58-4.35q.23-45.49.06-91a6.18,6.18,0,0,0-1.18-4c-7.21-7.23-14.6-14.27-21.91-21.4-4.28-4.18-7.47-8.34-7.09-15.31.78-14.29.24-28.65.22-43,0-1.22-.17-2.45-.33-4.65" transform="translate(-179.29 -1322.48)"/><path class="cls-1" d="M686.59,2181.08c0,22.12-.22,42.75.17,63.36.08,4.38-2,6.94-4.48,9.4-7.27,7.34-14.94,14.3-22.25,21.61-1.88,1.88-4.21,4.5-4.25,6.81-.34,18.79-.19,37.6-.19,57.11l119-86.45v-87.61q0-54.75,0-109.5c0-1.51,0-3.54-.92-4.44-9.75-9.82-19.66-19.48-29.57-29.14a13.79,13.79,0,0,1-4.63-10.87c.3-32.66.09-65.33.23-98,0-4.12-1.19-6.4-5.43-6.43-9.77-.07-19.54,0-29.31-.1-4.29,0-5.46,2.05-5.4,6.18.22,14.66.11,29.33.06,44,0,1.42.11,3.27-.69,4.2-2.65,3.09-5.66,5.89-8.6,8.74-7.43,7.19-15,14.27-22.31,21.56-1.78,1.78-4.16,4.19-4.18,6.33-.28,29.32-.19,58.65-.19,87.13" transform="translate(-179.29 -1322.48)"/><path class="cls-1" d="M658.56,2085.36c0-17.57,0-35.06,0-52.56,0-1.12.17-2.8-.46-3.29-3-2.27-6.14-4.28-9.31-6.28-5.7-3.6-11.57-6.94-17.14-10.72-6.71-4.57-13.07-9.65-19.79-14.2s-13.94-8.73-20.79-13.27c-9.54-6.31-18.92-12.85-28.41-19.23-4.51-3-9.2-5.78-13.68-8.86-7.05-4.84-13.75-10.24-21.08-14.6-3.52-2.11-4.44-4.29-4.39-8,.17-11.16.08-22.32,0-33.48,0-1.25-.2-2.5-.3-3.6H482.79v420.28c1.63-1,3-1.79,4.42-2.59q6.18-3.54,12.4-7c8.38-4.78,16.74-9.61,25.17-14.32,3.07-1.72,6.39-3,9.44-4.74,6.63-3.79,13.16-7.76,19.75-11.64,2.85-1.68,5.75-3.29,8.59-5,4.94-3,9.79-6.12,14.79-9,6-3.46,12.26-6.59,18.28-10.06q17.08-9.86,34-20c2.17-1.31,5.61-3.23,5.66-4.94.45-15.24.26-30.49.26-47.22" transform="translate(-179.29 -1322.48)"/><path class="cls-1" d="M640.59,2179.84c0,16.57,0,32.89-.06,49.2,0,1.68-.27,4.18-1.35,4.88-6.22,4.07-12.71,7.75-19.15,11.49-4.12,2.4-8.33,4.65-12.46,7-5.43,3.12-10.78,6.39-16.25,9.44-6.18,3.45-12.55,6.56-18.66,10.12-7.91,4.59-15.56,9.62-23.48,14.18-5.32,3.05-11,5.41-16.37,8.46-8.44,4.82-16.65,10-25,14.93-7.81,4.58-15.77,8.91-23.56,13.53-.9.54-1.51,2.28-1.54,3.47-.16,5.83-.07,11.66-.07,17.5v52.37" transform="translate(-179.29 -1322.48)"/><path class="cls-1" d="M650.56,2376.46v-5.9c0-29.32-.06-58.65.13-88a11.43,11.43,0,0,1,2.79-7.23c7.19-7.47,14.66-14.71,22.29-21.75,3.87-3.57,5-7.48,4.93-12.73-.35-18.65-.14-37.32-.14-56v-5.33" transform="translate(-179.29 -1322.48)"/><path class="cls-1" d="M507.14,2489.88c-.34.63-.49.77-.49.92q0,68.22.05,136.45a9.39,9.39,0,0,0,2.68,5.83c7.3,7.39,14.7,14.68,22.36,21.69,4.07,3.71,5.3,7.85,5,13.22-.46,7.27-.11,14.6-.11,22.17,1.07-.13,1.5,0,1.69-.23,9.43-9,18.81-18.14,28.26-27.17,5.62-5.37,11.37-10.61,17-16,6-5.79,11.88-11.77,17.94-17.52,7.09-6.73,14.33-13.29,21.5-19.93a14.24,14.24,0,0,0,4.78-12.28c-.58-9-.16-18-.16-27V2502.9" transform="translate(-179.29 -1322.48)"/><path class="cls-1" d="M246.15,1895.39a26.35,26.35,0,0,1,.42,3q0,47,0,94a5,5,0,0,1-1.56,3c-5.38,5.52-10.86,10.94-16.3,16.4q-19.62,19.73-39.22,39.48c-3,3-5,6-5,11.05q.32,275.46.18,550.94v6.89c6.6,4.17,12.86,8,19,12,4.81,3.19,9.3,6.89,14.19,10,5.42,3.42,11.3,6.12,16.66,9.63,6.42,4.21,12.38,9.13,18.77,13.4,5.41,3.62,11.27,6.57,16.71,10.14,11.48,7.53,22.81,15.28,34.2,22.92,4,2.68,8,5.34,12.48,8.3,0-12,.15-23.15-.15-34.31-.05-2-1.67-4.27-3.12-5.95-3.06-3.56-6.44-6.85-9.77-10.18-7.32-7.31-14.54-14.73-22.09-21.8-4.25-4-7.13-7.72-7.07-14.29.38-41.32.19-82.65.19-124v-6.52" transform="translate(-179.29 -1322.48)"/><path class="cls-1" d="M290.4,2085.14V1901.07l-6.14-6.14" transform="translate(-179.29 -1322.48)"/><path class="cls-1" d="M293.87,2378a5.83,5.83,0,0,0,2.58-4.35q.23-45.49.06-91a6.18,6.18,0,0,0-1.18-4c-7.21-7.23-14.6-14.27-21.91-21.4-4.28-4.18-7.47-8.34-7.09-15.31.78-14.29.24-28.65.22-43,0-1.22-.17-2.45-.33-4.65" transform="translate(-179.29 -1322.48)"/><path class="cls-1" d="M640.59,2179.84c0,16.57,0,32.89-.06,49.2,0,1.68-.27,4.18-1.35,4.88-6.22,4.07-12.71,7.75-19.15,11.49-4.12,2.4-8.33,4.65-12.46,7-5.43,3.12-10.78,6.39-16.25,9.44-6.18,3.45-12.55,6.56-18.66,10.12-7.91,4.59-15.56,9.62-23.48,14.18-5.32,3.05-11,5.41-16.37,8.46-8.44,4.82-16.65,10-25,14.93-7.81,4.58-15.77,8.91-23.56,13.53-.9.54-1.51,2.28-1.54,3.47-.16,5.83-.07,11.66-.07,17.5v52.37" transform="translate(-179.29 -1322.48)"/><path class="cls-1" d="M650.56,2376.46v-5.9c0-29.32-.06-58.65.13-88a11.43,11.43,0,0,1,2.79-7.23c7.19-7.47,14.66-14.71,22.29-21.75,3.87-3.57,5-7.48,4.93-12.73-.35-18.65-.14-37.32-.14-56v-5.33" transform="translate(-179.29 -1322.48)"/><path class="cls-1" d="M507,2490.12c-.25.41-.36.56-.36.68q0,68.22.05,136.45a9.39,9.39,0,0,0,2.68,5.83c7.3,7.39,14.7,14.68,22.36,21.69,4.07,3.71,5.3,7.85,5,13.22-.46,7.27-.11,14.6-.11,22.17,1.07-.13,1.5,0,1.69-.23,9.43-9,18.81-18.14,28.26-27.17,5.62-5.37,11.37-10.61,17-16,6-5.79,11.88-11.77,17.94-17.52,7.09-6.73,14.33-13.29,21.5-19.93a14.24,14.24,0,0,0,4.78-12.28c-.58-9-.16-18-.16-27V2502.9" transform="translate(-179.29 -1322.48)"/><path class="cls-1" d="M507.14,2489.88l-.13.24" transform="translate(-179.29 -1322.48)"/><path class="cls-1" d="M686.59,2181.08c0,22.12-.22,42.75.17,63.36.08,4.38-2,6.94-4.48,9.4-7.27,7.34-14.94,14.3-22.25,21.61-1.88,1.88-4.21,4.5-4.25,6.81-.34,18.79-.19,37.6-.19,57.11l119-86.45v-87.61q0-54.75,0-109.5c0-1.51,0-3.54-.92-4.44-9.75-9.82-19.66-19.48-29.57-29.14a13.79,13.79,0,0,1-4.63-10.87c.3-32.66.09-65.33.23-98,0-4.12-1.19-6.4-5.43-6.43-9.77-.07-19.54,0-29.31-.1-4.29,0-5.46,2.05-5.4,6.18.22,14.66.11,29.33.06,44,0,1.42.11,3.27-.69,4.2-2.65,3.09-5.66,5.89-8.6,8.74-7.43,7.19-15,14.27-22.31,21.56-1.78,1.78-4.16,4.19-4.18,6.33-.28,29.32-.19,58.65-.19,87.13" transform="translate(-179.29 -1322.48)"/><path class="cls-1" d="M658.56,2085.36c0-17.57,0-35.06,0-52.56,0-1.12.17-2.8-.46-3.29-3-2.27-6.14-4.28-9.31-6.28-5.7-3.6-11.57-6.94-17.14-10.72-6.71-4.57-13.07-9.65-19.79-14.2s-13.94-8.73-20.79-13.27c-9.54-6.31-18.92-12.85-28.41-19.23-4.51-3-9.2-5.78-13.68-8.86-7.05-4.84-13.75-10.24-21.08-14.6-3.52-2.11-4.44-4.29-4.39-8,.17-11.16.08-22.32,0-33.48,0-1.25-.2-2.5-.3-3.6H482.79v420.28c1.63-1,3-1.79,4.42-2.59q6.18-3.54,12.4-7c8.38-4.78,16.74-9.61,25.17-14.32,3.07-1.72,6.39-3,9.44-4.74,6.63-3.79,13.16-7.76,19.75-11.64,2.85-1.68,5.75-3.29,8.59-5,4.94-3,9.79-6.12,14.79-9,6-3.46,12.26-6.59,18.28-10.06q17.08-9.86,34-20c2.17-1.31,5.61-3.23,5.66-4.94.45-15.24.26-30.49.26-47.22" transform="translate(-179.29 -1322.48)"/><path class="cls-1" d="M507.14,2489.88l-.13.24c-.25.41-.36.56-.36.68q0,68.22.05,136.45a9.39,9.39,0,0,0,2.68,5.83c7.3,7.39,14.7,14.68,22.36,21.69,4.07,3.71,5.3,7.85,5,13.22-.46,7.27-.11,14.6-.11,22.17,1.07-.13,1.5,0,1.69-.23,9.43-9,18.81-18.14,28.26-27.17,5.62-5.37,11.37-10.61,17-16,6-5.79,11.88-11.77,17.94-17.52,7.09-6.73,14.33-13.29,21.5-19.93a14.24,14.24,0,0,0,4.78-12.28c-.58-9-.16-18-.16-27V2502.9" transform="translate(-179.29 -1322.48)"/><path class="cls-1" d="M482.59,2396.4v0" transform="translate(-179.29 -1322.48)"/><path class="cls-1" d="M640.59,2179.84c0,16.57,0,32.89-.06,49.2,0,1.68-.27,4.18-1.35,4.88-6.22,4.07-12.71,7.75-19.15,11.49-4.12,2.4-8.33,4.65-12.46,7-5.43,3.12-10.78,6.39-16.25,9.44-6.18,3.45-12.55,6.56-18.66,10.12-7.91,4.59-15.56,9.62-23.48,14.18-5.32,3.05-11,5.41-16.37,8.46-8.44,4.82-16.65,10-25,14.93-7.81,4.58-15.77,8.91-23.56,13.53-.9.54-1.51,2.28-1.54,3.47-.16,5.83-.07,11.66-.07,17.5v52.33" transform="translate(-179.29 -1322.48)"/><path class="cls-1" d="M650.56,2376.46v-5.9c0-29.32-.06-58.65.13-88a11.43,11.43,0,0,1,2.79-7.23c7.19-7.47,14.66-14.71,22.29-21.75,3.87-3.57,5-7.48,4.93-12.73-.35-18.65-.14-37.32-.14-56v-5.33" transform="translate(-179.29 -1322.48)"/><path class="cls-1" d="M246.15,1895.39a26.35,26.35,0,0,1,.42,3q0,47,0,94a5,5,0,0,1-1.56,3c-5.38,5.52-10.86,10.94-16.3,16.4q-19.62,19.73-39.22,39.48c-3,3-5,6-5,11.05q.32,275.46.18,550.94v6.89c6.6,4.17,12.86,8,19,12,4.81,3.19,9.3,6.89,14.19,10,5.42,3.42,11.3,6.12,16.66,9.63,6.42,4.21,12.38,9.13,18.77,13.4,5.41,3.62,11.27,6.57,16.71,10.14,11.48,7.53,22.81,15.28,34.2,22.92,4,2.68,8,5.34,12.48,8.3,0-12,.15-23.15-.15-34.31-.05-2-1.67-4.27-3.12-5.95-3.06-3.56-6.44-6.85-9.77-10.18-7.32-7.31-14.54-14.73-22.09-21.8-4.25-4-7.13-7.72-7.07-14.29.38-41.32.19-82.65.19-124v-6.52" transform="translate(-179.29 -1322.48)"/><path class="cls-1" d="M290.4,2085.14V1901.07l-6.14-6.14" transform="translate(-179.29 -1322.48)"/><path class="cls-1" d="M293.87,2378a5.83,5.83,0,0,0,2.58-4.35q.23-45.49.06-91a6.18,6.18,0,0,0-1.18-4c-7.21-7.23-14.6-14.27-21.91-21.4-4.28-4.18-7.47-8.34-7.09-15.31.78-14.29.24-28.65.22-43,0-1.22-.17-2.45-.33-4.65" transform="translate(-179.29 -1322.48)"/><path class="cls-1" d="M658.56,2085.36c0-17.57,0-35.06,0-52.56,0-1.12.17-2.8-.46-3.29-3-2.27-6.14-4.28-9.31-6.28-5.7-3.6-11.57-6.94-17.14-10.72-6.71-4.57-13.07-9.65-19.79-14.2s-13.94-8.73-20.79-13.27c-9.54-6.31-18.92-12.85-28.41-19.23-4.51-3-9.2-5.78-13.68-8.86-7.05-4.84-13.75-10.24-21.08-14.6-3.52-2.11-4.44-4.29-4.39-8,.17-11.16.08-22.32,0-33.48,0-1.25-.2-2.5-.3-3.6" transform="translate(-179.29 -1322.48)"/><path class="cls-1" d="M482.79,1897.28v420.28c1.63-1,3-1.79,4.42-2.59q6.18-3.54,12.4-7c8.38-4.78,16.74-9.61,25.17-14.32,3.07-1.72,6.39-3,9.44-4.74,6.63-3.79,13.16-7.76,19.75-11.64,2.85-1.68,5.75-3.29,8.59-5,4.94-3,9.79-6.12,14.79-9,6-3.46,12.26-6.59,18.28-10.06q17.08-9.86,34-20c2.17-1.31,5.61-3.23,5.66-4.94.45-15.24.26-30.49.26-47.22" transform="translate(-179.29 -1322.48)"/><path class="cls-1" d="M686.59,2181.08c0,22.12-.22,42.75.17,63.36.08,4.38-2,6.94-4.48,9.4-7.27,7.34-14.94,14.3-22.25,21.61-1.88,1.88-4.21,4.5-4.25,6.81-.34,18.79-.19,37.6-.19,57.11l119-86.45v-87.61q0-54.75,0-109.5c0-1.51,0-3.54-.92-4.44-9.75-9.82-19.66-19.48-29.57-29.14a13.79,13.79,0,0,1-4.63-10.87c.3-32.66.09-65.33.23-98,0-4.12-1.19-6.4-5.43-6.43-9.77-.07-19.54,0-29.31-.1-4.29,0-5.46,2.05-5.4,6.18.22,14.66.11,29.33.06,44,0,1.42.11,3.27-.69,4.2-2.65,3.09-5.66,5.89-8.6,8.74-7.43,7.19-15,14.27-22.31,21.56-1.78,1.78-4.16,4.19-4.18,6.33-.28,29.32-.19,58.65-.19,87.13" transform="translate(-179.29 -1322.48)"/><path class="cls-1" d="M246.15,1895.39a26.35,26.35,0,0,1,.42,3q0,47,0,94a5,5,0,0,1-1.56,3c-5.38,5.52-10.86,10.94-16.3,16.4q-19.62,19.73-39.22,39.48c-3,3-5,6-5,11.05q.32,275.46.18,550.94v6.89c6.6,4.17,12.86,8,19,12,4.81,3.19,9.3,6.89,14.19,10,5.42,3.42,11.3,6.12,16.66,9.63,6.42,4.21,12.38,9.13,18.77,13.4,5.41,3.62,11.27,6.57,16.71,10.14,11.48,7.53,22.81,15.28,34.2,22.92,4,2.68,8,5.34,12.48,8.3,0-12,.15-23.15-.15-34.31-.05-2-1.67-4.27-3.12-5.95-3.06-3.56-6.44-6.85-9.77-10.18-7.32-7.31-14.54-14.73-22.09-21.8-4.25-4-7.13-7.72-7.07-14.29.38-41.32.19-82.65.19-124v-6.52" transform="translate(-179.29 -1322.48)"/><path class="cls-1" d="M290.4,2085.14V1901.07l-6.14-6.14" transform="translate(-179.29 -1322.48)"/><path class="cls-1" d="M293.87,2378a5.83,5.83,0,0,0,2.58-4.35q.23-45.49.06-91a6.18,6.18,0,0,0-1.18-4c-7.21-7.23-14.6-14.27-21.91-21.4-4.28-4.18-7.47-8.34-7.09-15.31.78-14.29.24-28.65.22-43,0-1.22-.17-2.45-.33-4.65" transform="translate(-179.29 -1322.48)"/><path class="cls-1" d="M658.56,2085.36c0-17.57,0-35.06,0-52.56,0-1.12.17-2.8-.46-3.29-3-2.27-6.14-4.28-9.31-6.28-5.7-3.6-11.57-6.94-17.14-10.72-6.71-4.57-13.07-9.65-19.79-14.2s-13.94-8.73-20.79-13.27c-9.54-6.31-18.92-12.85-28.41-19.23-4.51-3-9.2-5.78-13.68-8.86-7.05-4.84-13.75-10.24-21.08-14.6-3.52-2.11-4.44-4.29-4.39-8,.17-11.16.08-22.32,0-33.48,0-1.25-.2-2.5-.3-3.6" transform="translate(-179.29 -1322.48)"/><path class="cls-1" d="M482.79,1897.28v420.28c1.63-1,3-1.79,4.42-2.59q6.18-3.54,12.4-7c8.38-4.78,16.74-9.61,25.17-14.32,3.07-1.72,6.39-3,9.44-4.74,6.63-3.79,13.16-7.76,19.75-11.64,2.85-1.68,5.75-3.29,8.59-5,4.94-3,9.79-6.12,14.79-9,6-3.46,12.26-6.59,18.28-10.06q17.08-9.86,34-20c2.17-1.31,5.61-3.23,5.66-4.94.45-15.24.26-30.49.26-47.22" transform="translate(-179.29 -1322.48)"/><path class="cls-1" d="M686.59,2181.08c0,22.12-.22,42.75.17,63.36.08,4.38-2,6.94-4.48,9.4-7.27,7.34-14.94,14.3-22.25,21.61-1.88,1.88-4.21,4.5-4.25,6.81-.34,18.79-.19,37.6-.19,57.11l119-86.45v-87.61q0-54.75,0-109.5c0-1.51,0-3.54-.92-4.44-9.75-9.82-19.66-19.48-29.57-29.14a13.79,13.79,0,0,1-4.63-10.87c.3-32.66.09-65.33.23-98,0-4.12-1.19-6.4-5.43-6.43-9.77-.07-19.54,0-29.31-.1-4.29,0-5.46,2.05-5.4,6.18.22,14.66.11,29.33.06,44,0,1.42.11,3.27-.69,4.2-2.65,3.09-5.66,5.89-8.6,8.74-7.43,7.19-15,14.27-22.31,21.56-1.78,1.78-4.16,4.19-4.18,6.33-.28,29.32-.19,58.65-.19,87.13" transform="translate(-179.29 -1322.48)"/><path class="cls-1" d="M246.15,1895.39a26.35,26.35,0,0,1,.42,3q0,47,0,94a5,5,0,0,1-1.56,3c-5.38,5.52-10.86,10.94-16.3,16.4q-19.62,19.73-39.22,39.48c-3,3-5,6-5,11.05q.32,275.46.18,550.94v6.89c6.6,4.17,12.86,8,19,12,4.81,3.19,9.3,6.89,14.19,10,5.42,3.42,11.3,6.12,16.66,9.63,6.42,4.21,12.38,9.13,18.77,13.4,5.41,3.62,11.27,6.57,16.71,10.14,11.48,7.53,22.81,15.28,34.2,22.92,4,2.68,8,5.34,12.48,8.3,0-12,.15-23.15-.15-34.31-.05-2-1.67-4.27-3.12-5.95-3.06-3.56-6.44-6.85-9.77-10.18-7.32-7.31-14.54-14.73-22.09-21.8-4.25-4-7.13-7.72-7.07-14.29.38-41.32.19-82.65.19-124v-6.52" transform="translate(-179.29 -1322.48)"/><path class="cls-1" d="M290.4,2085.14V1901.07l-6.14-6.14" transform="translate(-179.29 -1322.48)"/><path class="cls-1" d="M293.87,2378a5.83,5.83,0,0,0,2.58-4.35q.23-45.49.06-91a6.18,6.18,0,0,0-1.18-4c-7.21-7.23-14.6-14.27-21.91-21.4-4.28-4.18-7.47-8.34-7.09-15.31.78-14.29.24-28.65.22-43,0-1.22-.17-2.45-.33-4.65" transform="translate(-179.29 -1322.48)"/><path class="cls-1" d="M686.59,2181.08c0,22.12-.22,42.75.17,63.36.08,4.38-2,6.94-4.48,9.4-7.27,7.34-14.94,14.3-22.25,21.61-1.88,1.88-4.21,4.5-4.25,6.81-.34,18.79-.19,37.6-.19,57.11l119-86.45v-87.61q0-54.75,0-109.5c0-1.51,0-3.54-.92-4.44-9.75-9.82-19.66-19.48-29.57-29.14a13.79,13.79,0,0,1-4.63-10.87c.3-32.66.09-65.33.23-98,0-4.12-1.19-6.4-5.43-6.43-9.77-.07-19.54,0-29.31-.1-4.29,0-5.46,2.05-5.4,6.18.22,14.66.11,29.33.06,44,0,1.42.11,3.27-.69,4.2-2.65,3.09-5.66,5.89-8.6,8.74-7.43,7.19-15,14.27-22.31,21.56-1.78,1.78-4.16,4.19-4.18,6.33-.28,29.32-.19,58.65-.19,87.13" transform="translate(-179.29 -1322.48)"/><path class="cls-1" d="M658.56,2085.36c0-17.57,0-35.06,0-52.56,0-1.12.17-2.8-.46-3.29-3-2.27-6.14-4.28-9.31-6.28-5.7-3.6-11.57-6.94-17.14-10.72-6.71-4.57-13.07-9.65-19.79-14.2s-13.94-8.73-20.79-13.27c-9.54-6.31-18.92-12.85-28.41-19.23-4.51-3-9.2-5.78-13.68-8.86-7.05-4.84-13.75-10.24-21.08-14.6-3.52-2.11-4.44-4.29-4.39-8,.17-11.16.08-22.32,0-33.48,0-1.25-.2-2.5-.3-3.6" transform="translate(-179.29 -1322.48)"/><path class="cls-1" d="M482.79,1897.28v420.28c1.63-1,3-1.79,4.42-2.59q6.18-3.54,12.4-7c8.38-4.78,16.74-9.61,25.17-14.32,3.07-1.72,6.39-3,9.44-4.74,6.63-3.79,13.16-7.76,19.75-11.64,2.85-1.68,5.75-3.29,8.59-5,4.94-3,9.79-6.12,14.79-9,6-3.46,12.26-6.59,18.28-10.06q17.08-9.86,34-20c2.17-1.31,5.61-3.23,5.66-4.94.45-15.24.26-30.49.26-47.22" transform="translate(-179.29 -1322.48)"/><path class="cls-1" d="M246.15,1895.39a26.35,26.35,0,0,1,.42,3q0,47,0,94a5,5,0,0,1-1.56,3c-5.38,5.52-10.86,10.94-16.3,16.4q-19.62,19.73-39.22,39.48c-3,3-5,6-5,11.05q.32,275.46.18,550.94v6.89c6.6,4.17,12.86,8,19,12,4.81,3.19,9.3,6.89,14.19,10,5.42,3.42,11.3,6.12,16.66,9.63,6.42,4.21,12.38,9.13,18.77,13.4,5.41,3.62,11.27,6.57,16.71,10.14,11.48,7.53,22.81,15.28,34.2,22.92,4,2.68,8,5.34,12.48,8.3,0-12,.15-23.15-.15-34.31-.05-2-1.67-4.27-3.12-5.95-3.06-3.56-6.44-6.85-9.77-10.18-7.32-7.31-14.54-14.73-22.09-21.8-4.25-4-7.13-7.72-7.07-14.29.38-41.32.19-82.65.19-124v-6.52" transform="translate(-179.29 -1322.48)"/><path class="cls-1" d="M290.4,2085.14V1901.07l-6.14-6.14" transform="translate(-179.29 -1322.48)"/><path class="cls-1" d="M293.87,2378a5.83,5.83,0,0,0,2.58-4.35q.23-45.49.06-91a6.18,6.18,0,0,0-1.18-4c-7.21-7.23-14.6-14.27-21.91-21.4-4.28-4.18-7.47-8.34-7.09-15.31.78-14.29.24-28.65.22-43,0-1.22-.17-2.45-.33-4.65" transform="translate(-179.29 -1322.48)"/><path class="cls-1" d="M686.59,2181.08c0,22.12-.22,42.75.17,63.36.08,4.38-2,6.94-4.48,9.4-7.27,7.34-14.94,14.3-22.25,21.61-1.88,1.88-4.21,4.5-4.25,6.81-.34,18.79-.19,37.6-.19,57.11l119-86.45v-87.61q0-54.75,0-109.5c0-1.51,0-3.54-.92-4.44-9.75-9.82-19.66-19.48-29.57-29.14a13.79,13.79,0,0,1-4.63-10.87c.3-32.66.09-65.33.23-98,0-4.12-1.19-6.4-5.43-6.43-9.77-.07-19.54,0-29.31-.1-4.29,0-5.46,2.05-5.4,6.18.22,14.66.11,29.33.06,44,0,1.42.11,3.27-.69,4.2-2.65,3.09-5.66,5.89-8.6,8.74-7.43,7.19-15,14.27-22.31,21.56-1.78,1.78-4.16,4.19-4.18,6.33-.28,29.32-.19,58.65-.19,87.13" transform="translate(-179.29 -1322.48)"/><path class="cls-1" d="M658.56,2085.36c0-17.57,0-35.06,0-52.56,0-1.12.17-2.8-.46-3.29-3-2.27-6.14-4.28-9.31-6.28-5.7-3.6-11.57-6.94-17.14-10.72-6.71-4.57-13.07-9.65-19.79-14.2s-13.94-8.73-20.79-13.27c-9.54-6.31-18.92-12.85-28.41-19.23-4.51-3-9.2-5.78-13.68-8.86-7.05-4.84-13.75-10.24-21.08-14.6-3.52-2.11-4.44-4.29-4.39-8,.17-11.16.08-22.32,0-33.48,0-1.25-.2-2.5-.3-3.6" transform="translate(-179.29 -1322.48)"/><path class="cls-1" d="M482.79,1897.28v420.28c1.63-1,3-1.79,4.42-2.59q6.18-3.54,12.4-7c8.38-4.78,16.74-9.61,25.17-14.32,3.07-1.72,6.39-3,9.44-4.74,6.63-3.79,13.16-7.76,19.75-11.64,2.85-1.68,5.75-3.29,8.59-5,4.94-3,9.79-6.12,14.79-9,6-3.46,12.26-6.59,18.28-10.06q17.08-9.86,34-20c2.17-1.31,5.61-3.23,5.66-4.94.45-15.24.26-30.49.26-47.22" transform="translate(-179.29 -1322.48)"/><path class="cls-2" d="M627.57,2502.9v67.16c0,9-.42,18,.16,27a14.24,14.24,0,0,1-4.78,12.28c-7.17,6.64-14.41,13.2-21.5,19.93-6.06,5.75-11.91,11.73-17.94,17.52-5.6,5.38-11.35,10.62-17,16-9.45,9-18.83,18.13-28.26,27.17-.19.18-.62.1-1.69.23,0-7.57-.35-14.9.11-22.17.34-5.37-.89-9.51-5-13.22-7.66-7-15.06-14.3-22.36-21.69a9.39,9.39,0,0,1-2.68-5.83q-.19-68.22-.05-136.45c0-.12.11-.27.36-.68l-6.44.18q0,69.24,0,138.43c-.84,6.52,21.61,23.35,26.88,29.89,3,2.93,4.23,6.08,4.22,10.53-.2,66.95-.13,133.81-.13,200.77l5.31-.1c-.78-56.37-.07-112.84-.14-169.25.56-5.37,6.65-8.32,10.42-11.53,25.62-25.77,53.36-49.08,78.93-75,3.91-3.83,6.83-7.58,6.73-14.07-.54-32.63-.2-65.36-.23-98l-5.06-.11C627.58,2502.09,627.46,2503,627.57,2502.9Z" transform="translate(-179.29 -1322.48)"/><path class="cls-1" d="M246.15,1895.39a26.35,26.35,0,0,1,.42,3q0,47,0,94a5,5,0,0,1-1.56,3c-5.38,5.52-10.86,10.94-16.3,16.4q-19.62,19.73-39.22,39.48c-3,3-5,6-5,11.05q.32,275.46.18,550.94v6.89c6.6,4.17,12.86,8,19,12,4.81,3.19,9.3,6.89,14.19,10,5.42,3.42,11.3,6.12,16.66,9.63,6.42,4.21,12.38,9.13,18.77,13.4,5.41,3.62,11.27,6.57,16.71,10.14,11.48,7.53,22.81,15.28,34.2,22.92,4,2.68,8,5.34,12.48,8.3,0-12,.15-23.15-.15-34.31-.05-2-1.67-4.27-3.12-5.95-3.06-3.56-6.44-6.85-9.77-10.18-7.32-7.31-14.54-14.73-22.09-21.8-4.25-4-7.13-7.72-7.07-14.29.38-41.32.19-82.65.19-124v-6.52" transform="translate(-179.29 -1322.48)"/><path class="cls-1" d="M290.4,2085.14V1901.07l-6.14-6.14" transform="translate(-179.29 -1322.48)"/><path class="cls-1" d="M293.87,2378a5.83,5.83,0,0,0,2.58-4.35q.23-45.49.06-91a6.18,6.18,0,0,0-1.18-4c-7.21-7.23-14.6-14.27-21.91-21.4-4.28-4.18-7.47-8.34-7.09-15.31.78-14.29.24-28.65.22-43,0-1.22-.17-2.45-.33-4.65" transform="translate(-179.29 -1322.48)"/><path class="cls-1" d="M658.56,2085.36c0-17.57,0-35.06,0-52.56,0-1.12.17-2.8-.46-3.29-3-2.27-6.14-4.28-9.31-6.28-5.7-3.6-11.57-6.94-17.14-10.72-6.71-4.57-13.07-9.65-19.79-14.2s-13.94-8.73-20.79-13.27c-9.54-6.31-18.92-12.85-28.41-19.23-4.51-3-9.2-5.78-13.68-8.86-7.05-4.84-13.75-10.24-21.08-14.6-3.52-2.11-4.44-4.29-4.39-8,.17-11.16.08-22.32,0-33.48,0-1.25-.2-2.5-.3-3.6" transform="translate(-179.29 -1322.48)"/><path class="cls-1" d="M482.79,1897.28v420.28c1.63-1,3-1.79,4.42-2.59q6.18-3.54,12.4-7c8.38-4.78,16.74-9.61,25.17-14.32,3.07-1.72,6.39-3,9.44-4.74,6.63-3.79,13.16-7.76,19.75-11.64,2.85-1.68,5.75-3.29,8.59-5,4.94-3,9.79-6.12,14.79-9,6-3.46,12.26-6.59,18.28-10.06q17.08-9.86,34-20c2.17-1.31,5.61-3.23,5.66-4.94.45-15.24.26-30.49.26-47.22" transform="translate(-179.29 -1322.48)"/><path class="cls-1" d="M686.59,2181.08c0,22.12-.22,42.75.17,63.36.08,4.38-2,6.94-4.48,9.4-7.27,7.34-14.94,14.3-22.25,21.61-1.88,1.88-4.21,4.5-4.25,6.81-.34,18.79-.19,37.6-.19,57.11l119-86.45v-87.61q0-54.75,0-109.5c0-1.51,0-3.54-.92-4.44-9.75-9.82-19.66-19.48-29.57-29.14a13.79,13.79,0,0,1-4.63-10.87c.3-32.66.09-65.33.23-98,0-4.12-1.19-6.4-5.43-6.43-9.77-.07-19.54,0-29.31-.1-4.29,0-5.46,2.05-5.4,6.18.22,14.66.11,29.33.06,44,0,1.42.11,3.27-.69,4.2-2.65,3.09-5.66,5.89-8.6,8.74-7.43,7.19-15,14.27-22.31,21.56-1.78,1.78-4.16,4.19-4.18,6.33-.28,29.32-.19,58.65-.19,87.13" transform="translate(-179.29 -1322.48)"/><path class="cls-1" d="M246.15,1895.39a26.35,26.35,0,0,1,.42,3q0,47,0,94a5,5,0,0,1-1.56,3c-5.38,5.52-10.86,10.94-16.3,16.4q-19.62,19.73-39.22,39.48c-3,3-5,6-5,11.05q.32,275.46.18,550.94v6.89c6.6,4.17,12.86,8,19,12,4.81,3.19,9.3,6.89,14.19,10,5.42,3.42,11.3,6.12,16.66,9.63,6.42,4.21,12.38,9.13,18.77,13.4,5.41,3.62,11.27,6.57,16.71,10.14,11.48,7.53,22.81,15.28,34.2,22.92,4,2.68,8,5.34,12.48,8.3,0-12,.15-23.15-.15-34.31-.05-2-1.67-4.27-3.12-5.95-3.06-3.56-6.44-6.85-9.77-10.18-7.32-7.31-14.54-14.73-22.09-21.8-4.25-4-7.13-7.72-7.07-14.29.38-41.32.19-82.65.19-124v-6l-.5.15.5-.15v-.52" transform="translate(-179.29 -1322.48)"/><path class="cls-1" d="M290.4,2085.14V1901.07l-6.14-6.14" transform="translate(-179.29 -1322.48)"/><path class="cls-1" d="M293.87,2378a5.83,5.83,0,0,0,2.58-4.35q.23-45.49.06-91a6.18,6.18,0,0,0-1.18-4c-7.21-7.23-14.6-14.27-21.91-21.4-4.28-4.18-7.47-8.34-7.09-15.31.78-14.29.24-28.65.22-43,0-1.22-.17-2.45-.33-4.65" transform="translate(-179.29 -1322.48)"/><path class="cls-1" d="M686.59,2181.08c0,22.12-.22,42.75.17,63.36.08,4.38-2,6.94-4.48,9.4-7.27,7.34-14.94,14.3-22.25,21.61-1.88,1.88-4.21,4.5-4.25,6.81-.34,18.79-.19,37.6-.19,57.11l119-86.45v-87.61q0-54.75,0-109.5c0-1.51,0-3.54-.92-4.44-9.75-9.82-19.66-19.48-29.57-29.14a13.79,13.79,0,0,1-4.63-10.87c.3-32.66.09-65.33.23-98,0-4.12-1.19-6.4-5.43-6.43-9.77-.07-19.54,0-29.31-.1-4.29,0-5.46,2.05-5.4,6.18.22,14.66.11,29.33.06,44,0,1.42.11,3.27-.69,4.2-2.65,3.09-5.66,5.89-8.6,8.74-7.43,7.19-15,14.27-22.31,21.56-1.78,1.78-4.16,4.19-4.18,6.33-.28,29.32-.19,58.65-.19,87.13" transform="translate(-179.29 -1322.48)"/><path class="cls-1" d="M658.56,2085.36c0-17.57,0-35.06,0-52.56,0-1.12.17-2.8-.46-3.29-3-2.27-6.14-4.28-9.31-6.28-5.7-3.6-11.57-6.94-17.14-10.72-6.71-4.57-13.07-9.65-19.79-14.2s-13.94-8.73-20.79-13.27c-9.54-6.31-18.92-12.85-28.41-19.23-4.51-3-9.2-5.78-13.68-8.86-7.05-4.84-13.75-10.24-21.08-14.6-3.52-2.11-4.44-4.29-4.39-8,.17-11.16.08-22.32,0-33.48,0-1.25-.2-2.5-.3-3.6" transform="translate(-179.29 -1322.48)"/><path class="cls-1" d="M482.79,1897.28v420.28c1.63-1,3-1.79,4.42-2.59q6.18-3.54,12.4-7c8.38-4.78,16.74-9.61,25.17-14.32,3.07-1.72,6.39-3,9.44-4.74,6.63-3.79,13.16-7.76,19.75-11.64,2.85-1.68,5.75-3.29,8.59-5,4.94-3,9.79-6.12,14.79-9,6-3.46,12.26-6.59,18.28-10.06q17.08-9.86,34-20c2.17-1.31,5.61-3.23,5.66-4.94.45-15.24.26-30.49.26-47.22" transform="translate(-179.29 -1322.48)"/><path class="cls-1" d="M246.15,1895.39a26.35,26.35,0,0,1,.42,3q0,47,0,94a5,5,0,0,1-1.56,3c-5.38,5.52-10.86,10.94-16.3,16.4q-19.62,19.73-39.22,39.48c-3,3-5,6-5,11.05q.32,275.46.18,550.94v6.89c6.6,4.17,12.86,8,19,12,4.81,3.19,9.3,6.89,14.19,10,5.42,3.42,11.3,6.12,16.66,9.63,6.42,4.21,12.38,9.13,18.77,13.4,5.41,3.62,11.27,6.57,16.71,10.14,11.48,7.53,22.81,15.28,34.2,22.92,4,2.68,8,5.34,12.48,8.3,0-12,.15-23.15-.15-34.31-.05-2-1.67-4.27-3.12-5.95-3.06-3.56-6.44-6.85-9.77-10.18-7.32-7.31-14.54-14.73-22.09-21.8-4.25-4-7.13-7.72-7.07-14.29.38-41.32.19-82.65.19-124v-6.52" transform="translate(-179.29 -1322.48)"/><path class="cls-1" d="M290.4,2085.14V1901.07l-6.14-6.14" transform="translate(-179.29 -1322.48)"/><path class="cls-1" d="M293.87,2378a5,5,0,0,0,1.95-2.18h0a5.05,5.05,0,0,0,.63-2.17q.23-45.49.06-91a6.18,6.18,0,0,0-1.18-4c-7.21-7.23-14.6-14.27-21.91-21.4-4.28-4.18-7.47-8.34-7.09-15.31.78-14.29.24-28.65.22-43,0-1.22-.17-2.45-.33-4.65" transform="translate(-179.29 -1322.48)"/><path class="cls-1" d="M686.59,2181.08c0,22.12-.22,42.75.17,63.36.08,4.38-2,6.94-4.48,9.4-7.27,7.34-14.94,14.3-22.25,21.61-1.88,1.88-4.21,4.5-4.25,6.81-.34,18.79-.19,37.6-.19,57.11l119-86.45v-87.61q0-54.75,0-109.5c0-1.51,0-3.54-.92-4.44-9.75-9.82-19.66-19.48-29.57-29.14a13.79,13.79,0,0,1-4.63-10.87c.3-32.66.09-65.33.23-98,0-4.12-1.19-6.4-5.43-6.43-9.77-.07-19.54,0-29.31-.1-4.29,0-5.46,2.05-5.4,6.18.22,14.66.11,29.33.06,44,0,1.42.11,3.27-.69,4.2-2.65,3.09-5.66,5.89-8.6,8.74-7.43,7.19-15,14.27-22.31,21.56-1.78,1.78-4.16,4.19-4.18,6.33-.28,29.32-.19,58.65-.19,87.13" transform="translate(-179.29 -1322.48)"/><path class="cls-1" d="M658.56,2085.36c0-17.57,0-35.06,0-52.56,0-1.12.17-2.8-.46-3.29-3-2.27-6.14-4.28-9.31-6.28-5.7-3.6-11.57-6.94-17.14-10.72-6.71-4.57-13.07-9.65-19.79-14.2s-13.94-8.73-20.79-13.27c-9.54-6.31-18.92-12.85-28.41-19.23-4.51-3-9.2-5.78-13.68-8.86-7.05-4.84-13.75-10.24-21.08-14.6-3.52-2.11-4.44-4.29-4.39-8,.17-11.16.08-22.32,0-33.48,0-1.25-.2-2.5-.3-3.6" transform="translate(-179.29 -1322.48)"/><path class="cls-1" d="M482.79,1897.28v420.28c1.63-1,3-1.79,4.42-2.59q6.18-3.54,12.4-7c8.38-4.78,16.74-9.61,25.17-14.32,3.07-1.72,6.39-3,9.44-4.74,6.63-3.79,13.16-7.76,19.75-11.64,2.85-1.68,5.75-3.29,8.59-5,4.94-3,9.79-6.12,14.79-9,6-3.46,12.26-6.59,18.28-10.06q17.08-9.86,34-20c2.17-1.31,5.61-3.23,5.66-4.94.45-15.24.26-30.49.26-47.22" transform="translate(-179.29 -1322.48)"/><path class="cls-1" d="M246.15,1895.39a26.35,26.35,0,0,1,.42,3q0,47,0,94a5,5,0,0,1-1.56,3c-5.38,5.52-10.86,10.94-16.3,16.4q-19.62,19.73-39.22,39.48c-3,3-5,6-5,11.05q.32,275.46.18,550.94v6.89c6.6,4.17,12.86,8,19,12,4.81,3.19,9.3,6.89,14.19,10,5.42,3.42,11.3,6.12,16.66,9.63,6.42,4.21,12.38,9.13,18.77,13.4,5.41,3.62,11.27,6.57,16.71,10.14,11.48,7.53,22.81,15.28,34.2,22.92,4,2.68,8,5.34,12.48,8.3,0-12,.15-23.15-.15-34.31-.05-2-1.67-4.27-3.12-5.95-3.06-3.56-6.44-6.85-9.77-10.18-7.32-7.31-14.54-14.73-22.09-21.8-4.25-4-7.13-7.72-7.07-14.29.38-41.32.19-82.65.19-124v-6.52" transform="translate(-179.29 -1322.48)"/><path class="cls-1" d="M290.4,2085.14V1901.07l-6.14-6.14" transform="translate(-179.29 -1322.48)"/><path class="cls-1" d="M293.87,2378a4.76,4.76,0,0,0,1.79-1.91l-2.12.1,2.12-.1.16-.27a5.05,5.05,0,0,0,.63-2.17q.23-45.49.06-91a6.18,6.18,0,0,0-1.18-4c-7.21-7.23-14.6-14.27-21.91-21.4-4.28-4.18-7.47-8.34-7.09-15.31.78-14.29.24-28.65.22-43,0-1.22-.17-2.45-.33-4.65" transform="translate(-179.29 -1322.48)"/><path class="cls-1" d="M686.59,2181.08c0,22.12-.22,42.75.17,63.36.08,4.38-2,6.94-4.48,9.4-7.27,7.34-14.94,14.3-22.25,21.61-1.88,1.88-4.21,4.5-4.25,6.81-.34,18.79-.19,37.6-.19,57.11l119-86.45v-87.61q0-54.75,0-109.5c0-1.51,0-3.54-.92-4.44-9.75-9.82-19.66-19.48-29.57-29.14a13.79,13.79,0,0,1-4.63-10.87c.3-32.66.09-65.33.23-98,0-4.12-1.19-6.4-5.43-6.43-9.77-.07-19.54,0-29.31-.1-4.29,0-5.46,2.05-5.4,6.18.22,14.66.11,29.33.06,44,0,1.42.11,3.27-.69,4.2-2.65,3.09-5.66,5.89-8.6,8.74-7.43,7.19-15,14.27-22.31,21.56-1.78,1.78-4.16,4.19-4.18,6.33-.28,29.32-.19,58.65-.19,87.13" transform="translate(-179.29 -1322.48)"/><path class="cls-1" d="M658.56,2085.36c0-17.57,0-35.06,0-52.56,0-1.12.17-2.8-.46-3.29-3-2.27-6.14-4.28-9.31-6.28-5.7-3.6-11.57-6.94-17.14-10.72-6.71-4.57-13.07-9.65-19.79-14.2s-13.94-8.73-20.79-13.27c-9.54-6.31-18.92-12.85-28.41-19.23-4.51-3-9.2-5.78-13.68-8.86-7.05-4.84-13.75-10.24-21.08-14.6-3.52-2.11-4.44-4.29-4.39-8,.17-11.16.08-22.32,0-33.48,0-1.25-.2-2.5-.3-3.6" transform="translate(-179.29 -1322.48)"/><path class="cls-1" d="M482.79,1897.28v420.28c1.63-1,3-1.79,4.42-2.59q6.18-3.54,12.4-7c8.38-4.78,16.74-9.61,25.17-14.32,3.07-1.72,6.39-3,9.44-4.74,6.63-3.79,13.16-7.76,19.75-11.64,2.85-1.68,5.75-3.29,8.59-5,4.94-3,9.79-6.12,14.79-9,6-3.46,12.26-6.59,18.28-10.06q17.08-9.86,34-20c2.17-1.31,5.61-3.23,5.66-4.94.45-15.24.26-30.49.26-47.22" transform="translate(-179.29 -1322.48)"/><path class="cls-2" d="M295.66,2376l5.65-.27h-5.49Z" transform="translate(-179.29 -1322.48)"/><path class="cls-2" d="M303.25,2375.77l0-.09-1.91.09Z" transform="translate(-179.29 -1322.48)"/><path class="cls-1" d="M246.15,1895.39a26.35,26.35,0,0,1,.42,3q0,47,0,94a5,5,0,0,1-1.56,3c-5.38,5.52-10.86,10.94-16.3,16.4q-19.62,19.73-39.22,39.48c-3,3-5,6-5,11.05q.32,275.46.18,550.94v6.89c6.6,4.17,12.86,8,19,12,4.81,3.19,9.3,6.89,14.19,10,5.42,3.42,11.3,6.12,16.66,9.63,6.42,4.21,12.38,9.13,18.77,13.4,5.41,3.62,11.27,6.57,16.71,10.14,11.48,7.53,22.81,15.28,34.2,22.92,4,2.68,8,5.34,12.48,8.3,0-12,.15-23.15-.15-34.31-.05-2-1.67-4.27-3.12-5.95-3.06-3.56-6.44-6.85-9.77-10.18-7.32-7.31-14.54-14.73-22.09-21.8-4.25-4-7.13-7.72-7.07-14.29.38-41.32.19-82.65.19-124v-6l-.23,0,.23,0v-.54" transform="translate(-179.29 -1322.48)"/><path class="cls-1" d="M290.4,2085.14V1901.07l-6.14-6.14" transform="translate(-179.29 -1322.48)"/><path class="cls-1" d="M293.87,2378a4.76,4.76,0,0,0,1.79-1.91l5.65-.27h-5.49a5.05,5.05,0,0,0,.63-2.17q.23-45.49.06-91a6.18,6.18,0,0,0-1.18-4c-7.21-7.23-14.6-14.27-21.91-21.4-4.28-4.18-7.47-8.34-7.09-15.31.78-14.29.24-28.65.22-43,0-1.22-.17-2.45-.33-4.65" transform="translate(-179.29 -1322.48)"/><path class="cls-1" d="M686.59,2181.08c0,22.12-.22,42.75.17,63.36.08,4.38-2,6.94-4.48,9.4-7.27,7.34-14.94,14.3-22.25,21.61-1.88,1.88-4.21,4.5-4.25,6.81-.34,18.79-.19,37.6-.19,57.11l119-86.45v-87.61q0-54.75,0-109.5c0-1.51,0-3.54-.92-4.44-9.75-9.82-19.66-19.48-29.57-29.14a13.79,13.79,0,0,1-4.63-10.87c.3-32.66.09-65.33.23-98,0-4.12-1.19-6.4-5.43-6.43-9.77-.07-19.54,0-29.31-.1-4.29,0-5.46,2.05-5.4,6.18.22,14.66.11,29.33.06,44,0,1.42.11,3.27-.69,4.2-2.65,3.09-5.66,5.89-8.6,8.74-7.43,7.19-15,14.27-22.31,21.56-1.78,1.78-4.16,4.19-4.18,6.33-.28,29.32-.19,58.65-.19,87.13" transform="translate(-179.29 -1322.48)"/><path class="cls-1" d="M658.56,2085.36c0-17.57,0-35.06,0-52.56,0-1.12.17-2.8-.46-3.29-3-2.27-6.14-4.28-9.31-6.28-5.7-3.6-11.57-6.94-17.14-10.72-6.71-4.57-13.07-9.65-19.79-14.2s-13.94-8.73-20.79-13.27c-9.54-6.31-18.92-12.85-28.41-19.23-4.51-3-9.2-5.78-13.68-8.86-7.05-4.84-13.75-10.24-21.08-14.6-3.52-2.11-4.44-4.29-4.39-8,.17-11.16.08-22.32,0-33.48,0-1.25-.2-2.5-.3-3.6" transform="translate(-179.29 -1322.48)"/><path class="cls-1" d="M482.79,1897.28v420.28c1.63-1,3-1.79,4.42-2.59q6.18-3.54,12.4-7c8.38-4.78,16.74-9.61,25.17-14.32,3.07-1.72,6.39-3,9.44-4.74,6.63-3.79,13.16-7.76,19.75-11.64,2.85-1.68,5.75-3.29,8.59-5,4.94-3,9.79-6.12,14.79-9,6-3.46,12.26-6.59,18.28-10.06q17.08-9.86,34-20c2.17-1.31,5.61-3.23,5.66-4.94.45-15.24.26-30.49.26-47.22" transform="translate(-179.29 -1322.48)"/><path class="cls-1" d="M658.56,2085.36c0-17.57,0-35.06,0-52.56,0-1.12.17-2.8-.46-3.29-3-2.27-6.14-4.28-9.31-6.28-5.7-3.6-11.57-6.94-17.14-10.72-6.71-4.57-13.07-9.65-19.79-14.2s-13.94-8.73-20.79-13.27c-9.54-6.31-18.92-12.85-28.41-19.23-4.51-3-9.2-5.78-13.68-8.86-7.05-4.84-13.75-10.24-21.08-14.6-3.52-2.11-4.44-4.29-4.39-8,.17-11.16.08-22.32,0-33.48,0-1.25-.2-2.5-.3-3.6" transform="translate(-179.29 -1322.48)"/><path class="cls-1" d="M482.79,1897.28v420.28c1.63-1,3-1.79,4.42-2.59q6.18-3.54,12.4-7c8.38-4.78,16.74-9.61,25.17-14.32,3.07-1.72,6.39-3,9.44-4.74,6.63-3.79,13.16-7.76,19.75-11.64,2.85-1.68,5.75-3.29,8.59-5,4.94-3,9.79-6.12,14.79-9,6-3.46,12.26-6.59,18.28-10.06q17.08-9.86,34-20c2.17-1.31,5.61-3.23,5.66-4.94.45-15.18.26-30.38.26-47l-.16,0,.16,0V2181" transform="translate(-179.29 -1322.48)"/><path class="cls-1" d="M686.59,2181.08c0,22.12-.22,42.75.17,63.36.08,4.38-2,6.94-4.48,9.4-7.27,7.34-14.94,14.3-22.25,21.61-1.88,1.88-4.21,4.5-4.25,6.81-.34,18.79-.19,37.6-.19,57.11l119-86.45v-87.61q0-54.75,0-109.5c0-1.51,0-3.54-.92-4.44-9.75-9.82-19.66-19.48-29.57-29.14a13.79,13.79,0,0,1-4.63-10.87c.3-32.66.09-65.33.23-98,0-4.12-1.19-6.4-5.43-6.43-9.77-.07-19.54,0-29.31-.1-4.29,0-5.46,2.05-5.4,6.18.22,14.66.11,29.33.06,44,0,1.42.11,3.27-.69,4.2-2.65,3.09-5.66,5.89-8.6,8.74-7.43,7.19-15,14.27-22.31,21.56-1.78,1.78-4.16,4.19-4.18,6.33-.28,29.32-.19,58.65-.19,87.13" transform="translate(-179.29 -1322.48)"/><path class="cls-1" d="M686.59,2181.08v.13l.1,0-.1,0c0,22.07-.21,42.66.17,63.23.08,4.38-2,6.94-4.48,9.4-7.27,7.34-14.94,14.3-22.25,21.61-1.88,1.88-4.21,4.5-4.25,6.81-.34,18.79-.19,37.6-.19,57.11l119-86.45v-87.61q0-54.75,0-109.5c0-1.51,0-3.54-.92-4.44-9.75-9.82-19.66-19.48-29.57-29.14a13.79,13.79,0,0,1-4.63-10.87c.3-32.66.09-65.33.23-98,0-4.12-1.19-6.4-5.43-6.43-9.77-.07-19.54,0-29.31-.1-4.29,0-5.46,2.05-5.4,6.18.22,14.66.11,29.33.06,44,0,1.42.11,3.27-.69,4.2-2.65,3.09-5.66,5.89-8.6,8.74-7.43,7.19-15,14.27-22.31,21.56-1.78,1.78-4.16,4.19-4.18,6.33-.28,29.32-.19,58.65-.19,87.13" transform="translate(-179.29 -1322.48)"/><path class="cls-1" d="M658.56,2085.36c0-17.57,0-35.06,0-52.56,0-1.12.17-2.8-.46-3.29-3-2.27-6.14-4.28-9.31-6.28-5.7-3.6-11.57-6.94-17.14-10.72-6.71-4.57-13.07-9.65-19.79-14.2s-13.94-8.73-20.79-13.27c-9.54-6.31-18.92-12.85-28.41-19.23-4.51-3-9.2-5.78-13.68-8.86-7.05-4.84-13.75-10.24-21.08-14.6-3.52-2.11-4.44-4.29-4.39-8,.17-11.16.08-22.32,0-33.48,0-1.25-.2-2.5-.3-3.6" transform="translate(-179.29 -1322.48)"/><path class="cls-1" d="M482.79,1897.28v420.28c1.63-1,3-1.79,4.42-2.59q6.18-3.54,12.4-7c8.38-4.78,16.74-9.61,25.17-14.32,3.07-1.72,6.39-3,9.44-4.74,6.63-3.79,13.16-7.76,19.75-11.64,2.85-1.68,5.75-3.29,8.59-5,4.94-3,9.79-6.12,14.79-9,6-3.46,12.26-6.59,18.28-10.06q17.08-9.86,34-20c2.17-1.31,5.61-3.23,5.66-4.94.45-15.18.26-30.38.26-47V2181" transform="translate(-179.29 -1322.48)"/><path class="cls-1" d="M686.59,2181.08v.13c0,22.07-.21,42.66.17,63.23.08,4.38-2,6.94-4.48,9.4-7.27,7.34-14.94,14.3-22.25,21.61-1.88,1.88-4.21,4.5-4.25,6.81-.34,18.79-.19,37.6-.19,57.11l119-86.45v-87.61q0-54.75,0-109.5c0-1.51,0-3.54-.92-4.44-9.75-9.82-19.66-19.48-29.57-29.14a13.79,13.79,0,0,1-4.63-10.87c.3-32.66.09-65.33.23-98,0-4.12-1.19-6.4-5.43-6.43-9.77-.07-19.54,0-29.31-.1-4.29,0-5.46,2.05-5.4,6.18.22,14.66.11,29.33.06,44,0,1.42.11,3.27-.69,4.2-2.65,3.09-5.66,5.89-8.6,8.74-7.43,7.19-15,14.27-22.31,21.56-1.78,1.78-4.16,4.19-4.18,6.33-.28,29.31-.19,58.61-.19,87.08l.39,0-.39,0v.05" transform="translate(-179.29 -1322.48)"/><path class="cls-1" d="M658.56,2085.36v-.09l-.92.06.92-.06c0-17.55,0-35,0-52.47,0-1.12.17-2.8-.46-3.29-3-2.27-6.14-4.28-9.31-6.28-5.7-3.6-11.57-6.94-17.14-10.72-6.71-4.57-13.07-9.65-19.79-14.2s-13.94-8.73-20.79-13.27c-9.54-6.31-18.92-12.85-28.41-19.23-4.51-3-9.2-5.78-13.68-8.86-7.05-4.84-13.75-10.24-21.08-14.6-3.52-2.11-4.44-4.29-4.39-8,.17-11.16.08-22.32,0-33.48,0-1.25-.2-2.5-.3-3.6" transform="translate(-179.29 -1322.48)"/><path class="cls-1" d="M482.79,1897.28v420.28c1.63-1,3-1.79,4.42-2.59q6.18-3.54,12.4-7c8.38-4.78,16.74-9.61,25.17-14.32,3.07-1.72,6.39-3,9.44-4.74,6.63-3.79,13.16-7.76,19.75-11.64,2.85-1.68,5.75-3.29,8.59-5,4.94-3,9.79-6.12,14.79-9,6-3.46,12.26-6.59,18.28-10.06q17.08-9.86,34-20c2.17-1.31,5.61-3.23,5.66-4.94.45-15.18.26-30.38.26-47V2181" transform="translate(-179.29 -1322.48)"/><path class="cls-1" d="M265.64,2194.63l.6-.16c0-.07,0-.14,0-.21Z" transform="translate(-179.29 -1322.48)"/><path class="cls-2" d="M266.55,2198.91c0,14.33.56,28.69-.22,43-.38,7,2.81,11.13,7.09,15.31,7.31,7.13,14.7,14.17,21.91,21.4a6.18,6.18,0,0,1,1.18,4q.11,45.49-.06,91a5.05,5.05,0,0,1-.63,2.17h5.49l1.91-.09a8.43,8.43,0,0,1-.58-3c-.07-28.5-.48-57,.23-85.49.17-16.7-20.44-26.45-30-38.56-3.41-16.18-.11-34.31-1.45-51.05a5.89,5.89,0,0,1,2.15-5.15l-7.37,2C266.39,2196.54,266.55,2197.73,266.55,2198.91Z" transform="translate(-179.29 -1322.48)"/><path class="cls-2" d="M302.12,2646.4c-6.9-8.13-18.61-14.44-22.35-24.49q-.36-65,0-130a6.18,6.18,0,0,1,1.71-3.36l-6.9,1.47v6c0,41.33.19,82.66-.19,124-.06,6.57,2.82,10.31,7.07,14.29,7.55,7.07,14.77,14.49,22.09,21.8,3.33,3.33,6.71,6.62,9.77,10.18,1.45,1.68,3.07,3.92,3.12,5.95.3,11.16.15,22.32.15,34.31-4.46-3-8.48-5.62-12.48-8.3-11.39-7.64-22.72-15.39-34.2-22.92-5.44-3.57-11.3-6.52-16.71-10.14-6.39-4.27-12.35-9.19-18.77-13.4-5.36-3.51-11.24-6.21-16.66-9.63-4.89-3.07-9.38-6.77-14.19-10-6.11-4-12.37-7.83-19-12v-6.89q0-275.47-.18-550.94c0-5,2.05-8,5-11.05q19.56-19.8,39.22-39.48c5.44-5.46,10.92-10.88,16.3-16.4a5,5,0,0,0,1.56-3q.12-47,0-94a19.06,19.06,0,0,0-.37-2.69l-7.46,2.17c2.24,31.15.1,63.3.73,94.82a7.16,7.16,0,0,1-2.08,4.45c-7.32,7.4-14.83,14.62-22.22,22-8.89,8.83-17.61,17.85-26.64,26.54-5.81,5.6-9.26,11.14-9.24,20.19.43,185.13.17,370.33.33,555.44.21,1.24.47,2.93,1.34,3.52,13.29,9.44,27.51,17.42,41.43,25.86,18.36,12.33,36.67,24.75,55.36,36.61,11.43,7.53,22.64,15.42,34.26,22.64,3.55,2.21,4.64,4.43,4.63,8.38-.12,50.51-.07,101.43-.07,151.89l6-.22q0-99.45,0-198.81C324.16,2664.62,306.72,2652.29,302.12,2646.4Z" transform="translate(-179.29 -1322.48)"/><path class="cls-2" d="M290.4,1901.07v183.79l5.76-.23a14.73,14.73,0,0,1-.71-5.14c.21-60,.13-120,.14-180L285,1895.69Z" transform="translate(-179.29 -1322.48)"/><path class="cls-2" d="M779.54,2052.86c.35-6.79-7-9.54-10.8-14.05-6.51-8.06-23.1-18.56-24-28.51.1-33.55-.62-66.78.22-100.36l-7-1.92c1.28,1.06,1.72,2.87,1.71,5.35-.14,32.66.07,65.33-.23,98a13.79,13.79,0,0,0,4.63,10.87c9.91,9.66,19.82,19.32,29.57,29.14.89.9.91,2.93.92,4.44q.06,54.75,0,109.5v87.61l-119,86.45c0-19.51-.15-38.32.19-57.11,0-2.31,2.37-4.93,4.25-6.81,7.31-7.31,15-14.27,22.25-21.61,2.44-2.46,4.56-5,4.48-9.4-.38-20.57-.17-41.16-.17-63.23l-6-1.49v5.18c0,18.66-.21,37.33.14,56,.1,5.25-1.06,9.16-4.93,12.73-7.63,7-15.1,14.28-22.29,21.75a11.43,11.43,0,0,0-2.79,7.23c-.19,29.32-.13,58.65-.13,88v5.9l-.1,0,5.13,0c1-7.84-2.43-25.82,2.1-31.23,12.3-9.31,24.72-18.48,37.1-27.69,28.63-20,56-41.61,84.8-61.36Q779.59,2154.61,779.54,2052.86Z" transform="translate(-179.29 -1322.48)"/><path class="cls-2" d="M694.61,1946.3c.1,6.67-.13,12.31-6.43,17.29-8.53,6.73-15.69,15.21-23.39,23-3.88,3.91-7.17,7.76-6.41,14.22.82,7,.18,14.17.18,22.43l-129.64-86.88v-39.2l-5.65.34c.1,1,.28,2.22.28,3.4,0,11.16.12,22.32,0,33.48,0,3.7.87,5.88,4.39,8,7.33,4.36,14,9.76,21.08,14.6,4.48,3.08,9.17,5.84,13.68,8.86,9.49,6.38,18.87,12.92,28.41,19.23,6.85,4.54,14,8.66,20.79,13.27s13.08,9.63,19.79,14.2c5.57,3.78,11.44,7.12,17.14,10.72,3.17,2,6.35,4,9.31,6.28.63.49.46,2.17.46,3.29,0,17.46,0,34.92,0,52.47l5-.34c0-28.47-.09-57.77.19-87.08,0-2.14,2.4-4.55,4.18-6.33,7.34-7.29,14.88-14.37,22.31-21.56,2.94-2.85,6-5.65,8.6-8.74.8-.93.69-2.78.69-4.2.05-14.67.16-29.34-.06-44,0-2.49.38-4.23,1.65-5.22l-6.59,1.7C694.56,1922.51,694.44,1934.4,694.61,1946.3Z" transform="translate(-179.29 -1322.48)"/><path class="cls-2" d="M502.81,1714c-6.49-6.79-16.91-11.93-15.34-22.9.58-16.23-.12-32.06.12-48.5l-5,.12c0,18.44,0,36.4.06,54.37-.12,6.85,7.48,9.6,11.3,14.27,4.23,4.23,7.1,8.58,6.89,15.48-.75,25.08-.12,51.81-.24,76.68l6,.15c0-26.48-.1-53.73.11-81A11.07,11.07,0,0,0,502.81,1714Z" transform="translate(-179.29 -1322.48)"/><path class="cls-2" d="M476.13,2317.06c-39.15-21.34-77.89-42.79-117.06-64-12.77-6.52-24.58-14.78-37.12-21.75-1.22-.74-3.19-1.78-3.21-2.72-.22-10.88-.15-21.77-.14-33.5l-8-2.14c5.22,3.68.24,13.83,1.93,40.08,51.79,29.88,104.46,57.16,156.67,86.15,5.08,2.71,7.74,5.69,7.56,12.26-.59,22.11-.23,44.23-.22,65.26l6-.3v-52.33c0-5.84-.09-11.67.07-17.5,0-1.19.64-2.93,1.54-3.47,7.79-4.62,15.75-8.95,23.56-13.53,8.4-4.9,16.61-10.11,25-14.93,5.33-3,11.05-5.41,16.37-8.46,7.92-4.56,15.57-9.59,23.48-14.18,6.11-3.56,12.48-6.67,18.66-10.12,5.47-3.05,10.82-6.32,16.25-9.44,4.13-2.38,8.34-4.63,12.46-7,6.44-3.74,12.93-7.42,19.15-11.49,1.08-.7,1.34-3.2,1.35-4.88.1-16.26.06-32.53.06-49.05l-5,1.22c0,16.65.19,31.85-.26,47,0,1.71-3.49,3.63-5.66,4.94q-16.92,10.14-34,20c-6,3.47-12.24,6.6-18.28,10.06-5,2.87-9.85,6-14.79,9-2.84,1.71-5.74,3.32-8.59,5-6.59,3.88-13.12,7.85-19.75,11.64-3.05,1.75-6.37,3-9.44,4.74-8.43,4.71-16.79,9.54-25.17,14.32q-6.21,3.52-12.4,7c-1.41.8-2.79,1.63-4.42,2.59v-420h-6.66Z" transform="translate(-179.29 -1322.48)"/><path class="cls-2" d="M455,2490.27l4.58-.11c0,46.83.11,93.65-.13,140.48,0,2.52-2.34,5.45-4.32,7.47-7.11,7.27-14.65,14.1-21.71,21.41-1.35,1.39-1.71,4.19-1.71,6.34q-.15,65.74-.07,131.48,0,36.26,0,72.49l-5.07,0c0-54.11-.21-108.23.23-162.34.06-7.31-3-11.73-7.69-15.83-6-5.23-12.37-9.94-18.41-15.09-8.68-7.39-17.2-15-25.8-22.46-5.53-4.82-11-9.73-16.67-14.35-4.28-3.47-9.08-6.32-13.31-9.85-4.84-4-9.22-8.66-14-12.82-3.52-3.08-7.33-5.84-11.21-8.91v-115l4.68-1.05c.08,2.66.21,5.32.21,8,0,35.14,0,70.27,0,104.69l101.93,86.55c0-10.56.11-19.55-.05-28.53-.07-3.4,1.18-5.66,3.64-8Q441.38,2644.19,452,2633a10.88,10.88,0,0,0,2.42-6.84c.14-43.47.1-86.94.12-130.41C454.56,2493.89,454.81,2492.08,455,2490.27Z" transform="translate(-179.29 -1322.48)"/><path class="cls-2" d="M722.52,1783l-5.89,0c0-69.31-.27-138.63.16-207.93.06-9.59-2.47-14.57-11.56-18.07-8.23-3.17-15.42-9-23.21-13.37-5.33-3-11-5.49-16.32-8.44-9.26-5.09-18.4-10.4-27.62-15.55-2.76-1.53-5.64-2.83-8.46-4.26-9.26-4.71-18.6-9.28-27.76-14.19-12-6.44-23.88-13.15-35.82-19.74-4.4-2.42-9-4.61-13.17-7.34a6.36,6.36,0,0,1-2.23-4.68c-.17-15.49-.1-31-.1-46.48V1322.6h5v146.32c10,5.74,19.46,11.24,29,16.66,2.89,1.64,5.93,3,8.86,4.56,8.76,4.66,17.49,9.36,26.25,14,6.68,3.55,13.43,6.95,20.06,10.57,8,4.38,15.92,9,23.94,13.37,6.63,3.62,13.39,7,20,10.61,8,4.38,16,8.91,23.95,13.36,4.13,2.3,8.35,4.44,12.36,6.92,1.18.73,2.58,2.38,2.58,3.6Q722.64,1672.8,722.52,1783Z" transform="translate(-179.29 -1322.48)"/><path class="cls-2" d="M268.32,1782.33l-4.54.13c-.07-1.15-.2-2.32-.2-3.48q0-109,0-217.94v-1.67c6.81-4.3,13.33-8.56,20-12.58,5.52-3.32,11.29-6.25,16.81-9.57,5.33-3.21,10.42-6.82,15.73-10s11-6.16,16.38-9.43c8-4.83,15.81-9.92,23.8-14.75,5.11-3.09,10.46-5.78,15.56-8.87,8.26-5,16.37-10.27,24.6-15.31a138.63,138.63,0,0,1,14.11-8c3.24-1.49,4.07-3.32,4.07-6.7q-.17-68-.08-136v-5.65h5v4.46c0,46.49-.07,93,.1,139.46,0,4.5-1.69,6.6-5.46,8.69-8,4.44-15.57,9.67-23.41,14.41-5.4,3.26-11,6.12-16.43,9.37-7.85,4.73-15.58,9.66-23.38,14.48-4.33,2.67-8.71,5.28-13.07,7.93-8.7,5.29-17.34,10.69-26.13,15.85-7.68,4.52-15.6,8.64-23.27,13.19q-9.46,5.63-18.52,12c-1,.72-1.34,3-1.35,4.65q-.12,36.48-.06,73,0,68.47,0,137C268.6,1778.69,268.42,1780.51,268.32,1782.33Z" transform="translate(-179.29 -1322.48)"/><path class="cls-2" d="M650.54,2869.72h-5.93q0-104.4-.08-208.79c0-5.78,5.25-7.81,8.34-11.22,5.49-6.07,11.83-11.38,17.44-17.36,1.46-1.56,2.13-4.42,2.14-6.69q.18-58.93.1-117.88c0-1.82.07-3.65.12-5.48l6.11,1.08c0,40.82-.24,81.63,0,122.44a14.28,14.28,0,0,1-4.58,11c-7.31,7.23-14.89,14.19-22.07,21.54-1.24,1.26-1.46,3.91-1.46,5.92q-.12,99.45-.07,198.91C650.61,2865.39,650.57,2867.55,650.54,2869.72Z" transform="translate(-179.29 -1322.48)"/><path class="cls-2" d="M487.46,1526.27l-4.74-.18c-.06-1.66-.17-3.32-.17-5q0-96.7,0-193.41v-5.19h4.54c.15.29.43.57.43.86Q487.5,1424.82,487.46,1526.27Z" transform="translate(-179.29 -1322.48)"/></svg>