<svg id="Layer_1" data-name="Layer 1" xmlns="http://www.w3.org/2000/svg" viewBox="0 0 545.16 1305.11"><defs><style>.cls-1{fill:none;}</style></defs><g id="Layer_1-2" data-name="Layer 1"><path class="cls-1" d="M129.18,968.38a87.73,87.73,0,0,0-36.5,1c-.12,2-.19,3.73-.33,6.67,14-4.39,27.23-4.55,40.63-.15C133.26,972.12,133.86,969.22,129.18,968.38Z" transform="translate(-41.06)"/><path class="cls-1" d="M124.52,663a66.26,66.26,0,0,0-12.23-43c-5.84-8.3-13.69-14.37-22-20-3.28-2.21-6.75-1.2-9.54.94-4.69,3.6-9.16,7.5-13.55,11.47-10,9.06-16.27,20.63-17.74,33.7-1.35,12.63-.23,25.52-.23,39.11,24.55-13.12,49.74-13.13,75.22.32C124.45,677.33,124.13,670.17,124.52,663Z" transform="translate(-41.06)"/><path class="cls-1" d="M540,591.06c4.09.21,4.87-2.29,5.41-5.25-.32-3.37-1.2-5.88-5.23-5.9s-5.16,2.31-5,5.74C535.28,588.72,536.25,590.85,540,591.06Z" transform="translate(-41.06)"/><path class="cls-1" d="M151.43,951.56c.65-18.29-2.17-35.71-15-49.68-6.22-6.78-13.81-12.36-21.16-18-1.29-1-5-.2-6.69,1-4.64,3.17-8.81,7-13.19,10.56-9.76,7.87-16.46,18.36-18.41,30.2-2.37,14.41-1.77,29.31-2.5,45,26.22-14.64,51.32-13.81,77-.49C151.43,963.15,151.25,957.35,151.43,951.56Z" transform="translate(-41.06)"/><path class="cls-1" d="M578.43,685.87c-.66-14.87-.71-28.47-2-42-.89-9.12-5.46-17.09-11.1-24.48a80.76,80.76,0,0,0-17.84-16.88c-5.74-4.09-7.57-4.73-13-1.52a18.94,18.94,0,0,0-3.14,2.79c-6.17,5.8-13.19,10.94-18.27,17.57-7.19,9.38-10.15,21-11.32,32.59-1,10.18-.21,20.55-.21,31.91C526.92,672.46,552.08,671.8,578.43,685.87Z" transform="translate(-41.06)"/><path class="cls-1" d="M85.81,591c3.84-.38,6.27-1.84,6.38-5.27.12-3.64-1.91-5.83-5.74-5.76-3.39,0-5.61,1.57-5.76,5.25C80.56,589.15,83.4,590,85.81,591Z" transform="translate(-41.06)"/><path class="cls-1" d="M306.36,346h-1.49l-38.56,79h78.55C331.86,398.19,319.08,372.07,306.36,346Z" transform="translate(-41.06)"/><path class="cls-1" d="M305.79,334.64a5.78,5.78,0,0,0,5.56-5.86c.12-4.37-2.74-5.23-6-5.3-3.41-.08-5.65,1.52-5.09,5.26C299.83,333.06,303.19,334.74,305.79,334.64Z" transform="translate(-41.06)"/><path class="cls-1" d="M87.27,988.61c0-1.22-.17-2.44-.33-4.65L68.61,995.68c-1.22-4.59-.28-8.33,3.62-10.7a73.22,73.22,0,0,1,10.21-5.12c3.62-1.49,5.94-3.39,4.16-8.49l-18.32,11.5c0-12.24.39-24.24-.09-36.2-.73-18.34,4.17-34.74,15.47-49.17,7.41-9.45,16.75-16.6,27.45-22.66" transform="translate(-41.06)"/><path class="cls-1" d="M95.35,1285.67v-6.28l-.17,0,.17,0v-.24l-20,12.3c0-12.32.11-24.63,0-36.94-.17-15.87,3.28-30.5,12.35-43.92,6.24-9.32,14.41-16.39,23.61-23.12-6-6.6-4.15-16.2,3.27-19.8" transform="translate(-41.06)"/><path class="cls-1" d="M111.11,690.79,105,684.64a81.29,81.29,0,0,0-38.11.46,25.2,25.2,0,0,1,.43,3" transform="translate(-41.06)"/><path class="cls-1" d="M520.28,687.93c0,1,.11,1.93.19,3.33,13.3-4.28,26.42-3.94,39.66-.1v-6c-12.43-3.44-31.74-3.24-39.86.33Z" transform="translate(-41.06)"/><path class="cls-1" d="M116,1193.38a67.23,67.23,0,0,0-9.55,6.88c-7.54,6-13.93,13.13-17.77,21.85-3.23,7.33-6.08,15.24-6.9,23.12-1.16,11.12-.29,22.44-.29,34.2,25.53-14.43,50.61-14.43,76.23-.73v-25.46c.07-12.38-1.81-24-8.47-35s-16-18.86-26.48-25.6C121.21,1191.64,117.87,1192.35,116,1193.38Z" transform="translate(-41.06)"/><path class="cls-1" d="M115.06,1178.59c-.12,3.48.88,6,5.17,5,4.7,1.09,5-2.39,5-5.31s-1.36-5.39-5-5.43C116.3,1172.87,115.16,1175.3,115.06,1178.59Z" transform="translate(-41.06)"/><path class="cls-1" d="M303.38,1186.08c8.2,3.52,16,6,22.79,10,9.62,5.75,16.78,14.66,18,25.81,1.55,14.66,1,29.54,1.24,44.33.08,4.27,0,8.54,0,13.27H327.86c-.35.63-.5.78-.5.92" transform="translate(-41.06)"/><path class="cls-1" d="M501.33,974.56v-5.34a81.69,81.69,0,0,0-40,.27" transform="translate(-41.06)"/><path class="cls-1" d="M448.31,1292.59l-20.75,12.52c.78-3.63.44-7.48,2.07-8.68,5.56-4.11,11.81-7.28,18.34-11.14v-5.73L428,1292c1.87-20.13-2.14-40,3.16-59.62,2.32-8.58,5.72-16.69,10.85-23.42,6.2-8.14,14.42-14.74,22-22.22-5-11.67-3.79-15.55,7.35-20.53v-5.9" transform="translate(-41.06)"/><path class="cls-1" d="M468.05,1178.24c-.17,3.79,1.51,5.81,4.41,5.7h0c4.91.23,7-2.64,6.57-5.51-.27-2-3.2-4.86-5.34-5.27C471,1172.65,468.22,1174.45,468.05,1178.24Z" transform="translate(-41.06)"/><path class="cls-1" d="M469.55,1193.24a179.26,179.26,0,0,0-18.41,15.63c-7.71,7.71-13.06,17.41-14.39,28-1.68,13.78-1.3,27.8-1.84,42.39h0c26.27-14.13,51.29-14.33,77,.13-1.1-16.17,1.78-31.61-3.07-46.81-3.1-9.76-7.54-18.54-15.09-25.45a195.42,195.42,0,0,0-17.52-14.33C474.78,1191.8,471.09,1192.07,469.55,1193.24Z" transform="translate(-41.06)"/><path class="cls-1" d="M488.31,1276.84q-14.85,0-29.7.07c-4.46,0-6.05,2.32-4.9,7.66,13.2-3.87,26.26-4.11,39.21-.15C493.8,1279.54,492.86,1276.84,488.31,1276.84Z" transform="translate(-41.06)"/><path class="cls-1" d="M463.22,896.09c-9.61,8.32-15.94,19.1-17.86,31.28-2.09,13.54-1.8,27.48-2.6,42.73,13.36-5.7,25.35-10.28,38.67-10.35,13.57-.06,25.79,4.6,38.23,10,0-11.7.77-22.55-.27-33.23-.7-7.16-3.78-14.14-6.1-21.1-4.59-13.77-15.78-21.92-26.52-30.33a7.71,7.71,0,0,0-10-.19C472.15,888.5,467.65,892.26,463.22,896.09Z" transform="translate(-41.06)"/><path class="cls-1" d="M484.39,874.68c4.8,3.5,9,6.63,13.3,9.68,9.52,6.77,17.14,15.43,21.59,26,3.71,8.87,6.85,18.46,7.66,27.95,1.26,14.84.33,29.87.33,45.08l-19.88-12.65" transform="translate(-41.06)"/><path class="cls-1" d="M560.45,703.06c0-4.11-1.2-6.4-5.44-6.43-9.77-.06-19.54,0-29.31-.1-4.29,0-5.46,2-5.39,6.18" transform="translate(-41.06)"/><path class="cls-1" d="M344.33,690.61c0-1.25-.21-2.5-.3-3.59H303.56" transform="translate(-41.06)"/><path class="cls-1" d="M456.32,970.76,436,983.51c1.74-20-2.19-39.67,3.24-59.08a78.64,78.64,0,0,1,12.24-25.49c7.44-10.28,17.27-17.39,27.83-23.84" transform="translate(-41.06)"/><path class="cls-1" d="M362.85,648.81a128.14,128.14,0,0,0-2.87-20.9,25.14,25.14,0,0,0-5-10.32c-9.75-11.85-22.6-16.32-37.7-14.45A36,36,0,0,0,295.72,614c-8.13,8.19-10.89,18.22-10.66,29.44.17,7.82,0,15.65,0,23.48v12.56H363C363,668.78,363.32,658.78,362.85,648.81Z" transform="translate(-41.06)"/><path class="cls-1" d="M339.41,1240.06a81.6,81.6,0,0,0-2.24-17.67c-3.56-13.87-13.6-21.77-26.75-25.41a37.86,37.86,0,0,0-26.24,2.27c-9.38,4.25-16.65,10.87-19.42,20.61-4.86,17.08-2.93,34.74-3.08,52.63H339.5C339.5,1261.61,339.75,1250.82,339.41,1240.06Z" transform="translate(-41.06)"/><path class="cls-1" d="M151.43,951.56c.65-18.29-2.17-35.71-15-49.68-6.22-6.78-13.81-12.36-21.16-18-1.29-1-5-.2-6.69,1-4.64,3.17-8.81,7-13.19,10.56-9.76,7.87-16.46,18.36-18.41,30.2-2.37,14.41-1.77,29.31-2.5,45,26.22-14.64,51.32-13.81,77-.49C151.43,963.15,151.25,957.35,151.43,951.56Z" transform="translate(-41.06)"/><path class="cls-1" d="M49.23,685.28v0l0,0Z" transform="translate(-41.06)"/><path class="cls-1" d="M124.52,663a66.26,66.26,0,0,0-12.23-43c-5.84-8.3-13.69-14.37-22-20-3.28-2.21-6.75-1.2-9.54.94-4.69,3.6-9.16,7.5-13.55,11.47-10,9.06-16.27,20.63-17.74,33.7-1.35,12.63-.23,25.52-.23,39.11,24.55-13.12,49.74-13.13,75.22.32C124.45,677.33,124.13,670.17,124.52,663Z" transform="translate(-41.06)"/><path class="cls-1" d="M129.18,968.38a87.73,87.73,0,0,0-36.5,1c-.12,2-.19,3.73-.33,6.67,14-4.39,27.23-4.55,40.63-.15C133.26,972.12,133.86,969.22,129.18,968.38Z" transform="translate(-41.06)"/><path class="cls-1" d="M540,591.06c4.09.21,4.87-2.29,5.41-5.25-.32-3.37-1.2-5.88-5.23-5.9s-5.16,2.31-5,5.74C535.28,588.72,536.25,590.85,540,591.06Z" transform="translate(-41.06)"/><path class="cls-1" d="M545.41,585.8h0v0Z" transform="translate(-41.06)"/><path class="cls-1" d="M578.46,685.89l0,0v0Z" transform="translate(-41.06)"/><path class="cls-1" d="M85.81,591c3.84-.38,6.27-1.84,6.38-5.27.12-3.64-1.91-5.83-5.74-5.76-3.39,0-5.61,1.57-5.76,5.25C80.56,589.15,83.4,590,85.81,591Z" transform="translate(-41.06)"/><path class="cls-1" d="M115.06,1178.59c-.12,3.48.88,6,5.17,5,4.7,1.09,5-2.39,5-5.31s-1.36-5.39-5-5.43C116.3,1172.87,115.16,1175.3,115.06,1178.59Z" transform="translate(-41.06)"/><path class="cls-1" d="M87.27,988.61c0-1.22-.17-2.44-.33-4.65L68.61,995.68c-1.22-4.59-.28-8.33,3.62-10.7a73.22,73.22,0,0,1,10.21-5.12c3.62-1.49,5.94-3.39,4.16-8.49l-18.32,11.5c0-12.24.39-24.24-.09-36.2-.73-18.34,4.17-34.74,15.47-49.17,7.41-9.45,16.75-16.6,27.45-22.66" transform="translate(-41.06)"/><path class="cls-1" d="M95.35,1285.67v-6.52l-20,12.3c0-12.32.11-24.63,0-36.94-.17-15.87,3.28-30.5,12.35-43.92,6.24-9.32,14.41-16.39,23.61-23.12-6-6.6-4.15-16.2,3.27-19.8a5.87,5.87,0,0,0,1.25-1.13l-1.69,0,1.69,0" transform="translate(-41.06)"/><path class="cls-1" d="M105,684.64a81.29,81.29,0,0,0-38.11.46,25.2,25.2,0,0,1,.43,3" transform="translate(-41.06)"/><path class="cls-1" d="M305.79,334.64a5.78,5.78,0,0,0,5.56-5.86c.12-4.37-2.74-5.23-6-5.3-3.41-.08-5.65,1.52-5.09,5.26C299.83,333.06,303.19,334.74,305.79,334.64Z" transform="translate(-41.06)"/><path class="cls-1" d="M306.36,346h-1.49l-38.56,79h78.55C331.86,398.19,319.08,372.07,306.36,346Z" transform="translate(-41.06)"/><path class="cls-1" d="M116,1193.38a67.23,67.23,0,0,0-9.55,6.88c-7.54,6-13.93,13.13-17.77,21.85-3.23,7.33-6.08,15.24-6.9,23.12-1.16,11.12-.29,22.44-.29,34.2,25.53-14.43,50.61-14.43,76.23-.73v-25.46c.07-12.38-1.81-24-8.47-35s-16-18.86-26.48-25.6C121.21,1191.64,117.87,1192.35,116,1193.38Z" transform="translate(-41.06)"/><path class="cls-1" d="M303.38,1186.08c8.2,3.52,16,6,22.79,10,9.62,5.75,16.78,14.66,18,25.81,1.55,14.66,1,29.54,1.24,44.33.08,4.27,0,8.54,0,13.27H327.86c-.35.63-.5.78-.5.92" transform="translate(-41.06)"/><path class="cls-1" d="M501.33,974.56v-5.34a81.69,81.69,0,0,0-40,.27" transform="translate(-41.06)"/><path class="cls-1" d="M448.31,1292.59l-20.75,12.52c.78-3.63.44-7.48,2.07-8.68,5.56-4.11,11.81-7.28,18.34-11.14v-5.73L428,1292c1.87-20.13-2.14-40,3.16-59.62,2.32-8.58,5.72-16.69,10.85-23.42,6.2-8.14,14.42-14.74,22-22.22-5-11.67-3.79-15.55,7.35-20.53v-5.9" transform="translate(-41.06)"/><path class="cls-1" d="M468.05,1178.24c-.17,3.79,1.51,5.81,4.41,5.7h0c4.91.23,7-2.64,6.57-5.51-.27-2-3.2-4.86-5.34-5.27C471,1172.65,468.22,1174.45,468.05,1178.24Z" transform="translate(-41.06)"/><path class="cls-1" d="M488.31,1276.84q-14.85,0-29.7.07c-4.46,0-6.05,2.32-4.9,7.66,13.2-3.87,26.26-4.11,39.21-.15C493.8,1279.54,492.86,1276.84,488.31,1276.84Z" transform="translate(-41.06)"/><path class="cls-1" d="M469.55,1193.24a179.26,179.26,0,0,0-18.41,15.63c-7.71,7.71-13.06,17.41-14.39,28-1.68,13.78-1.3,27.8-1.84,42.39h0c26.27-14.13,51.29-14.33,77,.13-1.1-16.17,1.78-31.61-3.07-46.81-3.1-9.76-7.54-18.54-15.09-25.45a195.42,195.42,0,0,0-17.52-14.33C474.78,1191.8,471.09,1192.07,469.55,1193.24Z" transform="translate(-41.06)"/><path class="cls-1" d="M484.39,874.68c4.8,3.5,9,6.63,13.3,9.68,9.52,6.77,17.14,15.43,21.59,26,3.71,8.87,6.85,18.46,7.66,27.95,1.26,14.84.33,29.87.33,45.08l-19.88-12.65" transform="translate(-41.06)"/><path class="cls-1" d="M560.45,703.06c0-4.11-1.2-6.4-5.44-6.43-9.77-.06-19.54,0-29.31-.1-4.29,0-5.46,2-5.39,6.18" transform="translate(-41.06)"/><path class="cls-1" d="M463.22,896.09c-9.61,8.32-15.94,19.1-17.86,31.28-2.09,13.54-1.8,27.48-2.6,42.73,13.36-5.7,25.35-10.28,38.67-10.35,13.57-.06,25.79,4.6,38.23,10,0-11.7.77-22.55-.27-33.23-.7-7.16-3.78-14.14-6.1-21.1-4.59-13.77-15.78-21.92-26.52-30.33a7.71,7.71,0,0,0-10-.19C472.15,888.5,467.65,892.26,463.22,896.09Z" transform="translate(-41.06)"/><path class="cls-1" d="M520.28,687.93c0,1,.11,1.93.19,3.33,13.3-4.28,26.42-3.94,39.66-.1v-6c-12.43-3.44-31.74-3.24-39.86.33Z" transform="translate(-41.06)"/><path class="cls-1" d="M344.33,690.61c0-1.25-.21-2.5-.3-3.59H303.56" transform="translate(-41.06)"/><path class="cls-1" d="M456.32,970.76,436,983.51c1.74-20-2.19-39.67,3.24-59.08a78.64,78.64,0,0,1,12.24-25.49c7.44-10.28,17.27-17.39,27.83-23.84" transform="translate(-41.06)"/><path class="cls-1" d="M578.43,685.87c-.66-14.87-.71-28.47-2-42-.89-9.12-5.46-17.09-11.1-24.48a80.76,80.76,0,0,0-17.84-16.88c-5.74-4.09-7.57-4.73-13-1.52a18.94,18.94,0,0,0-3.14,2.79c-6.17,5.8-13.19,10.94-18.27,17.57-7.19,9.38-10.15,21-11.32,32.59-1,10.18-.21,20.55-.21,31.91C526.92,672.46,552.08,671.8,578.43,685.87Z" transform="translate(-41.06)"/><path class="cls-1" d="M339.41,1240.06a81.6,81.6,0,0,0-2.24-17.67c-3.56-13.87-13.6-21.77-26.75-25.41a37.86,37.86,0,0,0-26.24,2.27c-9.38,4.25-16.65,10.87-19.42,20.61-4.86,17.08-2.93,34.74-3.08,52.63H339.5C339.5,1261.61,339.75,1250.82,339.41,1240.06Z" transform="translate(-41.06)"/><path class="cls-1" d="M362.85,648.81a128.14,128.14,0,0,0-2.87-20.9,25.14,25.14,0,0,0-5-10.32c-9.75-11.85-22.6-16.32-37.7-14.45A36,36,0,0,0,295.72,614c-8.13,8.19-10.89,18.22-10.66,29.44.17,7.82,0,15.65,0,23.48v12.56H363C363,668.78,363.32,658.78,362.85,648.81Z" transform="translate(-41.06)"/><path class="cls-1" d="M545.41,585.8h0v0Z" transform="translate(-41.06)"/><path class="cls-1" d="M151.43,951.56c.65-18.29-2.17-35.71-15-49.68-6.22-6.78-13.81-12.36-21.16-18-1.29-1-5-.2-6.69,1-4.64,3.17-8.81,7-13.19,10.56-9.76,7.87-16.46,18.36-18.41,30.2-2.37,14.41-1.77,29.31-2.5,45,26.22-14.64,51.32-13.81,77-.49C151.43,963.15,151.25,957.35,151.43,951.56Z" transform="translate(-41.06)"/><path class="cls-1" d="M520.28,687.93c0,1,.11,1.93.19,3.33,13.3-4.28,26.42-3.94,39.66-.1v-6c-12.43-3.44-31.74-3.24-39.86.33Z" transform="translate(-41.06)"/><path class="cls-1" d="M578.43,685.87c-.66-14.87-.71-28.47-2-42-.89-9.12-5.46-17.09-11.1-24.48a80.76,80.76,0,0,0-17.84-16.88c-5.74-4.09-7.57-4.73-13-1.52a18.94,18.94,0,0,0-3.14,2.79c-6.17,5.8-13.19,10.94-18.27,17.57-7.19,9.38-10.15,21-11.32,32.59-1,10.18-.21,20.55-.21,31.91C526.92,672.46,552.08,671.8,578.43,685.87Z" transform="translate(-41.06)"/><path class="cls-1" d="M578.46,685.89l0,0v0Z" transform="translate(-41.06)"/><path class="cls-1" d="M129.18,968.38a87.73,87.73,0,0,0-36.5,1c-.12,2-.19,3.73-.33,6.67,14-4.39,27.23-4.55,40.63-.15C133.26,972.12,133.86,969.22,129.18,968.38Z" transform="translate(-41.06)"/><path class="cls-1" d="M540,591.06c4.09.21,4.87-2.29,5.41-5.25-.32-3.37-1.2-5.88-5.23-5.9s-5.16,2.31-5,5.74C535.28,588.72,536.25,590.85,540,591.06Z" transform="translate(-41.06)"/><path class="cls-1" d="M124.52,663a66.26,66.26,0,0,0-12.23-43c-5.84-8.3-13.69-14.37-22-20-3.28-2.21-6.75-1.2-9.54.94-4.69,3.6-9.16,7.5-13.55,11.47-10,9.06-16.27,20.63-17.74,33.7-1.35,12.63-.23,25.52-.23,39.11,24.55-13.12,49.74-13.13,75.22.32C124.45,677.33,124.13,670.17,124.52,663Z" transform="translate(-41.06)"/><path class="cls-1" d="M305.79,334.64a5.78,5.78,0,0,0,5.56-5.86c.12-4.37-2.74-5.23-6-5.3-3.41-.08-5.65,1.52-5.09,5.26C299.83,333.06,303.19,334.74,305.79,334.64Z" transform="translate(-41.06)"/><path class="cls-1" d="M306.36,346h-1.49l-38.56,79h78.55C331.86,398.19,319.08,372.07,306.36,346Z" transform="translate(-41.06)"/><path class="cls-1" d="M49.23,685.28v0l0,0Z" transform="translate(-41.06)"/><path class="cls-1" d="M85.81,591c3.84-.38,6.27-1.84,6.38-5.27.12-3.64-1.91-5.83-5.74-5.76-3.39,0-5.61,1.57-5.76,5.25C80.56,589.15,83.4,590,85.81,591Z" transform="translate(-41.06)"/><path class="cls-1" d="M303.38,1186.08c8.2,3.52,16,6,22.79,10,9.62,5.75,16.78,14.66,18,25.81,1.55,14.66,1,29.54,1.24,44.33.08,4.27,0,8.54,0,13.27H327.86c-.35.63-.5.78-.5.92" transform="translate(-41.06)"/><path class="cls-1" d="M501.33,974.56v-5.34a81.69,81.69,0,0,0-40,.27" transform="translate(-41.06)"/><path class="cls-1" d="M448.31,1292.59l-20.75,12.52c.78-3.63.44-7.48,2.07-8.68,5.56-4.11,11.81-7.28,18.34-11.14v-5.73L428,1292c1.87-20.13-2.14-40,3.16-59.62,2.32-8.58,5.72-16.69,10.85-23.42,6.2-8.14,14.42-14.74,22-22.22-5-11.67-3.79-15.55,7.35-20.53v-5.9" transform="translate(-41.06)"/><path class="cls-1" d="M468.05,1178.24c-.17,3.79,1.51,5.81,4.41,5.7h0c4.91.23,7-2.64,6.57-5.51-.27-2-3.2-4.86-5.34-5.27C471,1172.65,468.22,1174.45,468.05,1178.24Z" transform="translate(-41.06)"/><path class="cls-1" d="M484.39,874.68c4.8,3.5,9,6.63,13.3,9.68,9.52,6.77,17.14,15.43,21.59,26,3.71,8.87,6.85,18.46,7.66,27.95,1.26,14.84.33,29.87.33,45.08l-19.88-12.65" transform="translate(-41.06)"/><path class="cls-1" d="M560.45,703.06c0-4.11-1.2-6.4-5.44-6.43-9.77-.06-19.54,0-29.31-.1-4.29,0-5.46,2-5.39,6.18" transform="translate(-41.06)"/><path class="cls-1" d="M469.55,1193.24a179.26,179.26,0,0,0-18.41,15.63c-7.71,7.71-13.06,17.41-14.39,28-1.68,13.78-1.3,27.8-1.84,42.39h0c26.27-14.13,51.29-14.33,77,.13-1.1-16.17,1.78-31.61-3.07-46.81-3.1-9.76-7.54-18.54-15.09-25.45a195.42,195.42,0,0,0-17.52-14.33C474.78,1191.8,471.09,1192.07,469.55,1193.24Z" transform="translate(-41.06)"/><path class="cls-1" d="M339.41,1240.06a81.6,81.6,0,0,0-2.24-17.67c-3.56-13.87-13.6-21.77-26.75-25.41a37.86,37.86,0,0,0-26.24,2.27c-9.38,4.25-16.65,10.87-19.42,20.61-4.86,17.08-2.93,34.74-3.08,52.63H339.5C339.5,1261.61,339.75,1250.82,339.41,1240.06Z" transform="translate(-41.06)"/><path class="cls-1" d="M362.85,648.81a128.14,128.14,0,0,0-2.87-20.9,25.14,25.14,0,0,0-5-10.32c-9.75-11.85-22.6-16.32-37.7-14.45A36,36,0,0,0,295.72,614c-8.13,8.19-10.89,18.22-10.66,29.44.17,7.82,0,15.65,0,23.48v12.56H363C363,668.78,363.32,658.78,362.85,648.81Z" transform="translate(-41.06)"/><path class="cls-1" d="M344.33,690.61c0-1.25-.21-2.5-.3-3.59H303.56" transform="translate(-41.06)"/><path class="cls-1" d="M456.32,970.76,436,983.51c1.74-20-2.19-39.67,3.24-59.08a78.64,78.64,0,0,1,12.24-25.49c7.44-10.28,17.27-17.39,27.83-23.84" transform="translate(-41.06)"/><path class="cls-1" d="M463.22,896.09c-9.61,8.32-15.94,19.1-17.86,31.28-2.09,13.54-1.8,27.48-2.6,42.73,13.36-5.7,25.35-10.28,38.67-10.35,13.57-.06,25.79,4.6,38.23,10,0-11.7.77-22.55-.27-33.23-.7-7.16-3.78-14.14-6.1-21.1-4.59-13.77-15.78-21.92-26.52-30.33a7.71,7.71,0,0,0-10-.19C472.15,888.5,467.65,892.26,463.22,896.09Z" transform="translate(-41.06)"/><path class="cls-1" d="M488.31,1276.84q-14.85,0-29.7.07c-4.46,0-6.05,2.32-4.9,7.66,13.2-3.87,26.26-4.11,39.21-.15C493.8,1279.54,492.86,1276.84,488.31,1276.84Z" transform="translate(-41.06)"/><path class="cls-1" d="M305.79,334.64a5.78,5.78,0,0,0,5.56-5.86c.12-4.37-2.74-5.23-6-5.3-3.41-.08-5.65,1.52-5.09,5.26C299.83,333.06,303.19,334.74,305.79,334.64Z" transform="translate(-41.06)"/><path class="cls-1" d="M306.36,346h-1.49l-38.56,79h78.55C331.86,398.19,319.08,372.07,306.36,346Z" transform="translate(-41.06)"/><path class="cls-1" d="M540,591.06c4.09.21,4.87-2.29,5.41-5.25-.32-3.37-1.2-5.88-5.23-5.9s-5.16,2.31-5,5.74C535.28,588.72,536.25,590.85,540,591.06Z" transform="translate(-41.06)"/><path class="cls-1" d="M578.46,685.89l0,0v0Z" transform="translate(-41.06)"/><path class="cls-1" d="M545.41,585.8h0v0Z" transform="translate(-41.06)"/><path class="cls-1" d="M129.18,968.38a87.73,87.73,0,0,0-36.5,1c-.12,2-.19,3.73-.33,6.67,14-4.39,27.23-4.55,40.63-.15C133.26,972.12,133.86,969.22,129.18,968.38Z" transform="translate(-41.06)"/><path class="cls-1" d="M578.43,685.87c-.66-14.87-.71-28.47-2-42-.89-9.12-5.46-17.09-11.1-24.48a80.76,80.76,0,0,0-17.84-16.88c-5.74-4.09-7.57-4.73-13-1.52a18.94,18.94,0,0,0-3.14,2.79c-6.17,5.8-13.19,10.94-18.27,17.57-7.19,9.38-10.15,21-11.32,32.59-1,10.18-.21,20.55-.21,31.91C526.92,672.46,552.08,671.8,578.43,685.87Z" transform="translate(-41.06)"/><path class="cls-1" d="M85.81,591c3.84-.38,6.27-1.84,6.38-5.27.12-3.64-1.91-5.83-5.74-5.76-3.39,0-5.61,1.57-5.76,5.25C80.56,589.15,83.4,590,85.81,591Z" transform="translate(-41.06)"/><path class="cls-1" d="M124.52,663a66.26,66.26,0,0,0-12.23-43c-5.84-8.3-13.69-14.37-22-20-3.28-2.21-6.75-1.2-9.54.94-4.69,3.6-9.16,7.5-13.55,11.47-10,9.06-16.27,20.63-17.74,33.7-1.35,12.63-.23,25.52-.23,39.11,24.55-13.12,49.74-13.13,75.22.32C124.45,677.33,124.13,670.17,124.52,663Z" transform="translate(-41.06)"/><path class="cls-1" d="M151.43,970.15c0-7-.18-12.8,0-18.59.65-18.29-2.17-35.71-15-49.68-6.22-6.78-13.81-12.36-21.16-18-1.29-1-5-.2-6.69,1-4.64,3.17-8.81,7-13.19,10.56-9.76,7.87-16.46,18.36-18.41,30.2-2.37,14.41-1.77,29.31-2.5,45C100.7,956,125.8,956.83,151.43,970.15Z" transform="translate(-41.06)"/><path class="cls-1" d="M49.23,685.28v0l0,0Z" transform="translate(-41.06)"/><path class="cls-1" d="M469.55,1193.24a179.26,179.26,0,0,0-18.41,15.63c-7.71,7.71-13.06,17.41-14.39,28-1.68,13.78-1.3,27.8-1.84,42.39h0c26.27-14.13,51.29-14.33,77,.13-1.1-16.17,1.78-31.61-3.07-46.81-3.1-9.76-7.54-18.54-15.09-25.45a195.42,195.42,0,0,0-17.52-14.33C474.78,1191.8,471.09,1192.07,469.55,1193.24Z" transform="translate(-41.06)"/><path class="cls-1" d="M520.28,687.93c0,1,.11,1.93.19,3.33,13.3-4.28,26.42-3.94,39.66-.1v-6c-12.43-3.44-31.74-3.24-39.86.33Z" transform="translate(-41.06)"/><path class="cls-1" d="M468.05,1178.24c-.17,3.79,1.51,5.81,4.41,5.7h0c4.91.23,7-2.64,6.57-5.51-.27-2-3.2-4.86-5.34-5.27C471,1172.65,468.22,1174.45,468.05,1178.24Z" transform="translate(-41.06)"/><path class="cls-1" d="M488.31,1276.84q-14.85,0-29.7.07c-4.46,0-6.05,2.32-4.9,7.66,13.2-3.87,26.26-4.11,39.21-.15C493.8,1279.54,492.86,1276.84,488.31,1276.84Z" transform="translate(-41.06)"/><path class="cls-1" d="M484.39,874.68c4.8,3.5,9,6.63,13.3,9.68,9.52,6.77,17.14,15.43,21.59,26,3.71,8.87,6.85,18.46,7.66,27.95,1.26,14.84.33,29.87.33,45.08l-19.88-12.65" transform="translate(-41.06)"/><path class="cls-1" d="M560.45,703.06c0-4.11-1.2-6.4-5.44-6.43-9.77-.06-19.54,0-29.31-.1-4.29,0-5.46,2-5.39,6.18" transform="translate(-41.06)"/><path class="cls-1" d="M303.38,1186.08c8.2,3.52,16,6,22.79,10,9.62,5.75,16.78,14.66,18,25.81,1.55,14.66,1,29.54,1.24,44.33.08,4.27,0,8.54,0,13.27H327.86c-.35.63-.5.78-.5.92" transform="translate(-41.06)"/><path class="cls-1" d="M501.33,974.56v-5.34a81.69,81.69,0,0,0-40,.27" transform="translate(-41.06)"/><path class="cls-1" d="M448.31,1292.59l-20.75,12.52c.78-3.63.44-7.48,2.07-8.68,5.56-4.11,11.81-7.28,18.34-11.14v-5.73L428,1292c1.87-20.13-2.14-40,3.16-59.62,2.32-8.58,5.72-16.69,10.85-23.42,6.2-8.14,14.42-14.74,22-22.22-5-11.67-3.79-15.55,7.35-20.53v-5.9" transform="translate(-41.06)"/><path class="cls-1" d="M344.33,690.61c0-1.25-.21-2.5-.3-3.59H303.56" transform="translate(-41.06)"/><path class="cls-1" d="M456.32,970.76,436,983.51c1.74-20-2.19-39.67,3.24-59.08a78.64,78.64,0,0,1,12.24-25.49c7.44-10.28,17.27-17.39,27.83-23.84" transform="translate(-41.06)"/><path class="cls-1" d="M362.85,648.81a128.14,128.14,0,0,0-2.87-20.9,25.14,25.14,0,0,0-5-10.32c-9.75-11.85-22.6-16.32-37.7-14.45A36,36,0,0,0,295.72,614c-8.13,8.19-10.89,18.22-10.66,29.44.17,7.82,0,15.65,0,23.48v12.56H363C363,668.78,363.32,658.78,362.85,648.81Z" transform="translate(-41.06)"/><path class="cls-1" d="M463.22,896.09c-9.61,8.32-15.94,19.1-17.86,31.28-2.09,13.54-1.8,27.48-2.6,42.73,13.36-5.7,25.35-10.28,38.67-10.35,13.57-.06,25.79,4.6,38.23,10,0-11.7.77-22.55-.27-33.23-.7-7.16-3.78-14.14-6.1-21.1-4.59-13.77-15.78-21.92-26.52-30.33a7.71,7.71,0,0,0-10-.19C472.15,888.5,467.65,892.26,463.22,896.09Z" transform="translate(-41.06)"/><path class="cls-1" d="M339.41,1240.06a81.6,81.6,0,0,0-2.24-17.67c-3.56-13.87-13.6-21.77-26.75-25.41a37.86,37.86,0,0,0-26.24,2.27c-9.38,4.25-16.65,10.87-19.42,20.61-4.86,17.08-2.93,34.74-3.08,52.63H339.5C339.5,1261.61,339.75,1250.82,339.41,1240.06Z" transform="translate(-41.06)"/><path class="cls-1" d="M85.81,591c3.84-.38,6.27-1.84,6.38-5.27.12-3.64-1.91-5.83-5.74-5.76-3.39,0-5.61,1.57-5.76,5.25C80.56,589.15,83.4,590,85.81,591Z" transform="translate(-41.06)"/><path class="cls-1" d="M108.58,884.88c-4.64,3.17-8.81,7-13.19,10.56-9.76,7.87-16.46,18.36-18.41,30.2-2.37,14.41-1.77,29.31-2.5,45,26.22-14.64,51.32-13.81,77-.49,0-7-.18-12.8,0-18.59.65-18.29-2.17-35.71-15-49.68-6.22-6.78-13.81-12.36-21.16-18C114,882.88,110.32,883.68,108.58,884.88Z" transform="translate(-41.06)"/><path class="cls-1" d="M49.23,685.28v0l0,0Z" transform="translate(-41.06)"/><path class="cls-1" d="M129.18,968.38a87.73,87.73,0,0,0-36.5,1c-.12,2-.19,3.73-.33,6.67,14-4.39,27.23-4.55,40.63-.15C133.26,972.12,133.86,969.22,129.18,968.38Z" transform="translate(-41.06)"/><path class="cls-1" d="M124.45,685.58c0-8.25-.32-15.41.07-22.54a66.26,66.26,0,0,0-12.23-43c-5.84-8.3-13.69-14.37-22-20-3.28-2.21-6.75-1.2-9.54.94-4.69,3.6-9.16,7.5-13.55,11.47-10,9.06-16.27,20.63-17.74,33.7-1.35,12.63-.23,25.52-.23,39.11C73.78,672.14,99,672.13,124.45,685.58Z" transform="translate(-41.06)"/><path class="cls-1" d="M124.45,685.58c0-8.25-.32-15.41.07-22.54a66.26,66.26,0,0,0-12.23-43c-5.84-8.3-13.69-14.37-22-20-3.28-2.21-6.75-1.2-9.54.94-4.69,3.6-9.16,7.5-13.55,11.47-10,9.06-16.27,20.63-17.74,33.7-1.35,12.63-.23,25.52-.23,39.11C73.78,672.14,99,672.13,124.45,685.58Z" transform="translate(-41.06)"/><path class="cls-1" d="M85.81,591c3.84-.38,6.27-1.84,6.38-5.27.12-3.64-1.91-5.83-5.74-5.76-3.39,0-5.61,1.57-5.76,5.25C80.56,589.15,83.4,590,85.81,591Z" transform="translate(-41.06)"/><path class="cls-1" d="M49.23,685.28v0l0,0Z" transform="translate(-41.06)"/><path class="cls-1" d="M124.45,685.58c0-8.25-.32-15.41.07-22.54a66.26,66.26,0,0,0-12.23-43c-5.84-8.3-13.69-14.37-22-20-3.28-2.21-6.75-1.2-9.54.94-4.69,3.6-9.16,7.5-13.55,11.47-10,9.06-16.27,20.63-17.74,33.7-1.35,12.63-.23,25.52-.23,39.11C73.78,672.14,99,672.13,124.45,685.58Z" transform="translate(-41.06)"/><path class="cls-1" d="M85.81,591c3.84-.38,6.27-1.84,6.38-5.27.12-3.64-1.91-5.83-5.74-5.76-3.39,0-5.61,1.57-5.76,5.25C80.56,589.15,83.4,590,85.81,591Z" transform="translate(-41.06)"/><path class="cls-1" d="M49.23,685.28v0l0,0Z" transform="translate(-41.06)"/><path d="M66.86,685.1a81.29,81.29,0,0,1,38.11-.46l.91.91,10.32,3.22v-.17l15.23,10.25c0-10.18-.25-20.27.06-30.34.44-14.59-.24-29-7.42-42.11a109.73,109.73,0,0,0-13.35-19.21c-4.38-5-10.09-8.86-15.52-13.48,5.23-5,5.21-10.51,1-15.78-1.91-2.37-4.79-4-7.23-6l-4.55.14c-.63.43-1.3.9-2,1.3-8.08,4.64-11.14,11.48-5.32,20.29.13.25-.12.68-.12,1l-.9-.84C69.26,601,62.14,608,55.7,615.46,46,626.78,42.38,640.71,41.49,655.12c-.82,13.48-.21,27-.21,40.48a19.37,19.37,0,0,0,.37,2.94l17.76-11.35.05.09,7.42-2.07S66.87,685.14,66.86,685.1ZM86.45,580c3.83-.07,5.86,2.12,5.74,5.76-.11,3.43-2.54,4.89-6.38,5.27-2.41-1-5.25-1.85-5.12-5.78C80.84,581.54,83.06,580,86.45,580ZM49.23,685.28h0l0,0c0-13.59-1.12-26.48.23-39.11,1.47-13.07,7.74-24.64,17.74-33.7,4.39-4,8.86-7.87,13.55-11.47,2.79-2.14,6.26-3.15,9.54-.94,8.31,5.63,16.16,11.7,22,20a66.26,66.26,0,0,1,12.23,43c-.39,7.13-.07,14.29-.07,22.54-25.48-13.45-50.67-13.44-75.22-.32Z" transform="translate(-41.06)"/><path d="M111.11,874.84c-10.7,6.06-20,13.21-27.45,22.66-11.3,14.43-16.2,30.83-15.47,49.17.48,12,.09,24,.09,36.2l18.32-11.5c1.78,5.1-.54,7-4.16,8.49A73.22,73.22,0,0,0,72.23,985c-3.9,2.37-4.84,6.11-3.62,10.7L86.94,984c0,.08,0,.15,0,.23l7.36-1.93a5.1,5.1,0,0,1,2.85-1c10.56-.46,21.16-.39,31.73,0a4.53,4.53,0,0,1,2.82,1.07l7.6,2v-.13l17.94,11.2c-.13-3.72-.57-7.85-2.85-10.15-2.67-2.69-6.79-4.3-10.57-5.45-4.37-1.3-5.36-3.63-4-8.24l17.51,10.87c0-8.87.08-17.8,0-26.8-.08-13.93,1.67-28.22-5.08-41.22a141.18,141.18,0,0,0-10.71-17.72,63.43,63.43,0,0,0-21-18.22,7.87,7.87,0,0,1-3.65-4h-5.8ZM133,975.9c-13.4-4.4-26.63-4.24-40.63.15.14-2.94.21-4.71.33-6.67a87.73,87.73,0,0,1,36.5-1C133.86,969.22,133.26,972.12,133,975.9Zm3.45-74c12.83,14,15.65,31.39,15,49.68-.18,5.79,0,11.59,0,18.59-25.63-13.32-50.73-14.15-76.95.49.73-15.69.13-30.59,2.5-45,2-11.84,8.65-22.33,18.41-30.2,4.38-3.56,8.55-7.39,13.19-10.56,1.74-1.2,5.4-2,6.69-1C122.62,889.52,130.21,895.1,136.43,901.88Z" transform="translate(-41.06)"/><path class="cls-1" d="M468.05,1178.24c-.17,3.79,1.51,5.81,4.41,5.7h0c4.91.23,7-2.64,6.57-5.51-.27-2-3.2-4.86-5.34-5.27C471,1172.65,468.22,1174.45,468.05,1178.24Z" transform="translate(-41.06)"/><path class="cls-1" d="M545.41,585.8h0v0Z" transform="translate(-41.06)"/><path class="cls-1" d="M540,591.06c4.09.21,4.87-2.29,5.41-5.25-.32-3.37-1.2-5.88-5.23-5.9s-5.16,2.31-5,5.74C535.28,588.72,536.25,590.85,540,591.06Z" transform="translate(-41.06)"/><path class="cls-1" d="M469.55,1193.24a179.26,179.26,0,0,0-18.41,15.63c-7.71,7.71-13.06,17.41-14.39,28-1.68,13.78-1.3,27.8-1.84,42.39h0c26.27-14.13,51.29-14.33,77,.13-1.1-16.17,1.78-31.61-3.07-46.81-3.1-9.76-7.54-18.54-15.09-25.45a195.42,195.42,0,0,0-17.52-14.33C474.78,1191.8,471.09,1192.07,469.55,1193.24Z" transform="translate(-41.06)"/><path class="cls-1" d="M305.79,334.64a5.78,5.78,0,0,0,5.56-5.86c.12-4.37-2.74-5.23-6-5.3-3.41-.08-5.65,1.52-5.09,5.26C299.83,333.06,303.19,334.74,305.79,334.64Z" transform="translate(-41.06)"/><path class="cls-1" d="M578.46,685.89l0,0v0Z" transform="translate(-41.06)"/><path class="cls-1" d="M303.38,1186.08c8.2,3.52,16,6,22.79,10,9.62,5.75,16.78,14.66,18,25.81,1.55,14.66,1,29.54,1.24,44.33.08,4.27,0,8.54,0,13.27H327.86l-.16.27.36,0-.36,0c-.23.39-.34.53-.34.65" transform="translate(-41.06)"/><path class="cls-1" d="M501.33,974.56v-5.34a81.69,81.69,0,0,0-40,.27" transform="translate(-41.06)"/><path class="cls-1" d="M448.31,1292.59l-20.75,12.52c.78-3.63.44-7.48,2.07-8.68,5.56-4.11,11.81-7.28,18.34-11.14v-5.73L428,1292c1.87-20.13-2.14-40,3.16-59.62,2.32-8.58,5.72-16.69,10.85-23.42,6.2-8.14,14.42-14.74,22-22.22-5-11.67-3.79-15.55,7.35-20.53v-5.9" transform="translate(-41.06)"/><path class="cls-1" d="M306.36,346h-1.49l-38.56,79h78.55C331.86,398.19,319.08,372.07,306.36,346Z" transform="translate(-41.06)"/><path class="cls-1" d="M488.31,1276.84q-14.85,0-29.7.07c-4.46,0-6.05,2.32-4.9,7.66,13.2-3.87,26.26-4.11,39.21-.15C493.8,1279.54,492.86,1276.84,488.31,1276.84Z" transform="translate(-41.06)"/><path class="cls-1" d="M344.33,690.61c0-1.25-.21-2.5-.3-3.59H303.56" transform="translate(-41.06)"/><path class="cls-1" d="M456.32,970.76,436,983.51c1.74-20-2.19-39.67,3.24-59.08a78.64,78.64,0,0,1,12.24-25.49c7.44-10.28,17.27-17.39,27.83-23.84" transform="translate(-41.06)"/><path class="cls-1" d="M484.39,874.68c4.8,3.5,9,6.63,13.3,9.68,9.52,6.77,17.14,15.43,21.59,26,3.71,8.87,6.85,18.46,7.66,27.95,1.26,14.84.33,29.87.33,45.08l-19.88-12.65" transform="translate(-41.06)"/><path class="cls-1" d="M560.45,703.06c0-4.11-1.2-6.4-5.44-6.43-9.77-.06-19.54,0-29.31-.1-4.29,0-5.46,2-5.39,6.18" transform="translate(-41.06)"/><path class="cls-1" d="M578.43,685.87c-.66-14.87-.71-28.47-2-42-.89-9.12-5.46-17.09-11.1-24.48a80.76,80.76,0,0,0-17.84-16.88c-5.74-4.09-7.57-4.73-13-1.52a18.94,18.94,0,0,0-3.14,2.79c-6.17,5.8-13.19,10.94-18.27,17.57-7.19,9.38-10.15,21-11.32,32.59-1,10.18-.21,20.55-.21,31.91C526.92,672.46,552.08,671.8,578.43,685.87Z" transform="translate(-41.06)"/><path class="cls-1" d="M519.39,936.52c-.7-7.16-3.78-14.14-6.1-21.1-4.59-13.77-15.78-21.92-26.52-30.33a7.71,7.71,0,0,0-10-.19c-4.62,3.6-9.12,7.36-13.55,11.19-9.61,8.32-15.94,19.1-17.86,31.28-2.09,13.54-1.8,27.48-2.6,42.73,13.36-5.7,25.35-10.28,38.67-10.35,13.57-.06,25.79,4.6,38.23,10C519.66,958.05,520.43,947.2,519.39,936.52Z" transform="translate(-41.06)"/><path class="cls-1" d="M520.28,687.93c0,1,.11,1.93.19,3.33,13.3-4.28,26.42-3.94,39.66-.1v-6c-12.43-3.44-31.74-3.24-39.86.33Z" transform="translate(-41.06)"/><path class="cls-1" d="M284.18,1199.25c-9.38,4.25-16.65,10.87-19.42,20.61-4.86,17.08-2.93,34.74-3.08,52.63H339.5c0-10.88.25-21.67-.09-32.43a81.6,81.6,0,0,0-2.24-17.67c-3.56-13.87-13.6-21.77-26.75-25.41A37.86,37.86,0,0,0,284.18,1199.25Z" transform="translate(-41.06)"/><path class="cls-1" d="M362.85,648.81a128.14,128.14,0,0,0-2.87-20.9,25.14,25.14,0,0,0-5-10.32c-9.75-11.85-22.6-16.32-37.7-14.45A36,36,0,0,0,295.72,614c-8.13,8.19-10.89,18.22-10.66,29.44.17,7.82,0,15.65,0,23.48v12.56H363C363,668.78,363.32,658.78,362.85,648.81Z" transform="translate(-41.06)"/><path class="cls-1" d="M540,591.06c4.09.21,4.87-2.29,5.41-5.25-.32-3.37-1.2-5.88-5.23-5.9s-5.16,2.31-5,5.74C535.28,588.72,536.25,590.85,540,591.06Z" transform="translate(-41.06)"/><path class="cls-1" d="M578.46,685.89l0,0v0Z" transform="translate(-41.06)"/><path class="cls-1" d="M468.05,1178.24c-.17,3.79,1.51,5.81,4.41,5.7h0c4.91.23,7-2.64,6.57-5.51-.27-2-3.2-4.86-5.34-5.27C471,1172.65,468.22,1174.45,468.05,1178.24Z" transform="translate(-41.06)"/><path class="cls-1" d="M469.55,1193.24a179.26,179.26,0,0,0-18.41,15.63c-7.71,7.71-13.06,17.41-14.39,28-1.68,13.78-1.3,27.8-1.84,42.39h0c26.27-14.13,51.29-14.33,77,.13-1.1-16.17,1.78-31.61-3.07-46.81-3.1-9.76-7.54-18.54-15.09-25.45a195.42,195.42,0,0,0-17.52-14.33C474.78,1191.8,471.09,1192.07,469.55,1193.24Z" transform="translate(-41.06)"/><path class="cls-1" d="M578.43,685.87c-.66-14.87-.71-28.47-2-42-.89-9.12-5.46-17.09-11.1-24.48a80.76,80.76,0,0,0-17.84-16.88c-5.74-4.09-7.57-4.73-13-1.52a18.94,18.94,0,0,0-3.14,2.79c-6.17,5.8-13.19,10.94-18.27,17.57-7.19,9.38-10.15,21-11.32,32.59-1,10.18-.21,20.55-.21,31.91C526.92,672.46,552.08,671.8,578.43,685.87Z" transform="translate(-41.06)"/><path class="cls-1" d="M306.36,346h-1.49l-38.56,79h78.55C331.86,398.19,319.08,372.07,306.36,346Z" transform="translate(-41.06)"/><path class="cls-1" d="M305.79,334.64a5.78,5.78,0,0,0,5.56-5.86c.12-4.37-2.74-5.23-6-5.3-3.41-.08-5.65,1.52-5.09,5.26C299.83,333.06,303.19,334.74,305.79,334.64Z" transform="translate(-41.06)"/><path class="cls-1" d="M488.31,1276.84q-14.85,0-29.7.07c-4.46,0-6.05,2.32-4.9,7.66,13.2-3.87,26.26-4.11,39.21-.15C493.8,1279.54,492.86,1276.84,488.31,1276.84Z" transform="translate(-41.06)"/><path class="cls-1" d="M545.41,585.8h0v0Z" transform="translate(-41.06)"/><path class="cls-1" d="M484.39,874.68c4.8,3.5,9,6.63,13.3,9.68,9.52,6.77,17.14,15.43,21.59,26,3.71,8.87,6.85,18.46,7.66,27.95,1.26,14.84.33,29.87.33,45.08l-19.88-12.65" transform="translate(-41.06)"/><path class="cls-1" d="M560.45,703.06c0-4.11-1.2-6.4-5.44-6.43-9.77-.06-19.54,0-29.31-.1-4.29,0-5.46,2-5.39,6.18" transform="translate(-41.06)"/><path class="cls-1" d="M519.39,936.52c-.7-7.16-3.78-14.14-6.1-21.1-4.59-13.77-15.78-21.92-26.52-30.33a7.71,7.71,0,0,0-10-.19c-4.62,3.6-9.12,7.36-13.55,11.19-9.61,8.32-15.94,19.1-17.86,31.28-2.09,13.54-1.8,27.48-2.6,42.73,13.36-5.7,25.35-10.28,38.67-10.35,13.57-.06,25.79,4.6,38.23,10C519.66,958.05,520.43,947.2,519.39,936.52Z" transform="translate(-41.06)"/><path class="cls-1" d="M520.28,687.93c0,1,.11,1.93.19,3.33,13.3-4.28,26.42-3.94,39.66-.1v-6c-12.43-3.44-31.74-3.24-39.86.33Z" transform="translate(-41.06)"/><path class="cls-1" d="M344.33,690.61c0-1.25-.21-2.5-.3-3.59H303.56" transform="translate(-41.06)"/><path class="cls-1" d="M456.32,970.76,436,983.51c1.74-20-2.19-39.67,3.24-59.08a78.64,78.64,0,0,1,12.24-25.49c7.44-10.28,17.27-17.39,27.83-23.84" transform="translate(-41.06)"/><path class="cls-1" d="M284.18,1199.25c-9.38,4.25-16.65,10.87-19.42,20.61-4.86,17.08-2.93,34.74-3.08,52.63H339.5c0-10.88.25-21.67-.09-32.43a81.6,81.6,0,0,0-2.24-17.67c-3.56-13.87-13.6-21.77-26.75-25.41A37.86,37.86,0,0,0,284.18,1199.25Z" transform="translate(-41.06)"/><path class="cls-1" d="M362.85,648.81a128.14,128.14,0,0,0-2.87-20.9,25.14,25.14,0,0,0-5-10.32c-9.75-11.85-22.6-16.32-37.7-14.45A36,36,0,0,0,295.72,614c-8.13,8.19-10.89,18.22-10.66,29.44.17,7.82,0,15.65,0,23.48v12.56H363C363,668.78,363.32,658.78,362.85,648.81Z" transform="translate(-41.06)"/><path class="cls-1" d="M306.36,346h-1.49l-38.56,79h78.55C331.86,398.19,319.08,372.07,306.36,346Z" transform="translate(-41.06)"/><path class="cls-1" d="M545.41,585.8h0v0Z" transform="translate(-41.06)"/><path class="cls-1" d="M578.46,685.89l0,0v0Z" transform="translate(-41.06)"/><path class="cls-1" d="M540,591.06c4.09.21,4.87-2.29,5.41-5.25-.32-3.37-1.2-5.88-5.23-5.9s-5.16,2.31-5,5.74C535.28,588.72,536.25,590.85,540,591.06Z" transform="translate(-41.06)"/><path class="cls-1" d="M468.05,1178.24c-.17,3.79,1.51,5.81,4.41,5.7h0c4.91.23,7-2.64,6.57-5.51-.27-2-3.2-4.86-5.34-5.27C471,1172.65,468.22,1174.45,468.05,1178.24Z" transform="translate(-41.06)"/><path class="cls-1" d="M488.31,1276.84q-14.85,0-29.7.07c-4.46,0-6.05,2.32-4.9,7.66,13.2-3.87,26.26-4.11,39.21-.15C493.8,1279.54,492.86,1276.84,488.31,1276.84Z" transform="translate(-41.06)"/><path class="cls-1" d="M469.55,1193.24a179.26,179.26,0,0,0-18.41,15.63c-7.71,7.71-13.06,17.41-14.39,28-1.68,13.78-1.3,27.8-1.84,42.39h0c26.27-14.13,51.29-14.33,77,.13-1.1-16.17,1.78-31.61-3.07-46.81-3.1-9.76-7.54-18.54-15.09-25.45a195.42,195.42,0,0,0-17.52-14.33C474.78,1191.8,471.09,1192.07,469.55,1193.24Z" transform="translate(-41.06)"/><path class="cls-1" d="M305.79,334.64a5.78,5.78,0,0,0,5.56-5.86c.12-4.37-2.74-5.23-6-5.3-3.41-.08-5.65,1.52-5.09,5.26C299.83,333.06,303.19,334.74,305.79,334.64Z" transform="translate(-41.06)"/><path class="cls-1" d="M578.43,685.87c-.66-14.87-.71-28.47-2-42-.89-9.12-5.46-17.09-11.1-24.48a80.76,80.76,0,0,0-17.84-16.88c-5.74-4.09-7.57-4.73-13-1.52a18.94,18.94,0,0,0-3.14,2.79c-6.17,5.8-13.19,10.94-18.27,17.57-7.19,9.38-10.15,21-11.32,32.59-1,10.18-.21,20.55-.21,31.91C526.92,672.46,552.08,671.8,578.43,685.87Z" transform="translate(-41.06)"/><path class="cls-1" d="M484.39,874.68c4.8,3.5,9,6.63,13.3,9.68,9.52,6.77,17.14,15.43,21.59,26,3.71,8.87,6.85,18.46,7.66,27.95,1.26,14.84.33,29.87.33,45.08l-19.88-12.65" transform="translate(-41.06)"/><path class="cls-1" d="M560.45,703.06c0-4.11-1.2-6.4-5.44-6.43-9.77-.06-19.54,0-29.31-.1-4.29,0-5.46,2-5.39,6.18" transform="translate(-41.06)"/><path class="cls-1" d="M520.28,687.93c0,1,.11,1.93.19,3.33,13.3-4.28,26.42-3.94,39.66-.1v-6c-12.43-3.44-31.74-3.24-39.86.33Z" transform="translate(-41.06)"/><path class="cls-1" d="M519.39,936.52c-.7-7.16-3.78-14.14-6.1-21.1-4.59-13.77-15.78-21.92-26.52-30.33a7.71,7.71,0,0,0-10-.19c-4.62,3.6-9.12,7.36-13.55,11.19-9.61,8.32-15.94,19.1-17.86,31.28-2.09,13.54-1.8,27.48-2.6,42.73,13.36-5.7,25.35-10.28,38.67-10.35,13.57-.06,25.79,4.6,38.23,10C519.66,958.05,520.43,947.2,519.39,936.52Z" transform="translate(-41.06)"/><path class="cls-1" d="M284.18,1199.25c-9.38,4.25-16.65,10.87-19.42,20.61-4.86,17.08-2.93,34.74-3.08,52.63H339.5c0-10.88.25-21.67-.09-32.43a81.6,81.6,0,0,0-2.24-17.67c-3.56-13.87-13.6-21.77-26.75-25.41A37.86,37.86,0,0,0,284.18,1199.25Z" transform="translate(-41.06)"/><path class="cls-1" d="M344.33,690.61c0-1.25-.21-2.5-.3-3.59H303.56" transform="translate(-41.06)"/><path class="cls-1" d="M456.32,970.76,436,983.51c1.74-20-2.19-39.67,3.24-59.08a78.64,78.64,0,0,1,12.24-25.49c7.44-10.28,17.27-17.39,27.83-23.84" transform="translate(-41.06)"/><path class="cls-1" d="M362.85,648.81a128.14,128.14,0,0,0-2.87-20.9,25.14,25.14,0,0,0-5-10.32c-9.75-11.85-22.6-16.32-37.7-14.45A36,36,0,0,0,295.72,614c-8.13,8.19-10.89,18.22-10.66,29.44.17,7.82,0,15.65,0,23.48v12.56H363C363,668.78,363.32,658.78,362.85,648.81Z" transform="translate(-41.06)"/><path class="cls-1" d="M540,591.06c4.09.21,4.87-2.29,5.41-5.25-.32-3.37-1.2-5.88-5.23-5.9s-5.16,2.31-5,5.74C535.28,588.72,536.25,590.85,540,591.06Z" transform="translate(-41.06)"/><path class="cls-1" d="M578.46,685.89l0,0v0Z" transform="translate(-41.06)"/><path class="cls-1" d="M545.41,585.8h0v0Z" transform="translate(-41.06)"/><path class="cls-1" d="M264.76,1219.86c-4.86,17.08-2.93,34.74-3.08,52.63H339.5c0-10.88.25-21.67-.09-32.43a81.6,81.6,0,0,0-2.24-17.67c-3.56-13.87-13.6-21.77-26.75-25.41a37.86,37.86,0,0,0-26.24,2.27C274.8,1203.5,267.53,1210.12,264.76,1219.86Z" transform="translate(-41.06)"/><path class="cls-1" d="M578.43,685.87c-.66-14.87-.71-28.47-2-42-.89-9.12-5.46-17.09-11.1-24.48a80.76,80.76,0,0,0-17.84-16.88c-5.74-4.09-7.57-4.73-13-1.52a18.94,18.94,0,0,0-3.14,2.79c-6.17,5.8-13.19,10.94-18.27,17.57-7.19,9.38-10.15,21-11.32,32.59-1,10.18-.21,20.55-.21,31.91C526.92,672.46,552.08,671.8,578.43,685.87Z" transform="translate(-41.06)"/><path class="cls-1" d="M305.79,334.64a5.78,5.78,0,0,0,5.56-5.86c.12-4.37-2.74-5.23-6-5.3-3.41-.08-5.65,1.52-5.09,5.26C299.83,333.06,303.19,334.74,305.79,334.64Z" transform="translate(-41.06)"/><path class="cls-1" d="M306.36,346h-1.49l-38.56,79h78.55C331.86,398.19,319.08,372.07,306.36,346Z" transform="translate(-41.06)"/><path class="cls-1" d="M362.85,648.81a128.14,128.14,0,0,0-2.87-20.9,25.14,25.14,0,0,0-5-10.32c-9.75-11.85-22.6-16.32-37.7-14.45A36,36,0,0,0,295.72,614c-8.13,8.19-10.89,18.22-10.66,29.44.17,7.82,0,15.65,0,23.48v12.56H363C363,668.78,363.32,658.78,362.85,648.81Z" transform="translate(-41.06)"/><path class="cls-1" d="M484.39,874.68c4.8,3.5,9,6.63,13.3,9.68,9.52,6.77,17.14,15.43,21.59,26,3.71,8.87,6.85,18.46,7.66,27.95,1.26,14.84.33,29.87.33,45.08l-19.88-12.65" transform="translate(-41.06)"/><path class="cls-1" d="M560.45,703.06c0-4.11-1.2-6.4-5.44-6.43-9.77-.06-19.54,0-29.31-.1-4.29,0-5.46,2-5.39,6.18" transform="translate(-41.06)"/><path class="cls-1" d="M344.33,690.61c0-1.25-.21-2.5-.3-3.59H303.56" transform="translate(-41.06)"/><path class="cls-1" d="M456.32,970.76,436,983.51c1.74-20-2.19-39.67,3.24-59.08a78.64,78.64,0,0,1,12.24-25.49c7.44-10.28,17.27-17.39,27.83-23.84" transform="translate(-41.06)"/><path class="cls-1" d="M520.28,687.93c0,1,.11,1.93.19,3.33,13.3-4.28,26.42-3.94,39.66-.1v-6c-12.43-3.44-31.74-3.24-39.86.33Z" transform="translate(-41.06)"/><path class="cls-1" d="M519.39,936.52c-.7-7.16-3.78-14.14-6.1-21.1-4.59-13.77-15.78-21.92-26.52-30.33a7.71,7.71,0,0,0-10-.19c-4.62,3.6-9.12,7.36-13.55,11.19-9.61,8.32-15.94,19.1-17.86,31.28-2.09,13.54-1.8,27.48-2.6,42.73,13.36-5.7,25.35-10.28,38.67-10.35,13.57-.06,25.79,4.6,38.23,10C519.66,958.05,520.43,947.2,519.39,936.52Z" transform="translate(-41.06)"/><path class="cls-1" d="M545.41,585.8h0v0Z" transform="translate(-41.06)"/><path class="cls-1" d="M362.85,648.81a128.14,128.14,0,0,0-2.87-20.9,25.14,25.14,0,0,0-5-10.32c-9.75-11.85-22.6-16.32-37.7-14.45A36,36,0,0,0,295.72,614c-8.13,8.19-10.89,18.22-10.66,29.44.17,7.82,0,15.65,0,23.48v12.56H363C363,668.78,363.32,658.78,362.85,648.81Z" transform="translate(-41.06)"/><path class="cls-1" d="M305.79,334.64a5.78,5.78,0,0,0,5.56-5.86c.12-4.37-2.74-5.23-6-5.3-3.41-.08-5.65,1.52-5.09,5.26C299.83,333.06,303.19,334.74,305.79,334.64Z" transform="translate(-41.06)"/><path class="cls-1" d="M344.33,690.61c0-1.25-.21-2.5-.3-3.59H303.56" transform="translate(-41.06)"/><path class="cls-1" d="M456.32,970.83h0v-.07L436,983.51c1.74-20-2.19-39.67,3.24-59.08a78.64,78.64,0,0,1,12.24-25.49c7.44-10.28,17.27-17.39,27.83-23.84" transform="translate(-41.06)"/><path class="cls-1" d="M540,591.06c4.09.21,4.87-2.29,5.41-5.25-.32-3.37-1.2-5.88-5.23-5.9s-5.16,2.31-5,5.74C535.28,588.72,536.25,590.85,540,591.06Z" transform="translate(-41.06)"/><path class="cls-1" d="M306.36,346h-1.49l-38.56,79h78.55C331.86,398.19,319.08,372.07,306.36,346Z" transform="translate(-41.06)"/><path class="cls-1" d="M520.28,687.93c0,1,.11,1.93.19,3.33,13.3-4.28,26.42-3.94,39.66-.1v-6c-12.43-3.44-31.74-3.24-39.86.33Z" transform="translate(-41.06)"/><path class="cls-1" d="M484.39,874.68c4.8,3.5,9,6.63,13.3,9.68,9.52,6.77,17.14,15.43,21.59,26,3.71,8.87,6.85,18.46,7.66,27.95,1.26,14.84.33,29.87.33,45.08l-19.88-12.65" transform="translate(-41.06)"/><path class="cls-1" d="M560.45,703.06c0-4.11-1.2-6.4-5.44-6.43-9.77-.06-19.54,0-29.31-.1-4.29,0-5.46,2-5.39,6.18" transform="translate(-41.06)"/><path class="cls-1" d="M578.46,685.89l0,0v0Z" transform="translate(-41.06)"/><path class="cls-1" d="M519.39,936.52c-.7-7.16-3.78-14.14-6.1-21.1-4.59-13.77-15.78-21.92-26.52-30.33a7.71,7.71,0,0,0-10-.19c-4.62,3.6-9.12,7.36-13.55,11.19-9.61,8.32-15.94,19.1-17.86,31.28-2.09,13.54-1.8,27.48-2.6,42.73,13.36-5.7,25.35-10.28,38.67-10.35,13.57-.06,25.79,4.6,38.23,10C519.66,958.05,520.43,947.2,519.39,936.52Z" transform="translate(-41.06)"/><path class="cls-1" d="M578.43,685.87c-.66-14.87-.71-28.47-2-42-.89-9.12-5.46-17.09-11.1-24.48a80.76,80.76,0,0,0-17.84-16.88c-5.74-4.09-7.57-4.73-13-1.52a18.94,18.94,0,0,0-3.14,2.79c-6.17,5.8-13.19,10.94-18.27,17.57-7.19,9.38-10.15,21-11.32,32.59-1,10.18-.21,20.55-.21,31.91C526.92,672.46,552.08,671.8,578.43,685.87Z" transform="translate(-41.06)"/><path class="cls-1" d="M545.41,585.8h0v0Z" transform="translate(-41.06)"/><path class="cls-1" d="M362.85,648.81a128.14,128.14,0,0,0-2.87-20.9,25.14,25.14,0,0,0-5-10.32c-9.75-11.85-22.6-16.32-37.7-14.45A36,36,0,0,0,295.72,614c-8.13,8.19-10.89,18.22-10.66,29.44.17,7.82,0,15.65,0,23.48v12.56H363C363,668.78,363.32,658.78,362.85,648.81Z" transform="translate(-41.06)"/><path class="cls-1" d="M476.77,884.9c-4.62,3.6-9.12,7.36-13.55,11.19-9.61,8.32-15.94,19.1-17.86,31.28-2.09,13.54-1.8,27.48-2.6,42.73,13.36-5.7,25.35-10.28,38.67-10.35,13.57-.06,25.79,4.6,38.23,10,0-11.7.77-22.55-.27-33.23-.7-7.16-3.78-14.14-6.1-21.1-4.59-13.77-15.78-21.92-26.52-30.33A7.71,7.71,0,0,0,476.77,884.9Z" transform="translate(-41.06)"/><path class="cls-1" d="M306.36,346h-1.49l-38.56,79h78.55C331.86,398.19,319.08,372.07,306.36,346Z" transform="translate(-41.06)"/><path class="cls-1" d="M484.39,874.68c4.8,3.5,9,6.63,13.3,9.68,9.52,6.77,17.14,15.43,21.59,26,3.71,8.87,6.85,18.46,7.66,27.95,1.26,14.84.33,29.87.33,45.08l-19.88-12.65v.14l.08,0-.08,0" transform="translate(-41.06)"/><path class="cls-1" d="M560.45,703.06c0-4.11-1.2-6.4-5.44-6.43-9.77-.06-19.54,0-29.31-.1-4.29,0-5.46,2-5.39,6.18" transform="translate(-41.06)"/><path class="cls-1" d="M344.33,690.61c0-1.25-.21-2.5-.3-3.59H303.56" transform="translate(-41.06)"/><path class="cls-1" d="M456.32,970.83v-.07L436,983.51c1.74-20-2.19-39.67,3.24-59.08a78.64,78.64,0,0,1,12.24-25.49c7.44-10.28,17.27-17.39,27.83-23.84" transform="translate(-41.06)"/><path class="cls-1" d="M305.79,334.64a5.78,5.78,0,0,0,5.56-5.86c.12-4.37-2.74-5.23-6-5.3-3.41-.08-5.65,1.52-5.09,5.26C299.83,333.06,303.19,334.74,305.79,334.64Z" transform="translate(-41.06)"/><path class="cls-1" d="M578.46,685.89l0,0v0Z" transform="translate(-41.06)"/><path class="cls-1" d="M540,591.06c4.09.21,4.87-2.29,5.41-5.25-.32-3.37-1.2-5.88-5.23-5.9s-5.16,2.31-5,5.74C535.28,588.72,536.25,590.85,540,591.06Z" transform="translate(-41.06)"/><path class="cls-1" d="M576.43,643.89c-.89-9.12-5.46-17.09-11.1-24.48a80.76,80.76,0,0,0-17.84-16.88c-5.74-4.09-7.57-4.73-13-1.52a18.94,18.94,0,0,0-3.14,2.79c-6.17,5.8-13.19,10.94-18.27,17.57-7.19,9.38-10.15,21-11.32,32.59-1,10.18-.21,20.55-.21,31.91,25.37-13.41,50.53-14.07,76.88,0C577.77,671,577.72,657.4,576.43,643.89Z" transform="translate(-41.06)"/><path class="cls-1" d="M520.28,685.51v2.42c0,1,.11,1.93.19,3.33,13.3-4.28,26.42-3.94,39.66-.1v-6C547.71,681.74,528.4,681.94,520.28,685.51Z" transform="translate(-41.06)"/><path class="cls-1" d="M305.79,334.64a5.78,5.78,0,0,0,5.56-5.86c.12-4.37-2.74-5.23-6-5.3-3.41-.08-5.65,1.52-5.09,5.26C299.83,333.06,303.19,334.74,305.79,334.64Z" transform="translate(-41.06)"/><path class="cls-1" d="M306.36,346h-1.49l-38.56,79h78.55C331.86,398.19,319.08,372.07,306.36,346Z" transform="translate(-41.06)"/><path class="cls-1" d="M362.85,648.81a128.14,128.14,0,0,0-2.87-20.9,25.14,25.14,0,0,0-5-10.32c-9.75-11.85-22.6-16.32-37.7-14.45A36,36,0,0,0,295.72,614c-8.13,8.19-10.89,18.22-10.66,29.44.17,7.82,0,15.65,0,23.48v12.56H363C363,668.78,363.32,658.78,362.85,648.81Z" transform="translate(-41.06)"/><path class="cls-1" d="M484.39,874.53l.5,0-.5,0v.15c4.8,3.5,9,6.63,13.3,9.68,9.52,6.77,17.14,15.43,21.59,26,3.71,8.87,6.85,18.46,7.66,27.95,1.26,14.84.33,29.87.33,45.08l-19.88-12.65v.14" transform="translate(-41.06)"/><path class="cls-1" d="M560.45,703.06c0-4.11-1.2-6.4-5.44-6.43-9.77-.06-19.54,0-29.31-.1-4.29,0-5.46,2-5.39,6.18" transform="translate(-41.06)"/><path class="cls-1" d="M344.33,690.61c0-1.25-.21-2.5-.3-3.59H303.56" transform="translate(-41.06)"/><path class="cls-1" d="M456.32,970.83v-.07L436,983.51c1.74-20-2.19-39.67,3.24-59.08a78.64,78.64,0,0,1,12.24-25.49c7.44-10.28,17.27-17.39,27.83-23.84V875l-.21,0,.21,0" transform="translate(-41.06)"/><path class="cls-1" d="M519.39,936.52c-.7-7.16-3.78-14.14-6.1-21.1-4.59-13.77-15.78-21.92-26.52-30.33a7.71,7.71,0,0,0-10-.19c-4.62,3.6-9.12,7.36-13.55,11.19-9.61,8.32-15.94,19.1-17.86,31.28-2.09,13.54-1.8,27.48-2.6,42.73,13.36-5.7,25.35-10.28,38.67-10.35,13.57-.06,25.79,4.6,38.23,10C519.66,958.05,520.43,947.2,519.39,936.52Z" transform="translate(-41.06)"/><path class="cls-1" d="M540,591.06c4.09.21,4.87-2.29,5.41-5.25-.32-3.37-1.2-5.88-5.23-5.9s-5.16,2.31-5,5.74C535.28,588.72,536.25,590.85,540,591.06Z" transform="translate(-41.06)"/><path class="cls-1" d="M578.46,685.89l0,0v0Z" transform="translate(-41.06)"/><path class="cls-1" d="M545.41,585.8h0v0Z" transform="translate(-41.06)"/><path class="cls-1" d="M576.43,643.89c-.89-9.12-5.46-17.09-11.1-24.48a80.76,80.76,0,0,0-17.84-16.88c-5.74-4.09-7.57-4.73-13-1.52a18.94,18.94,0,0,0-3.14,2.79c-6.17,5.8-13.19,10.94-18.27,17.57-7.19,9.38-10.15,21-11.32,32.59-1,10.18-.21,20.55-.21,31.91,25.37-13.41,50.53-14.07,76.88,0C577.77,671,577.72,657.4,576.43,643.89Z" transform="translate(-41.06)"/><path class="cls-1" d="M520.28,685.51v2.42c0,1,.11,1.93.19,3.33,13.3-4.28,26.42-3.94,39.66-.1v-6C547.71,681.74,528.4,681.94,520.28,685.51Z" transform="translate(-41.06)"/><path class="cls-1" d="M578.46,685.89l0,0v0Z" transform="translate(-41.06)"/><path class="cls-1" d="M362.85,648.81a128.14,128.14,0,0,0-2.87-20.9,25.14,25.14,0,0,0-5-10.32c-9.75-11.85-22.6-16.32-37.7-14.45A36,36,0,0,0,295.72,614c-8.13,8.19-10.89,18.22-10.66,29.44.17,7.82,0,15.65,0,23.48v12.56H363C363,668.78,363.32,658.78,362.85,648.81Z" transform="translate(-41.06)"/><path class="cls-1" d="M540,591.06c4.09.21,4.87-2.29,5.41-5.25-.32-3.37-1.2-5.88-5.23-5.9s-5.16,2.31-5,5.74C535.28,588.72,536.25,590.85,540,591.06Z" transform="translate(-41.06)"/><path class="cls-1" d="M305.79,334.64a5.78,5.78,0,0,0,5.56-5.86c.12-4.37-2.74-5.23-6-5.3-3.41-.08-5.65,1.52-5.09,5.26C299.83,333.06,303.19,334.74,305.79,334.64Z" transform="translate(-41.06)"/><path class="cls-1" d="M306.36,346h-1.49l-38.56,79h78.55C331.86,398.19,319.08,372.07,306.36,346Z" transform="translate(-41.06)"/><path class="cls-1" d="M545.41,585.8h0v0Z" transform="translate(-41.06)"/><path class="cls-1" d="M578.43,685.87c-.66-14.87-.71-28.47-2-42-.89-9.12-5.46-17.09-11.1-24.48a80.76,80.76,0,0,0-17.84-16.88c-5.74-4.09-7.57-4.73-13-1.52a18.94,18.94,0,0,0-3.14,2.79c-6.17,5.8-13.19,10.94-18.27,17.57-7.19,9.38-10.15,21-11.32,32.59-1,10.18-.21,20.55-.21,31.91C526.92,672.46,552.08,671.8,578.43,685.87Z" transform="translate(-41.06)"/><path class="cls-1" d="M520.28,685.51v2.42c0,1,.11,1.93.19,3.33,13.3-4.28,26.42-3.94,39.66-.1v-6C547.71,681.74,528.4,681.94,520.28,685.51Z" transform="translate(-41.06)"/><path class="cls-1" d="M305.79,334.64a5.78,5.78,0,0,0,5.56-5.86c.12-4.37-2.74-5.23-6-5.3-3.41-.08-5.65,1.52-5.09,5.26C299.83,333.06,303.19,334.74,305.79,334.64Z" transform="translate(-41.06)"/><path class="cls-1" d="M545.41,585.8h0v0Z" transform="translate(-41.06)"/><path class="cls-1" d="M540,591.06c4.09.21,4.87-2.29,5.41-5.25-.32-3.37-1.2-5.88-5.23-5.9s-5.16,2.31-5,5.74C535.28,588.72,536.25,590.85,540,591.06Z" transform="translate(-41.06)"/><path class="cls-1" d="M362.85,648.81a128.14,128.14,0,0,0-2.87-20.9,25.14,25.14,0,0,0-5-10.32c-9.75-11.85-22.6-16.32-37.7-14.45A36,36,0,0,0,295.72,614c-8.13,8.19-10.89,18.22-10.66,29.44.17,7.82,0,15.65,0,23.48v12.56H363C363,668.78,363.32,658.78,362.85,648.81Z" transform="translate(-41.06)"/><path class="cls-1" d="M578.43,685.87c-.66-14.87-.71-28.47-2-42-.89-9.12-5.46-17.09-11.1-24.48a80.76,80.76,0,0,0-17.84-16.88c-5.74-4.09-7.57-4.73-13-1.52a18.94,18.94,0,0,0-3.14,2.79c-6.17,5.8-13.19,10.94-18.27,17.57-7.19,9.38-10.15,21-11.32,32.59-1,10.18-.21,20.55-.21,31.91C526.92,672.46,552.08,671.8,578.43,685.87Z" transform="translate(-41.06)"/><path class="cls-1" d="M578.46,685.89l0,0v0Z" transform="translate(-41.06)"/><path class="cls-1" d="M520.28,685.51v2.42c0,1,.11,1.93.19,3.33,13.3-4.28,26.42-3.94,39.66-.1v-6C547.71,681.74,528.4,681.94,520.28,685.51Z" transform="translate(-41.06)"/><path class="cls-1" d="M306.36,346h-1.49l-38.56,79h78.55C331.86,398.19,319.08,372.07,306.36,346Z" transform="translate(-41.06)"/><path d="M582,701.11c-3.23-2.89-7.87-4.24-11.87-6.24-3-1.49-6.2-2.83-3.92-8.27l19,11.64V665.36c0-11.55.12-23.2-5-33.91-3.07-6.47-6.3-13.05-10.8-18.47-5.9-7.11-13.11-13.12-19.8-19.64,5.52-6.51,3.91-14.32-4.32-18.79a10,10,0,0,1-2-2h-5.89a12.63,12.63,0,0,1-2.07,2c-8.54,5.14-10,12.29-4.49,19-6.5,6.32-13.12,12.42-19.34,18.91-7.25,7.59-12.6,17-13.76,27-2.32,19.52-2.32,39.3-3.32,59.4l19.91-12.1,1.83,1.9c-1.2,1.53-2.12,3.53-3.66,4.53a106.79,106.79,0,0,1-10.7,6c-6.43,3.33-7.08,4.56-6,12l19.56-12.1v.19l6.83-1.94a6.37,6.37,0,0,1,3.54-.81c9.77.1,19.54,0,29.31.1a6.32,6.32,0,0,1,3.25.75l7.35,1.92c0-.07,0-.14,0-.21l19.32,12.18,1.28-.67C584.87,707.36,584.33,703.22,582,701.11Zm-41.79-121.2c4,0,4.91,2.53,5.23,5.9h0v0c-.54,3-1.32,5.46-5.41,5.25-3.75-.21-4.72-2.34-4.82-5.41C535,582.22,536.14,579.89,540.18,579.91Zm-38.63,106c0-11.36-.79-21.73.21-31.91,1.17-11.59,4.13-23.21,11.32-32.59,5.08-6.63,12.1-11.77,18.27-17.57a18.94,18.94,0,0,1,3.14-2.79c5.43-3.21,7.26-2.57,13,1.52a80.76,80.76,0,0,1,17.84,16.88c5.64,7.39,10.21,15.36,11.1,24.48,1.29,13.51,1.34,27.11,2,42l0,0h0v0C552.08,671.8,526.92,672.46,501.55,685.87Zm58.58,5.29c-13.24-3.84-26.36-4.18-39.66.1-.08-1.4-.19-2.33-.19-3.33v-2.42c8.12-3.57,27.43-3.77,39.86-.33Z" transform="translate(-41.06)"/><path class="cls-1" d="M306.36,346h-1.49l-38.56,79h78.55C331.86,398.19,319.08,372.07,306.36,346Z" transform="translate(-41.06)"/><path class="cls-1" d="M362.85,648.81a128.14,128.14,0,0,0-2.87-20.9,25.14,25.14,0,0,0-5-10.32c-9.75-11.85-22.6-16.32-37.7-14.45A36,36,0,0,0,295.72,614c-8.13,8.19-10.89,18.22-10.66,29.44.17,7.82,0,15.65,0,23.48v12.56H363C363,668.78,363.32,658.78,362.85,648.81Z" transform="translate(-41.06)"/><path class="cls-1" d="M305.79,334.64a5.78,5.78,0,0,0,5.56-5.86c.12-4.37-2.74-5.23-6-5.3-3.41-.08-5.65,1.52-5.09,5.26C299.83,333.06,303.19,334.74,305.79,334.64Z" transform="translate(-41.06)"/><path class="cls-1" d="M306.36,346h-1.49l-38.56,79h78.55C331.86,398.19,319.08,372.07,306.36,346Z" transform="translate(-41.06)"/><path class="cls-1" d="M305.79,334.64a5.78,5.78,0,0,0,5.56-5.86c.12-4.37-2.74-5.23-6-5.3-3.41-.08-5.65,1.52-5.09,5.26C299.83,333.06,303.19,334.74,305.79,334.64Z" transform="translate(-41.06)"/><path d="M308.3,432.14h47.31c-1.66-4.07-2.94-7.8-4.66-11.31-5-10.11-10.17-20.1-15.17-30.21-3-6-5.52-12.21-8.52-18.21-4.58-9.19-9.33-18.3-14.05-27.41-1.72-3.33-2.11-6.19,1.8-8.33.73-.4,1.13-1.58,1.47-2.48,2.8-7.45.86-14.22-8.33-18.22l-4.73-.17c-5.35,2.95-11.11,6.2-10.11,13.27.62,4.2,3.71,8,6,12.71-14.19,29-29,59.31-44.19,90.52h48.13v.06l5.05-.16Zm-2.9-108.66c3.21.07,6.07.93,6,5.3a5.78,5.78,0,0,1-5.56,5.86c-2.6.1-6-1.58-5.48-5.9C299.75,325,302,323.4,305.4,323.48ZM266.31,425l38.56-79h1.49c12.72,26.07,25.5,52.19,38.5,79Z" transform="translate(-41.06)"/><path class="cls-1" d="M362.85,648.81a128.14,128.14,0,0,0-2.87-20.9,25.14,25.14,0,0,0-5-10.32c-9.75-11.85-22.6-16.32-37.7-14.45A36,36,0,0,0,295.72,614c-8.13,8.19-10.89,18.22-10.66,29.44.17,7.82,0,15.65,0,23.48v12.56H363C363,668.78,363.32,658.78,362.85,648.81Z" transform="translate(-41.06)"/><path class="cls-1" d="M362.85,648.81a128.14,128.14,0,0,0-2.87-20.9,25.14,25.14,0,0,0-5-10.32c-9.75-11.85-22.6-16.32-37.7-14.45A36,36,0,0,0,295.72,614c-8.13,8.19-10.89,18.22-10.66,29.44.17,7.82,0,15.65,0,23.48v12.56H363C363,668.78,363.32,658.78,362.85,648.81Z" transform="translate(-41.06)"/><path d="M303.56,687H344a1.11,1.11,0,0,0,0,.17l5.58-.4v-.13h18.53c.1-2,.27-3.82.27-5.6,0-13.16-.18-26.33.07-39.48.16-8.05-1-15.63-4.94-22.74-4.24-7.76-9.94-14.18-17.94-18-5.7-2.74-11.89-4.46-18.32-6.8v-.44l-6-.47v.08c-8.4,3.55-16.27,5.94-23.15,10-9.55,5.64-16.68,14.61-17.61,25.53-1.54,18.19-.94,36.58-1.22,54.88a28.36,28.36,0,0,0,.35,3.31h17.2V687l6.69.1Zm-18.5-7.54V666.92c0-7.83.17-15.66,0-23.48-.23-11.22,2.53-21.25,10.66-29.44a36,36,0,0,1,21.56-10.86c15.1-1.87,28,2.6,37.7,14.45a25.14,25.14,0,0,1,5,10.32,128.14,128.14,0,0,1,2.87,20.9c.47,10,.12,20,.12,30.68Z" transform="translate(-41.06)"/><path d="M507.39,970.74l19.88,12.65c0-15.21.93-30.24-.33-45.08-.81-9.49-4-19.08-7.66-27.95-4.45-10.57-12.07-19.23-21.59-26-4.3-3.05-8.5-6.18-13.3-9.68v-.15l-5.07.5v.07c-10.56,6.45-20.39,13.56-27.83,23.84a78.64,78.64,0,0,0-12.24,25.49c-5.43,19.41-1.5,39.08-3.24,59.08l20.31-12.75v.07l5-1.28v-.06a81.69,81.69,0,0,1,40-.27v.06l6.06,1.6Zm-26-11c-13.32.07-25.31,4.65-38.67,10.35.8-15.25.51-29.19,2.6-42.73,1.92-12.18,8.25-23,17.86-31.28,4.43-3.83,8.93-7.59,13.55-11.19a7.71,7.71,0,0,1,10,.19c10.74,8.41,21.93,16.56,26.52,30.33,2.32,7,5.4,13.94,6.1,21.1,1,10.68.27,21.53.27,33.23C507.22,964.35,495,959.69,481.43,959.75Z" transform="translate(-41.06)"/><path d="M297.32,1186.55c-7.5,3.27-14.52,6-21.26,9.27-6.58,3.23-11.19,9-14.5,15.18a44.72,44.72,0,0,0-5.54,22.89c.49,15,.14,30,.14,46.08h19.56l4.59-.12h41v.22l6.39-.31.16-.27h17.55c0-4.73.08-9,0-13.27-.24-14.79.31-29.67-1.24-44.33-1.22-11.15-8.38-20.06-18-25.81-6.79-4-14.59-6.48-22.79-10h0l-6.06.23Zm13.1,10.43c13.15,3.64,23.19,11.54,26.75,25.41a81.6,81.6,0,0,1,2.24,17.67c.34,10.76.09,21.55.09,32.43H261.68c.15-17.89-1.78-35.55,3.08-52.63,2.77-9.74,10-16.36,19.42-20.61A37.86,37.86,0,0,1,310.42,1197Z" transform="translate(-41.06)"/><path d="M471.33,1166.17c-11.14,5-12.35,8.86-7.35,20.53-7.58,7.48-15.8,14.08-22,22.22-5.13,6.73-8.53,14.84-10.85,23.42-5.3,19.62-1.29,39.49-3.16,59.62l20-12.4v5.73c-6.53,3.86-12.78,7-18.34,11.14-1.63,1.2-1.29,5-2.07,8.68l20.75-12.52v.12l5-1v0c13.88-4.81,27-5.25,40.08.28l6.12,1.09,19.2,11.57c2-5.75-1-9-5.18-11.41-4.58-2.63-9.39-4.86-14.32-7.37.07-1.51.15-3.23.28-5.89l19.67,11.92c-.71-19.31,2-38.19-2.8-56.56a93,93,0,0,0-9.79-24.17,58.82,58.82,0,0,0-20.94-20.93c-1.2-.69-2.09-3.74-1.63-5.22,2.95-9.38,1.24-14.1-7.7-18.92l-5,0Zm21.59,118.25c-12.95-4-26-3.72-39.21.15h0c-1.15-5.34.44-7.64,4.9-7.66q14.85-.08,29.7-.07C492.86,1276.84,493.8,1279.54,492.92,1284.42Zm.83-77.29c7.55,6.91,12,15.69,15.09,25.45,4.85,15.2,2,30.64,3.07,46.81-25.71-14.46-50.73-14.26-77-.13h0c.54-14.59.16-28.61,1.84-42.39,1.33-10.59,6.68-20.29,14.39-28a179.26,179.26,0,0,1,18.41-15.63c1.54-1.17,5.23-1.44,6.68-.44A195.42,195.42,0,0,1,493.75,1207.13ZM479,1178.43c.43,2.87-1.66,5.74-6.57,5.51h0c-2.9.11-4.58-1.91-4.41-5.7s2.92-5.59,5.64-5.08C475.83,1173.57,478.76,1176.43,479,1178.43Z" transform="translate(-41.06)"/><path d="M114.58,1167.67c-7.42,3.6-9.27,13.2-3.27,19.8-9.2,6.73-17.37,13.8-23.61,23.12-9.07,13.42-12.52,28.05-12.35,43.92.11,12.31,0,24.62,0,36.94l20-12.3v.24l7.41-1.65a1.7,1.7,0,0,1,1-.44c10.56-.41,21.13-.48,31.7-.3,3.25.06,5.36,2.17,5,5.88l4.68-1c1.29,0,2.82-.35,3.82.22,5.29,3,10.45,6.24,16.87,10.13-.81-19.71-.31-38.92-2.81-57.71-2.09-15.64-11.51-28.49-23.59-38.88-3.35-2.86-6.9-5.42-10.35-8.12,5.79-8.75,4.58-13.5-4.42-20.21a2.29,2.29,0,0,1-.69-1l-8.11.15A5.87,5.87,0,0,1,114.58,1167.67Zm34.64,50.57c6.66,11,8.54,22.62,8.47,35v25.46c-25.62-13.7-50.7-13.7-76.23.73,0-11.76-.87-23.08.29-34.2.82-7.88,3.67-15.79,6.9-23.12,3.84-8.72,10.23-15.85,17.77-21.85a67.23,67.23,0,0,1,9.55-6.88c1.9-1,5.24-1.74,6.77-.74C133.22,1199.38,142.56,1207.24,149.22,1218.24Zm-24-39.94c0,2.92-.3,6.4-5,5.31-4.29,1-5.29-1.54-5.17-5,.1-3.29,1.24-5.72,5.17-5.72C123.87,1172.91,125.23,1175.38,125.23,1178.3Z" transform="translate(-41.06)"/><path d="M578.46,685.89l0,0v0Z" transform="translate(-41.06)"/><polygon points="412.65 1284.57 412.65 1284.57 412.65 1284.57 412.65 1284.57"/><path d="M545.41,585.8h0v0Z" transform="translate(-41.06)"/><path d="M49.23,685.28v0l0,0Z" transform="translate(-41.06)"/><path d="M411.15,0V107.77H199.56V0Zm-6.86,30.8H205.47V99.7H404.29V30.8ZM304.84,4.73c-4.5-.73-9.86,5-9.6,9.87.33,6,3.5,9.57,9.48,9.65,5.38.07,10.5-4.65,10.58-9.74.07-4.51-5.53-9.78-10.46-9.78Zm-79.08.12c-5.15.06-9.45,4.73-9.51,10a9.91,9.91,0,0,0,10,9.86h.35a10.17,10.17,0,0,0,9.68-10.07c-.1-5-5.18-9.85-10.48-9.78Zm30.32,9.21c-.8,5.71,4.3,10,8.93,10.31a10,10,0,0,0,10.68-9.27c0-.15,0-.3,0-.45-.07-4.94-4.77-9.84-9.77-9.92C259.86,4.63,256.23,8.06,256.08,14.06Zm87.86,10c5.53.15,11.37-5,11.2-9.8-.14-4.18-5.77-9.58-10.06-9.78-4.47-.21-10.15,3.79-9.9,9.48.28,6.41,2.91,9.9,8.76,10Zm49.38-9.4c0-6.32-3.49-10.13-9.27-10.08-5,0-10.56,5.1-10.69,9.65s5.35,9.78,10.4,9.8c6.09,0,9.54-3.38,9.56-9.41Z" transform="translate(-41.06)"/><path d="M208.86,95.68V33H395.34c3.26,0,5.9.06,5.89,4.34V95.69Zm3.55-4.12H397V39.05H212.41Z" transform="translate(-41.06)"/><path d="M306.85,20.57c-5.37-.26-7.66-1.86-7.53-5.77.12-3.67,1.46-6.39,5.75-6.12,3.6.21,6.44,2.34,6,5.76C310.67,16.93,307.93,19.09,306.85,20.57Z" transform="translate(-41.06)"/><path d="M232.26,13.6c.11,5.23-2.59,7.09-6.11,7.13-3.32,0-6-1.46-5.9-5.68.14-3.9,2.32-5.87,5.82-6.12C229.86,8.65,231.43,11.41,232.26,13.6Z" transform="translate(-41.06)"/><path d="M267.1,8.63a6.16,6.16,0,0,1,4.77,5.9c.17,4-2.44,6-6,6s-6.2-1.71-5.91-6C260.17,10.93,261.42,8.28,267.1,8.63Z" transform="translate(-41.06)"/><path d="M344.39,20.11c-4,.42-5.05-2.21-5.17-5.78-.14-4,2-6.83,5.71-5.87,2.45.62,5.66,3.73,5.92,6C351.18,17.28,348.89,20.53,344.39,20.11Z" transform="translate(-41.06)"/><path d="M389.34,14.26c.07,3.71-1.37,5.88-5.45,6s-5.66-2.54-6.45-5.7c-.59-2.32,3.5-6.34,6-6.36C387.28,8.14,389.32,10.23,389.34,14.26Z" transform="translate(-41.06)"/></g></svg>