<svg id="Layer_1" data-name="Layer 1" xmlns="http://www.w3.org/2000/svg" viewBox="0 0 172.03 460.41"><path d="M7285.49,7429.7l-5.89,0c0-69.31-.28-138.62.16-207.93.06-9.59-2.47-14.57-11.56-18.07-8.23-3.17-15.43-9-23.21-13.37-5.33-3-11-5.48-16.33-8.44-9.25-5.09-18.39-10.4-27.61-15.55-2.76-1.53-5.65-2.83-8.46-4.26-9.27-4.71-18.61-9.28-27.77-14.19-12-6.44-23.87-13.15-35.81-19.73-4.4-2.43-9-4.62-13.17-7.35a6.4,6.4,0,0,1-2.24-4.67c-.16-15.5-.09-31-.09-46.49V6969.3h4.95v146.31c10,5.74,19.46,11.24,29,16.66,2.88,1.64,5.92,3,8.86,4.56,8.76,4.66,17.49,9.36,26.25,14,6.67,3.55,13.42,7,20.06,10.58,8,4.37,15.92,9,23.94,13.36,6.62,3.63,13.39,7,20,10.61,8,4.38,16,8.91,23.95,13.36,4.12,2.3,8.34,4.44,12.35,6.92,1.19.73,2.59,2.38,2.59,3.6Q7285.61,7319.49,7285.49,7429.7Z" transform="translate(-7113.49 -6969.3)"/></svg>