<svg id="Layer_1" data-name="Layer 1" xmlns="http://www.w3.org/2000/svg" viewBox="0 0 139.85 379.67"><path d="M7264.77,7050.45l4.59-.11c0,46.83.1,93.65-.14,140.48,0,2.52-2.34,5.45-4.31,7.48-7.11,7.26-14.66,14.09-21.72,21.4-1.34,1.39-1.7,4.19-1.71,6.34q-.13,65.74-.07,131.49,0,36.24,0,72.48l-5.08,0c0-54.11-.21-108.23.24-162.34.06-7.3-3-11.72-7.69-15.83-6-5.22-12.37-9.94-18.41-15.09-8.69-7.39-17.2-15-25.81-22.46-5.52-4.81-11-9.73-16.66-14.34-4.29-3.48-9.08-6.33-13.31-9.86-4.85-4-9.22-8.65-14-12.82-3.53-3.08-7.33-5.84-11.21-8.91v-115l4.68-1.05c.07,2.66.21,5.32.21,8,0,35.13,0,70.26,0,104.68l101.93,86.55c0-10.56.11-19.55-.06-28.53-.06-3.4,1.19-5.66,3.65-8,7.49-7.08,14.82-14.36,21.88-21.87a10.83,10.83,0,0,0,2.43-6.84c.14-43.47.1-86.94.12-130.41C7264.39,7054.07,7264.64,7052.26,7264.77,7050.45Z" transform="translate(-7129.54 -7050.34)"/></svg>