<svg id="Layer_1" data-name="Layer 1" xmlns="http://www.w3.org/2000/svg" viewBox="0 0 129.13 468.52"><path d="M7263.87,7110.08c.35-6.78-7-9.53-10.8-14.05-6.51-8.05-23.1-18.55-24-28.51.1-33.55-.62-66.78.22-100.35l-7-1.93c1.28,1.06,1.72,2.87,1.71,5.35-.14,32.66.06,65.33-.23,98a13.73,13.73,0,0,0,4.63,10.87c9.91,9.66,19.81,19.32,29.56,29.14.9.91.92,2.94.92,4.44q.07,54.75,0,109.5v87.61l-119,86.45c0-19.51-.15-38.31.19-57.11,0-2.31,2.37-4.93,4.24-6.8,7.31-7.32,15-14.27,22.26-21.62,2.44-2.46,4.56-5,4.48-9.39-.39-20.58-.17-41.17-.17-63.23l-6-1.49v5.18c0,18.66-.22,37.32.14,56,.1,5.25-1.06,9.16-4.94,12.74-7.63,7-15.09,14.27-22.29,21.75a11.47,11.47,0,0,0-2.79,7.23c-.19,29.32-.12,58.64-.12,88v5.9l-.11,0,5.14,0c1-7.85-2.43-25.82,2.1-31.24,12.3-9.31,24.72-18.47,37.09-27.69,28.64-20,56-41.61,84.81-61.36Q7263.92,7211.83,7263.87,7110.08Z" transform="translate(-7134.78 -6965.24)"/></svg>