<svg id="Layer_1" data-name="Layer 1" xmlns="http://www.w3.org/2000/svg" viewBox="0 0 132.26 379.81"><path d="M7260.72,7063.06v67.16c0,9-.41,18,.16,27a14.17,14.17,0,0,1-4.77,12.27c-7.17,6.65-14.41,13.21-21.5,19.94-6.06,5.75-11.91,11.72-17.94,17.52-5.6,5.38-11.36,10.61-17,16-9.45,9-18.83,18.12-28.27,27.17-.18.18-.61.1-1.68.23,0-7.58-.35-14.9.11-22.17.34-5.37-.89-9.51-5-13.23-7.66-7-15.06-14.3-22.36-21.68a9.39,9.39,0,0,1-2.68-5.83q-.2-68.23,0-136.45c0-.13.11-.27.35-.69l-6.44.19q0,69.22,0,138.43c-.84,6.52,21.61,23.35,26.88,29.89,3,2.93,4.23,6.08,4.22,10.52-.2,66.95-.13,133.82-.14,200.78l5.31-.1c-.77-56.37-.06-112.84-.13-169.26.56-5.37,6.64-8.31,10.42-11.52,25.62-25.78,53.36-49.08,78.93-75,3.91-3.82,6.83-7.57,6.73-14.06-.54-32.63-.21-65.36-.23-98l-5.06-.11C7260.74,7062.25,7260.62,7063.12,7260.72,7063.06Z" transform="translate(-7133.72 -7050.27)"/></svg>