<svg id="Layer_1" data-name="Layer 1" xmlns="http://www.w3.org/2000/svg" viewBox="0 0 34.25 367.42"><path d="M7188.37,7423.89h-5.93q0-104.4-.08-208.79c0-5.78,5.24-7.81,8.33-11.22,5.5-6.07,11.84-11.38,17.45-17.36,1.45-1.56,2.13-4.42,2.13-6.69.13-39.29.09-78.58.1-117.88,0-1.83.08-3.65.12-5.48l6.12,1.08c-.06,40.82-.24,81.63,0,122.44a14.27,14.27,0,0,1-4.57,11c-7.31,7.23-14.89,14.19-22.08,21.54-1.23,1.26-1.46,3.91-1.46,5.92q-.1,99.45-.06,198.91C7188.44,7419.56,7188.39,7421.72,7188.37,7423.89Z" transform="translate(-7182.36 -7056.47)"/></svg>