<svg id="Layer_1" data-name="Layer 1" xmlns="http://www.w3.org/2000/svg" viewBox="0 0 36.98 183.3"><path d="M7181.46,7155c0,14.33.56,28.69-.22,43-.37,7,2.81,11.12,7.1,15.31,7.3,7.13,14.69,14.17,21.9,21.4.88.87,1.18,2.65,1.19,4q.09,45.49-.07,91a5.05,5.05,0,0,1-.63,2.17h5.49l1.91-.1a8.6,8.6,0,0,1-.58-2.95c-.07-28.5-.48-57,.23-85.49.17-16.7-20.44-26.45-30-38.57-3.41-16.17-.11-34.31-1.45-51a5.9,5.9,0,0,1,2.16-5.15l-7.38,2C7181.31,7152.6,7181.46,7153.79,7181.46,7155Z" transform="translate(-7181.15 -7148.53)"/></svg>