<svg id="Layer_1" data-name="Layer 1" xmlns="http://www.w3.org/2000/svg" viewBox="0 0 329.97 499.16"><path d="M7200,7369.44c-39.15-21.33-77.89-42.79-117.06-64-12.77-6.53-24.58-14.79-37.11-21.76-1.22-.73-3.2-1.78-3.22-2.72-.22-10.87-.14-21.76-.14-33.5l-8-2.14c5.22,3.68.24,13.83,1.94,40.08,51.78,29.88,104.45,57.16,156.66,86.16,5.08,2.7,7.74,5.69,7.56,12.26-.59,22.1-.22,44.23-.22,65.25l6-.29v-52.34c0-5.83-.09-11.67.07-17.49,0-1.2.64-2.94,1.54-3.47,7.79-4.63,15.75-9,23.57-13.53,8.39-4.91,16.6-10.12,25-14.94,5.33-3.05,11-5.4,16.37-8.46,7.92-4.56,15.57-9.59,23.48-14.18,6.11-3.55,12.48-6.67,18.66-10.11,5.47-3.06,10.82-6.33,16.25-9.45,4.13-2.38,8.34-4.63,12.46-7,6.44-3.75,12.93-7.42,19.16-11.49,1.07-.7,1.33-3.21,1.34-4.88.1-16.27.06-32.54.06-49.06l-5,1.22c0,16.65.19,31.85-.26,47-.05,1.72-3.49,3.63-5.66,4.94q-16.92,10.15-34,20c-6,3.47-12.24,6.6-18.27,10.06-5,2.87-9.86,6-14.8,9-2.84,1.7-5.74,3.31-8.59,5-6.58,3.88-13.12,7.85-19.75,11.64-3.05,1.75-6.37,3-9.44,4.74-8.43,4.71-16.79,9.54-25.17,14.32q-6.19,3.52-12.4,7.05c-1.41.8-2.79,1.64-4.42,2.59v-420H7200Z" transform="translate(-7034.5 -6949.92)"/></svg>