<svg id="Layer_1" data-name="Layer 1" xmlns="http://www.w3.org/2000/svg" viewBox="0 0 156.12 459.98"><path d="M7126.19,7429.36l-4.55.13c-.07-1.16-.2-2.32-.2-3.48q0-109,0-217.94v-1.67c6.81-4.3,13.33-8.56,20-12.58,5.52-3.33,11.29-6.25,16.81-9.57,5.33-3.21,10.42-6.82,15.74-10.05s11-6.16,16.38-9.42c8-4.83,15.81-9.92,23.79-14.75,5.11-3.09,10.46-5.78,15.57-8.88,8.25-5,16.36-10.26,24.6-15.3a133.78,133.78,0,0,1,14.1-8c3.24-1.49,4.08-3.33,4.07-6.7q-.16-68-.07-136v-5.65h5V6974c0,46.48-.06,93,.1,139.46,0,4.49-1.69,6.6-5.46,8.69-8,4.44-15.57,9.67-23.41,14.41-5.39,3.26-11,6.12-16.42,9.37-7.85,4.72-15.58,9.66-23.38,14.47-4.34,2.68-8.72,5.29-13.07,7.94-8.71,5.29-17.35,10.69-26.13,15.85-7.69,4.52-15.61,8.64-23.27,13.19q-9.48,5.63-18.53,11.94c-1,.73-1.34,3.06-1.34,4.66-.09,24.32-.06,48.65-.06,73q0,68.47,0,137C7126.46,7425.71,7126.28,7427.54,7126.19,7429.36Z" transform="translate(-7121.43 -6969.51)"/></svg>