<svg id="Layer_1" data-name="Layer 1" xmlns="http://www.w3.org/2000/svg" viewBox="0 0 177.88 188.13"><path d="M7281.9,7154.59c.1,6.68-.13,12.32-6.43,17.29-8.53,6.74-15.69,15.21-23.4,23-3.87,3.91-7.16,7.76-6.4,14.21.82,7,.18,14.18.18,22.44l-129.65-86.88v-39.21l-5.64.35c.1,1.05.28,2.22.28,3.39,0,11.16.12,22.33-.05,33.49-.05,3.7.86,5.88,4.39,8,7.33,4.37,14,9.77,21.08,14.61,4.48,3.08,9.17,5.83,13.68,8.86,9.49,6.37,18.87,12.91,28.4,19.23,6.86,4.54,14,8.66,20.79,13.26s13.09,9.64,19.8,14.2c5.57,3.79,11.44,7.13,17.14,10.73,3.17,2,6.35,4,9.31,6.28.63.49.45,2.16.46,3.29,0,17.46,0,34.92,0,52.47l5-.34c0-28.47-.09-57.78.18-87.08,0-2.14,2.4-4.55,4.19-6.33,7.33-7.29,14.88-14.38,22.31-21.57,2.94-2.84,5.94-5.64,8.6-8.73.8-.93.69-2.78.69-4.21,0-14.66.16-29.33-.06-44,0-2.49.38-4.23,1.65-5.22l-6.59,1.7C7281.85,7130.8,7281.72,7142.7,7281.9,7154.59Z" transform="translate(-7110.56 -7105.43)"/></svg>