<svg id="Layer_1" data-name="Layer 1" xmlns="http://www.w3.org/2000/svg" viewBox="0 0 143.38 974.47"><path d="M7249.91,7462.94c-6.9-8.13-18.61-14.44-22.35-24.49q-.36-65,0-130a6.18,6.18,0,0,1,1.71-3.36l-6.9,1.47v6c0,41.33.19,82.66-.19,124-.06,6.57,2.82,10.31,7.07,14.29,7.55,7.07,14.77,14.49,22.09,21.8,3.33,3.32,6.71,6.62,9.77,10.18,1.45,1.68,3.07,3.92,3.12,5.95.3,11.16.14,22.32.14,34.31-4.46-3-8.47-5.62-12.47-8.3-11.39-7.64-22.72-15.39-34.2-22.92-5.44-3.57-11.3-6.52-16.71-10.14-6.39-4.27-12.35-9.19-18.78-13.41-5.35-3.5-11.23-6.2-16.66-9.62-4.88-3.07-9.37-6.77-14.19-10-6.1-4-12.36-7.83-19-12v-6.89q0-275.47-.19-550.95c0-5,2.06-8,5-11q19.56-19.8,39.22-39.48c5.44-5.46,10.92-10.88,16.3-16.4a5,5,0,0,0,1.56-3q.12-47,0-94a19.06,19.06,0,0,0-.37-2.69l-7.46,2.17c2.24,31.15.1,63.3.73,94.82a7.16,7.16,0,0,1-2.08,4.45c-7.32,7.4-14.83,14.62-22.22,22-8.89,8.83-17.61,17.85-26.64,26.54-5.81,5.6-9.26,11.14-9.25,20.19.43,185.13.18,370.33.34,555.44.21,1.24.47,2.93,1.33,3.52,13.3,9.44,27.52,17.42,41.43,25.86,18.37,12.33,36.68,24.75,55.37,36.61,11.43,7.53,22.64,15.42,34.26,22.64,3.55,2.21,4.64,4.43,4.63,8.38-.12,50.51-.08,101.43-.08,151.88l6-.21q0-99.45,0-198.81C7271.94,7481.16,7254.5,7468.83,7249.91,7462.94Z" transform="translate(-7127.07 -6712.27)"/></svg>